<svg height="1em" width="1em" fill="currentColor" viewBox="0 0 32 32" xmlns="http://www.w3.org/2000/svg">
<path d="M6 0C3.79375 0 2 1.79375 2 4V28C2 30.2062 3.79375 32 6 32H24C26.2062 32 28 30.2062 28 28V4C28 1.79375 26.2062 0 24 0H6ZM13 18H17C19.7625 18 22 20.2375 22 23C22 23.55 21.55 24 21 24H9C8.45 24 8 23.55 8 23C8 20.2375 10.2375 18 13 18ZM11.5 12C11.5 11.0717 11.8687 10.1815 12.5251 9.52513C13.1815 8.86875 14.0717 8.5 15 8.5C15.9283 8.5 16.8185 8.86875 17.4749 9.52513C18.1313 10.1815 18.5 11.0717 18.5 12C18.5 12.9283 18.1313 13.8185 17.4749 14.4749C16.8185 15.1313 15.9283 15.5 15 15.5C14.0717 15.5 13.1815 15.1313 12.5251 14.4749C11.8687 13.8185 11.5 12.9283 11.5 12ZM32 5C32 4.45 31.55 4 31 4C30.45 4 30 4.45 30 5V9C30 9.55 30.45 10 31 10C31.55 10 32 9.55 32 9V5ZM32 13C32 12.45 31.55 12 31 12C30.45 12 30 12.45 30 13V17C30 17.55 30.45 18 31 18C31.55 18 32 17.55 32 17V13ZM31 20C30.45 20 30 20.45 30 21V25C30 25.55 30.45 26 31 26C31.55 26 32 25.55 32 25V21C32 20.45 31.55 20 31 20Z"/>
</svg>
