<svg height="1em" width="1em" fill="currentColor" viewBox="0 0 32 32" xmlns="http://www.w3.org/2000/svg">
<g clip-path="url(#clip0_138_2219)">
<path d="M31.525 8.28125C31.2437 8.9375 30.375 8.89375 29.9688 8.30625C28.2313 5.80625 25.8375 3.79375 23.0312 2.51875C22.3813 2.225 22.175 1.375 22.775 0.98125C23.7125 0.3625 24.8375 0 26.0438 0C29.3313 0 31.9937 2.6625 31.9937 5.95C31.9937 6.775 31.825 7.5625 31.5187 8.28125H31.525ZM2.03125 8.30625C1.625 8.89375 0.75 8.9375 0.475 8.28125C0.16875 7.5625 0 6.775 0 5.95C0 2.6625 2.6625 0 5.95 0C7.15625 0 8.28125 0.3625 9.21875 0.98125C9.81875 1.375 9.6125 2.225 8.9625 2.51875C6.1625 3.79375 3.76875 5.80625 2.025 8.30625H2.03125ZM24.3875 29.2125C22.05 30.9625 19.1437 32 16 32C12.8562 32 9.95 30.9625 7.61875 29.2125L5.4125 31.4125C4.63125 32.1937 3.3625 32.1937 2.58125 31.4125C1.8 30.6313 1.8 29.3625 2.58125 28.5812L4.78125 26.3813C3.0375 24.05 2 21.1437 2 18C2 10.2688 8.26875 4 16 4C23.7313 4 30 10.2688 30 18C30 21.1437 28.9625 24.05 27.2125 26.3875L29.4125 28.5875C30.1938 29.3687 30.1938 30.6375 29.4125 31.4188C28.6313 32.2 27.3625 32.2 26.5812 31.4188L24.3813 29.2188L24.3875 29.2125ZM17.5 11.5C17.5 10.6687 16.8312 10 16 10C15.1687 10 14.5 10.6687 14.5 11.5V18C14.5 18.4 14.6562 18.7812 14.9375 19.0625L18.4375 22.5625C19.025 23.15 19.975 23.15 20.5562 22.5625C21.1375 21.975 21.1437 21.025 20.5562 20.4438L17.4937 17.3813V11.5H17.5Z"/>
</g>
<defs>
<clipPath id="clip0_138_2219">
<rect width="32" height="32"/>
</clipPath>
</defs>
</svg>
