<svg height="1em" width="1em" fill="currentColor" viewBox="0 0 32 32" xmlns="http://www.w3.org/2000/svg">
<path d="M17.4125 0.585938C16.6313 -0.195312 15.3625 -0.195312 14.5813 0.585938L6.58125 8.58594C5.8 9.36719 5.8 10.6359 6.58125 11.4172C7.3625 12.1984 8.63125 12.1984 9.4125 11.4172L14 6.82969V19.9984C14 21.1047 14.8938 21.9984 16 21.9984C17.1062 21.9984 18 21.1047 18 19.9984V6.82969L22.5875 11.4172C23.3687 12.1984 24.6375 12.1984 25.4188 11.4172C26.2 10.6359 26.2 9.36719 25.4188 8.58594L17.4187 0.585938H17.4125ZM6 21.9984C6 20.8922 5.10625 19.9984 4 19.9984C2.89375 19.9984 2 20.8922 2 21.9984V25.9984C2 29.3109 4.6875 31.9984 8 31.9984H24C27.3125 31.9984 30 29.3109 30 25.9984V21.9984C30 20.8922 29.1063 19.9984 28 19.9984C26.8937 19.9984 26 20.8922 26 21.9984V25.9984C26 27.1047 25.1063 27.9984 24 27.9984H8C6.89375 27.9984 6 27.1047 6 25.9984V21.9984Z"/>
</svg>
