<svg height="1em" width="1em" fill="currentColor" viewBox="0 0 32 32" xmlns="http://www.w3.org/2000/svg">
<path d="M6 32C4.89375 32 4 31.1063 4 30C4 28.8937 4.89375 28 6 28H26C27.1063 28 28 28.8937 28 30C28 31.1063 27.1063 32 26 32H6ZM17.4125 23.4125C16.6313 24.1938 15.3625 24.1938 14.5813 23.4125L6.58125 15.4125C5.8 14.6313 5.8 13.3625 6.58125 12.5813C7.3625 11.8 8.63125 11.8 9.4125 12.5813L14 17.1688V2C14 0.89375 14.8938 0 16 0C17.1062 0 18 0.89375 18 2V17.1688L22.5875 12.5813C23.3687 11.8 24.6375 11.8 25.4188 12.5813C26.2 13.3625 26.2 14.6313 25.4188 15.4125L17.4187 23.4125H17.4125Z"/>
</svg>
