<svg height="1em" width="1em" fill="currentColor" viewBox="0 0 32 32" xmlns="http://www.w3.org/2000/svg">
<path d="M16 0C14.8938 0 14 0.89375 14 2V2.2C9.4375 3.125 6 7.1625 6 12V13.3562C6 16.3625 4.975 19.2812 3.1 21.6313L2.4875 22.3937C2.16875 22.7875 2 23.275 2 23.7812C2 25.0063 2.99375 26 4.21875 26H27.775C29 26 29.9937 25.0063 29.9937 23.7812C29.9937 23.275 29.825 22.7875 29.5063 22.3937L28.8937 21.6313C27.025 19.2812 26 16.3625 26 13.3562V12C26 7.1625 22.5625 3.125 18 2.2V2C18 0.89375 17.1062 0 16 0ZM12.125 29C12.5688 30.725 14.1375 32 16 32C17.8625 32 19.4312 30.725 19.875 29H12.125Z"/>
</svg>
