<svg height="1em" width="1em" fill="currentColor" viewBox="0 0 32 32" xmlns="http://www.w3.org/2000/svg">
<path d="M9.31875 4.05L8.66875 6H4C1.79375 6 0 7.79375 0 10V26C0 28.2062 1.79375 30 4 30H28C30.2062 30 32 28.2062 32 26V10C32 7.79375 30.2062 6 28 6H23.3312L22.6812 4.05C22.275 2.825 21.1313 2 19.8375 2H12.1625C10.8688 2 9.725 2.825 9.31875 4.05ZM16 12C17.5913 12 19.1174 12.6321 20.2426 13.7574C21.3679 14.8826 22 16.4087 22 18C22 19.5913 21.3679 21.1174 20.2426 22.2426C19.1174 23.3679 17.5913 24 16 24C14.4087 24 12.8826 23.3679 11.7574 22.2426C10.6321 21.1174 10 19.5913 10 18C10 16.4087 10.6321 14.8826 11.7574 13.7574C12.8826 12.6321 14.4087 12 16 12Z"/>
</svg>
