<svg height="1em" width="1em" fill="currentColor" viewBox="0 0 32 32" xmlns="http://www.w3.org/2000/svg">
<path d="M1.34865 1C0.601271 1 0 1.60795 0 2.36364C0 3.11932 0.601271 3.72727 1.34865 3.72727H3.89422C4.11337 3.72727 4.29881 3.88636 4.33814 4.10227L7.26583 20.3693C7.61423 22.3125 9.2888 23.7273 11.2443 23.7273H25.6243C26.3716 23.7273 26.9729 23.1193 26.9729 22.3636C26.9729 21.608 26.3716 21 25.6243 21H11.2443C10.5925 21 10.0362 20.5284 9.91817 19.8807L9.63158 18.2727H26.6919C28.4227 18.2727 29.9062 17.0284 30.2265 15.3068L31.9685 5.88068C32.1764 4.76136 31.3279 3.72727 30.1984 3.72727H7.00734L6.98486 3.61364C6.71513 2.10227 5.41144 1 3.8886 1H1.34865ZM11.6883 31C12.4036 31 13.0897 30.7127 13.5955 30.2012C14.1014 29.6897 14.3856 28.996 14.3856 28.2727C14.3856 27.5494 14.1014 26.8557 13.5955 26.3443C13.0897 25.8328 12.4036 25.5455 11.6883 25.5455C10.9729 25.5455 10.2868 25.8328 9.78099 26.3443C9.27515 26.8557 8.99097 27.5494 8.99097 28.2727C8.99097 28.996 9.27515 29.6897 9.78099 30.2012C10.2868 30.7127 10.9729 31 11.6883 31ZM24.2756 31C24.991 31 25.6771 30.7127 26.1829 30.2012C26.6887 29.6897 26.9729 28.996 26.9729 28.2727C26.9729 27.5494 26.6887 26.8557 26.1829 26.3443C25.6771 25.8328 24.991 25.5455 24.2756 25.5455C23.5603 25.5455 22.8742 25.8328 22.3684 26.3443C21.8625 26.8557 21.5783 27.5494 21.5783 28.2727C21.5783 28.996 21.8625 29.6897 22.3684 30.2012C22.8742 30.7127 23.5603 31 24.2756 31Z"/>
</svg>
