<svg height="1em" width="1em" fill="currentColor" viewBox="0 0 32 32" xmlns="http://www.w3.org/2000/svg">
<path d="M0 2.36364C0 1.60795 0.601271 1 1.34865 1H3.89421C5.41706 1 6.72075 2.10227 6.99048 3.61364L7.01296 3.72727H30.204C31.3279 3.72727 32.1764 4.76136 31.9685 5.88068L30.2209 15.3068C29.9006 17.0284 28.4171 18.2727 26.6863 18.2727H9.62596L9.91255 19.8807C10.0306 20.5284 10.5869 21 11.2387 21H25.6243C26.3716 21 26.9729 21.608 26.9729 22.3636C26.9729 23.1193 26.3716 23.7273 25.6243 23.7273H11.2443C9.2888 23.7273 7.61423 22.3125 7.26583 20.3693L4.33814 4.10227C4.29881 3.88636 4.11337 3.72727 3.89421 3.72727H1.34865C0.601271 3.72727 0 3.11932 0 2.36364ZM8.99097 28.2727C8.99097 27.5494 9.27515 26.8557 9.78099 26.3443C10.2868 25.8328 10.9729 25.5455 11.6883 25.5455C12.4036 25.5455 13.0897 25.8328 13.5955 26.3443C14.1014 26.8557 14.3856 27.5494 14.3856 28.2727C14.3856 28.996 14.1014 29.6897 13.5955 30.2012C13.0897 30.7127 12.4036 31 11.6883 31C10.9729 31 10.2868 30.7127 9.78099 30.2012C9.27515 29.6897 8.99097 28.996 8.99097 28.2727ZM21.5783 28.2727C21.5783 27.5494 21.8625 26.8557 22.3683 26.3443C22.8742 25.8328 23.5603 25.5455 24.2756 25.5455C24.991 25.5455 25.6771 25.8328 26.1829 26.3443C26.6887 26.8557 26.9729 27.5494 26.9729 28.2727C26.9729 28.996 26.6887 29.6897 26.1829 30.2012C25.6771 30.7127 24.991 31 24.2756 31C23.5603 31 22.8742 30.7127 22.3683 30.2012C21.8625 29.6897 21.5783 28.996 21.5783 28.2727ZM18.881 6.36364C18.1337 6.36364 17.5324 6.97159 17.5324 7.72727V9.63636H15.6443C14.8969 9.63636 14.2956 10.2443 14.2956 11C14.2956 11.7557 14.8969 12.3636 15.6443 12.3636H17.5324V14.2727C17.5324 15.0284 18.1337 15.6364 18.881 15.6364C19.6284 15.6364 20.2297 15.0284 20.2297 14.2727V12.3636H22.1178C22.8652 12.3636 23.4664 11.7557 23.4664 11C23.4664 10.2443 22.8652 9.63636 22.1178 9.63636H20.2297V7.72727C20.2297 6.97159 19.6284 6.36364 18.881 6.36364Z"/>
</svg>
