<svg height="1em" width="1em" fill="currentColor" viewBox="0 0 32 32" xmlns="http://www.w3.org/2000/svg">
<g clip-path="url(#clip0_138_2124)">
<path d="M6 0C3.79375 0 2 1.79375 2 4C2 6.20625 3.79375 8 6 8H9V10H5.4375C3.4625 10 1.78125 11.4437 1.48125 13.4L0.06875 22.7563C0.025 23.05 0 23.35 0 23.65V28C0 30.2062 1.79375 32 4 32H28C30.2062 32 32 30.2062 32 28V23.65C32 23.35 31.975 23.05 31.9312 22.75L30.5125 13.4C30.2188 11.4437 28.5375 10 26.5625 10H13V8H16C18.2062 8 20 6.20625 20 4C20 1.79375 18.2062 0 16 0H6ZM6 3H16C16.55 3 17 3.45 17 4C17 4.55 16.55 5 16 5H6C5.45 5 5 4.55 5 4C5 3.45 5.45 3 6 3ZM4 26.5C4 25.6688 4.66875 25 5.5 25H26.5C27.3312 25 28 25.6688 28 26.5C28 27.3312 27.3312 28 26.5 28H5.5C4.66875 28 4 27.3312 4 26.5ZM7 16.5C6.60218 16.5 6.22064 16.342 5.93934 16.0607C5.65804 15.7794 5.5 15.3978 5.5 15C5.5 14.6022 5.65804 14.2206 5.93934 13.9393C6.22064 13.658 6.60218 13.5 7 13.5C7.39782 13.5 7.77936 13.658 8.06066 13.9393C8.34196 14.2206 8.5 14.6022 8.5 15C8.5 15.3978 8.34196 15.7794 8.06066 16.0607C7.77936 16.342 7.39782 16.5 7 16.5ZM14.5 15C14.5 15.3978 14.342 15.7794 14.0607 16.0607C13.7794 16.342 13.3978 16.5 13 16.5C12.6022 16.5 12.2206 16.342 11.9393 16.0607C11.658 15.7794 11.5 15.3978 11.5 15C11.5 14.6022 11.658 14.2206 11.9393 13.9393C12.2206 13.658 12.6022 13.5 13 13.5C13.3978 13.5 13.7794 13.658 14.0607 13.9393C14.342 14.2206 14.5 14.6022 14.5 15ZM10 21.5C9.60218 21.5 9.22064 21.342 8.93934 21.0607C8.65804 20.7794 8.5 20.3978 8.5 20C8.5 19.6022 8.65804 19.2206 8.93934 18.9393C9.22064 18.658 9.60218 18.5 10 18.5C10.3978 18.5 10.7794 18.658 11.0607 18.9393C11.342 19.2206 11.5 19.6022 11.5 20C11.5 20.3978 11.342 20.7794 11.0607 21.0607C10.7794 21.342 10.3978 21.5 10 21.5ZM20.5 15C20.5 15.3978 20.342 15.7794 20.0607 16.0607C19.7794 16.342 19.3978 16.5 19 16.5C18.6022 16.5 18.2206 16.342 17.9393 16.0607C17.658 15.7794 17.5 15.3978 17.5 15C17.5 14.6022 17.658 14.2206 17.9393 13.9393C18.2206 13.658 18.6022 13.5 19 13.5C19.3978 13.5 19.7794 13.658 20.0607 13.9393C20.342 14.2206 20.5 14.6022 20.5 15ZM16 21.5C15.6022 21.5 15.2206 21.342 14.9393 21.0607C14.658 20.7794 14.5 20.3978 14.5 20C14.5 19.6022 14.658 19.2206 14.9393 18.9393C15.2206 18.658 15.6022 18.5 16 18.5C16.3978 18.5 16.7794 18.658 17.0607 18.9393C17.342 19.2206 17.5 19.6022 17.5 20C17.5 20.3978 17.342 20.7794 17.0607 21.0607C16.7794 21.342 16.3978 21.5 16 21.5ZM26.5 15C26.5 15.197 26.4612 15.392 26.3858 15.574C26.3104 15.756 26.1999 15.9214 26.0607 16.0607C25.9214 16.1999 25.756 16.3104 25.574 16.3858C25.392 16.4612 25.197 16.5 25 16.5C24.803 16.5 24.608 16.4612 24.426 16.3858C24.244 16.3104 24.0786 16.1999 23.9393 16.0607C23.8001 15.9214 23.6896 15.756 23.6142 15.574C23.5388 15.392 23.5 15.197 23.5 15C23.5 14.803 23.5388 14.608 23.6142 14.426C23.6896 14.244 23.8001 14.0786 23.9393 13.9393C24.0786 13.8001 24.244 13.6896 24.426 13.6142C24.608 13.5388 24.803 13.5 25 13.5C25.197 13.5 25.392 13.5388 25.574 13.6142C25.756 13.6896 25.9214 13.8001 26.0607 13.9393C26.1999 14.0786 26.3104 14.244 26.3858 14.426C26.4612 14.608 26.5 14.803 26.5 15ZM22 21.5C21.6022 21.5 21.2206 21.342 20.9393 21.0607C20.658 20.7794 20.5 20.3978 20.5 20C20.5 19.6022 20.658 19.2206 20.9393 18.9393C21.2206 18.658 21.6022 18.5 22 18.5C22.3978 18.5 22.7794 18.658 23.0607 18.9393C23.342 19.2206 23.5 19.6022 23.5 20C23.5 20.3978 23.342 20.7794 23.0607 21.0607C22.7794 21.342 22.3978 21.5 22 21.5Z"/>
</g>
<defs>
<clipPath id="clip0_138_2124">
<rect width="32" height="32"/>
</clipPath>
</defs>
</svg>
