<svg height="1em" width="1em" fill="currentColor" viewBox="0 0 32 32" xmlns="http://www.w3.org/2000/svg">
<g clip-path="url(#clip0_138_2182)">
<path d="M16 32C20.2435 32 24.3131 30.3143 27.3137 27.3137C30.3143 24.3131 32 20.2435 32 16C32 11.7565 30.3143 7.68687 27.3137 4.68629C24.3131 1.68571 20.2435 0 16 0C11.7565 0 7.68687 1.68571 4.68629 4.68629C1.68571 7.68687 0 11.7565 0 16C0 20.2435 1.68571 24.3131 4.68629 27.3137C7.68687 30.3143 11.7565 32 16 32ZM10.4375 10.4375C11.025 9.85 11.975 9.85 12.5562 10.4375L15.9937 13.875L19.4312 10.4375C20.0187 9.85 20.9688 9.85 21.55 10.4375C22.1312 11.025 22.1375 11.975 21.55 12.5562L18.1125 15.9937L21.55 19.4312C22.1375 20.0187 22.1375 20.9688 21.55 21.55C20.9625 22.1312 20.0125 22.1375 19.4312 21.55L15.9937 18.1125L12.5562 21.55C11.9688 22.1375 11.0188 22.1375 10.4375 21.55C9.85625 20.9625 9.85 20.0125 10.4375 19.4312L13.875 15.9937L10.4375 12.5562C9.85 11.9688 9.85 11.0188 10.4375 10.4375Z"/>
</g>
<defs>
<clipPath id="clip0_138_2182">
<rect width="32" height="32"/>
</clipPath>
</defs>
</svg>
