<svg height="1em" width="1em" fill="currentColor" viewBox="0 0 32 32" xmlns="http://www.w3.org/2000/svg">
<g clip-path="url(#clip0_138_2167)">
<path d="M16 0C11.7565 0 7.68687 1.68571 4.68629 4.68629C1.68571 7.68687 0 11.7565 0 16C0 20.2435 1.68571 24.3131 4.68629 27.3137C7.68687 30.3143 11.7565 32 16 32C20.2435 32 24.3131 30.3143 27.3137 27.3137C30.3143 24.3131 32 20.2435 32 16C32 11.7565 30.3143 7.68687 27.3137 4.68629C24.3131 1.68571 20.2435 0 16 0ZM15.2937 24.2062L8.79375 17.7062C8.50625 17.4187 8.425 16.9875 8.575 16.6187C8.725 16.25 9.09375 16 9.5 16H13V10C13 8.89375 13.8938 8 15 8H17C18.1063 8 19 8.89375 19 10V16H22.5C22.9062 16 23.2687 16.2437 23.425 16.6187C23.5812 16.9937 23.4937 17.425 23.2062 17.7062L16.7062 24.2062C16.3187 24.5938 15.6812 24.5938 15.2937 24.2062Z"/>
</g>
<defs>
<clipPath id="clip0_138_2167">
<rect width="32" height="32"/>
</clipPath>
</defs>
</svg>
