<svg height="1em" width="1em" fill="currentColor" viewBox="0 0 32 32" xmlns="http://www.w3.org/2000/svg">
<g clip-path="url(#clip0_138_2226)">
<path d="M16 32C20.2435 32 24.3131 30.3143 27.3137 27.3137C30.3143 24.3131 32 20.2435 32 16C32 11.7565 30.3143 7.68687 27.3137 4.68629C24.3131 1.68571 20.2435 0 16 0C11.7565 0 7.68687 1.68571 4.68629 4.68629C1.68571 7.68687 0 11.7565 0 16C0 20.2435 1.68571 24.3131 4.68629 27.3137C7.68687 30.3143 11.7565 32 16 32ZM16.7062 7.79375L23.2062 14.2937C23.4937 14.5813 23.575 15.0125 23.425 15.3813C23.275 15.75 22.9062 16 22.5 16H19V22C19 23.1063 18.1063 24 17 24H15C13.8938 24 13 23.1063 13 22V16H9.5C9.09375 16 8.73125 15.7563 8.575 15.3813C8.41875 15.0063 8.50625 14.575 8.79375 14.2937L15.2937 7.79375C15.6812 7.40625 16.3187 7.40625 16.7062 7.79375Z"/>
</g>
<defs>
<clipPath id="clip0_138_2226">
<rect width="32" height="32"/>
</clipPath>
</defs>
</svg>
