<svg height="1em" width="1em" fill="currentColor" viewBox="0 0 32 32" xmlns="http://www.w3.org/2000/svg">
<g clip-path="url(#clip0_138_2183)">
<path d="M16 0C20.2435 0 24.3131 1.68571 27.3137 4.68629C30.3143 7.68687 32 11.7565 32 16C32 20.2435 30.3143 24.3131 27.3137 27.3137C24.3131 30.3143 20.2435 32 16 32C11.7565 32 7.68687 30.3143 4.68629 27.3137C1.68571 24.3131 0 20.2435 0 16C0 11.7565 1.68571 7.68687 4.68629 4.68629C7.68687 1.68571 11.7565 0 16 0ZM14.5 7.5V16C14.5 16.5 14.75 16.9688 15.1687 17.25L21.1688 21.25C21.8563 21.7125 22.7875 21.525 23.25 20.8312C23.7125 20.1375 23.525 19.2125 22.8312 18.75L17.5 15.2V7.5C17.5 6.66875 16.8312 6 16 6C15.1687 6 14.5 6.66875 14.5 7.5Z"/>
</g>
<defs>
<clipPath id="clip0_138_2183">
<rect width="32" height="32"/>
</clipPath>
</defs>
</svg>
