<svg height="1em" width="1em" fill="currentColor" viewBox="0 0 32 32" xmlns="http://www.w3.org/2000/svg">
<path d="M0 19.9643C0 24.4007 3.58333 28 8 28H24.8889C28.8167 28 32 24.8025 32 20.8571C32 17.9777 30.3056 15.4944 27.8611 14.3672C28.2333 13.6362 28.4444 12.8047 28.4444 11.9286C28.4444 8.97098 26.0556 6.57143 23.1111 6.57143C22.1278 6.57143 21.2111 6.83929 20.4222 7.30246C19.0833 4.74665 16.4111 3 13.3333 3C8.91667 3 5.33333 6.59933 5.33333 11.0357C5.33333 11.4821 5.37222 11.923 5.43889 12.3471C2.27778 13.4185 0 16.4263 0 19.9643Z"/>
</svg>
