<svg height="1em" width="1em" fill="currentColor" viewBox="0 0 32 32" xmlns="http://www.w3.org/2000/svg">
<path d="M8 28C3.58333 28 0 24.4007 0 19.9643C0 16.4263 2.27778 13.4241 5.43889 12.3471C5.36667 11.9174 5.33333 11.4821 5.33333 11.0357C5.33333 6.59933 8.91667 3 13.3333 3C16.4111 3 19.0833 4.74665 20.4222 7.30246C21.2111 6.83929 22.1333 6.57143 23.1111 6.57143C26.0556 6.57143 28.4444 8.97098 28.4444 11.9286C28.4444 12.8047 28.2333 13.6362 27.8611 14.3672C30.3056 15.5 32 17.9777 32 20.8571C32 24.8025 28.8167 28 24.8889 28H8ZM16.9444 11.8728C16.4222 11.3482 15.5778 11.3482 15.0611 11.8728L11.0611 15.8906C10.5389 16.4152 10.5389 17.2634 11.0611 17.7824C11.5833 18.3013 12.4278 18.3069 12.9444 17.7824L14.6667 16.0525V21.75C14.6667 22.4922 15.2611 23.0893 16 23.0893C16.7389 23.0893 17.3333 22.4922 17.3333 21.75V16.0525L19.0556 17.7824C19.5778 18.3069 20.4222 18.3069 20.9389 17.7824C21.4556 17.2578 21.4611 16.4096 20.9389 15.8906L16.9389 11.8728H16.9444Z"/>
</svg>
