<svg height="1em" width="1em" fill="currentColor" viewBox="0 0 32 32" xmlns="http://www.w3.org/2000/svg">
<path d="M20.0413 2.06857C19.097 1.80066 18.1137 2.34195 17.8415 3.27144L10.731 27.7663C10.4588 28.6958 11.0088 29.6635 11.9531 29.9314C12.8975 30.1993 13.8807 29.6581 14.1529 28.7286L21.2634 4.23374C21.5356 3.30425 20.9857 2.33648 20.0413 2.06857ZM23.6299 9.50997C22.9355 10.1934 22.9355 11.3033 23.6299 11.9868L27.7073 16L23.6299 20.0132C22.9355 20.6967 22.9355 21.8066 23.6299 22.49C24.3243 23.1735 25.452 23.1735 26.1463 22.49L31.4792 17.2411C32.1736 16.5577 32.1736 15.4478 31.4792 14.7643L26.1463 9.51543C25.452 8.83198 24.3243 8.83198 23.6299 9.51543V9.50997ZM8.37011 9.50997C7.67572 8.82652 6.54804 8.82652 5.85366 9.50997L0.520788 14.7589C-0.173596 15.4423 -0.173596 16.5522 0.520788 17.2357L5.85366 22.4846C6.54804 23.168 7.67572 23.168 8.37011 22.4846C9.06449 21.8011 9.06449 20.6912 8.37011 20.0077L4.29268 16L8.36455 11.9868C9.05894 11.3033 9.05894 10.1934 8.36455 9.50997H8.37011Z"/>
</svg>
