<svg height="1em" width="1em" fill="currentColor" viewBox="0 0 32 32" xmlns="http://www.w3.org/2000/svg">
<g clip-path="url(#clip0_138_2146)">
<path d="M21.3342 9.77698C21.3342 15.1765 16.5568 19.554 10.6684 19.554C9.1852 19.554 7.7742 19.2762 6.49098 18.7762L1.95801 21.176C1.44139 21.4482 0.808107 21.3538 0.391474 20.9427C-0.0251582 20.5317 -0.119595 19.8928 0.15816 19.3762L2.13578 15.6432C0.796997 14.01 0.00261728 11.9768 0.00261728 9.77698C0.00261728 4.37742 4.78 0 10.6684 0C16.5568 0 21.3342 4.37742 21.3342 9.77698ZM21.3342 30.2197C16.1069 30.2197 11.7572 26.77 10.8462 22.2204C17.5123 22.1371 23.3063 17.393 23.9451 10.9602C28.5725 12.0268 32 15.8654 32 20.4428C32 22.6426 31.2056 24.6758 29.8668 26.309L31.8445 30.042C32.1167 30.5586 32.0222 31.1919 31.6111 31.6085C31.2001 32.0252 30.5612 32.1196 30.0446 31.8418L25.5116 29.442C24.2284 29.942 22.8174 30.2197 21.3342 30.2197Z"/>
</g>
<defs>
<clipPath id="clip0_138_2146">
<rect width="32" height="32"/>
</clipPath>
</defs>
</svg>
