<svg height="1em" width="1em" fill="currentColor" viewBox="0 0 32 32" xmlns="http://www.w3.org/2000/svg">
<path d="M14.0444 3H3.55556C1.59444 3 0 4.60156 0 6.57143V19.0714C0 21.0413 1.59444 22.6429 3.55556 22.6429H13.3333V19.0714H3.55556V6.57143H13.3333V5.67857C13.3333 4.70201 13.5944 3.78683 14.0444 3ZM13.3333 25.3214H6.66667C5.92778 25.3214 5.33333 25.9185 5.33333 26.6607C5.33333 27.4029 5.92778 28 6.66667 28H14.0444C13.5889 27.2132 13.3333 26.298 13.3333 25.3214ZM18.6667 3C17.1944 3 16 4.19978 16 5.67857V25.3214C16 26.8002 17.1944 28 18.6667 28H29.3333C30.8056 28 32 26.8002 32 25.3214V5.67857C32 4.19978 30.8056 3 29.3333 3H18.6667ZM25.7778 19.9643C25.7778 19.4907 25.5905 19.0365 25.2571 18.7016C24.9237 18.3667 24.4715 18.1786 24 18.1786C23.5285 18.1786 23.0763 18.3667 22.7429 18.7016C22.4095 19.0365 22.2222 19.4907 22.2222 19.9643C22.2222 20.4379 22.4095 20.8921 22.7429 21.227C23.0763 21.5619 23.5285 21.75 24 21.75C24.4715 21.75 24.9237 21.5619 25.2571 21.227C25.5905 20.8921 25.7778 20.4379 25.7778 19.9643ZM19.5556 19.9643C19.5556 18.7803 20.0238 17.6448 20.8573 16.8076C21.6908 15.9703 22.8213 15.5 24 15.5C25.1787 15.5 26.3092 15.9703 27.1427 16.8076C27.9762 17.6448 28.4444 18.7803 28.4444 19.9643C28.4444 21.1483 27.9762 22.2838 27.1427 23.121C26.3092 23.9582 25.1787 24.4286 24 24.4286C22.8213 24.4286 21.6908 23.9582 20.8573 23.121C20.0238 22.2838 19.5556 21.1483 19.5556 19.9643ZM22.2222 8.35714C22.2222 7.88354 22.4095 7.42934 22.7429 7.09445C23.0763 6.75957 23.5285 6.57143 24 6.57143C24.4715 6.57143 24.9237 6.75957 25.2571 7.09445C25.5905 7.42934 25.7778 7.88354 25.7778 8.35714C25.7778 8.83074 25.5905 9.28495 25.2571 9.61983C24.9237 9.95472 24.4715 10.1429 24 10.1429C23.5285 10.1429 23.0763 9.95472 22.7429 9.61983C22.4095 9.28495 22.2222 8.83074 22.2222 8.35714Z"/>
</svg>
