<svg height="1em" width="1em" fill="currentColor" viewBox="0 0 32 32" xmlns="http://www.w3.org/2000/svg">
<path d="M0 8V10H32V8C32 5.79375 30.2062 4 28 4H4C1.79375 4 0 5.79375 0 8ZM0 13V24C0 26.2062 1.79375 28 4 28H28C30.2062 28 32 26.2062 32 24V13H0ZM4 22.5C4 21.6688 4.66875 21 5.5 21H8.5C9.33125 21 10 21.6688 10 22.5C10 23.3312 9.33125 24 8.5 24H5.5C4.66875 24 4 23.3312 4 22.5ZM13 22.5C13 21.6688 13.6687 21 14.5 21H18.5C19.3312 21 20 21.6688 20 22.5C20 23.3312 19.3312 24 18.5 24H14.5C13.6687 24 13 23.3312 13 22.5Z"/>
</svg>
