<svg height="1em" width="1em" fill="currentColor" viewBox="0 0 32 32" xmlns="http://www.w3.org/2000/svg">
<path d="M18 2C18 0.89375 17.1062 0 16 0C14.8938 0 14 0.89375 14 2V15.1687L11.4125 12.5813C10.6313 11.8 9.3625 11.8 8.58125 12.5813C7.8 13.3625 7.8 14.6313 8.58125 15.4125L14.5813 21.4125C15.3625 22.1938 16.6313 22.1938 17.4125 21.4125L23.4125 15.4125C24.1938 14.6313 24.1938 13.3625 23.4125 12.5813C22.6313 11.8 21.3625 11.8 20.5812 12.5813L18 15.1687V2ZM6 20C3.79375 20 2 21.7938 2 24V26C2 28.2062 3.79375 30 6 30H26C28.2062 30 30 28.2062 30 26V24C30 21.7938 28.2062 20 26 20H23.0688L19.5312 23.5375C17.5813 25.4875 14.4125 25.4875 12.4625 23.5375L8.93125 20H6ZM25 23.5C25.197 23.5 25.392 23.5388 25.574 23.6142C25.756 23.6896 25.9214 23.8001 26.0607 23.9393C26.1999 24.0786 26.3104 24.244 26.3858 24.426C26.4612 24.608 26.5 24.803 26.5 25C26.5 25.197 26.4612 25.392 26.3858 25.574C26.3104 25.756 26.1999 25.9214 26.0607 26.0607C25.9214 26.1999 25.756 26.3104 25.574 26.3858C25.392 26.4612 25.197 26.5 25 26.5C24.803 26.5 24.608 26.4612 24.426 26.3858C24.244 26.3104 24.0786 26.1999 23.9393 26.0607C23.8001 25.9214 23.6896 25.756 23.6142 25.574C23.5388 25.392 23.5 25.197 23.5 25C23.5 24.803 23.5388 24.608 23.6142 24.426C23.6896 24.244 23.8001 24.0786 23.9393 23.9393C24.0786 23.8001 24.244 23.6896 24.426 23.6142C24.608 23.5388 24.803 23.5 25 23.5Z"/>
</svg>
