<svg height="1em" width="1em" fill="currentColor" viewBox="0 0 32 32" xmlns="http://www.w3.org/2000/svg">
<g clip-path="url(#clip0_138_2163)">
<path d="M3.48125 12.4812L5.4125 14.4125C5.7875 14.7875 6.29375 15 6.825 15H8.16875C8.7 15 9.20625 15.2125 9.58125 15.5875L11.4125 17.4188C11.7875 17.7938 12 18.3 12 18.8312V21.175C12 21.7062 12.2125 22.2125 12.5875 22.5875L13.4187 23.4188C13.7937 23.7938 14.0063 24.3 14.0063 24.8312V26C14.0063 27.1063 14.9 28 16.0063 28C17.1125 28 18.0063 27.1063 18.0063 26V25.8312C18.0063 25.3 18.2188 24.7938 18.5938 24.4188L21.425 21.5875C21.8 21.2125 22.0125 20.7062 22.0125 20.175V18.0063C22.0125 16.9 21.1188 16.0063 20.0125 16.0063H14.8438C14.3125 16.0063 13.8062 15.7937 13.4312 15.4187L12.4312 14.4187C12.1687 14.1562 12.0188 13.7937 12.0188 13.4187C12.0188 12.6375 12.65 12.0063 13.4312 12.0063H15.6C16.3813 12.0063 17.0125 11.375 17.0125 10.5938C17.0125 10.2188 16.8625 9.85625 16.6 9.59375L15.3687 8.3625C15.125 8.125 15 7.81875 15 7.5C15 7.18125 15.125 6.875 15.3562 6.64375L16.4375 5.5625C16.8 5.2 17.0063 4.70625 17.0063 4.19375C17.0063 3.74375 16.8563 3.3375 16.6063 3.0125C16.4062 3.00625 16.2063 3 16.0063 3C10.0438 3 5.025 7.0125 3.4875 12.4812H3.48125ZM29 16C29 13.8375 28.475 11.8 27.5375 10.0125C27.1375 10.0687 26.7438 10.2563 26.4188 10.5813L25.5812 11.4187C25.2062 11.7937 24.9937 12.3 24.9937 12.8313V15C24.9937 16.1063 25.8875 17 26.9937 17H28.5C28.6562 17 28.8125 16.9813 28.9562 16.95C28.9812 16.6375 28.9875 16.3188 28.9875 16H29ZM0 16C0 11.7565 1.68571 7.68687 4.68629 4.68629C7.68687 1.68571 11.7565 0 16 0C20.2435 0 24.3131 1.68571 27.3137 4.68629C30.3143 7.68687 32 11.7565 32 16C32 20.2435 30.3143 24.3131 27.3137 27.3137C24.3131 30.3143 20.2435 32 16 32C11.7565 32 7.68687 30.3143 4.68629 27.3137C1.68571 24.3131 0 20.2435 0 16Z"/>
</g>
<defs>
<clipPath id="clip0_138_2163">
<rect width="32" height="32"/>
</clipPath>
</defs>
</svg>
