<svg height="1em" width="1em" fill="currentColor" viewBox="0 0 32 32" xmlns="http://www.w3.org/2000/svg">
<path d="M17.4222 15.3783C18.1722 15.8917 19.1611 15.8917 19.9111 15.3783L31.9778 7.17522C31.7833 5.38951 30.2778 4 28.4444 4H8.88889C7.05556 4 5.55 5.38951 5.35556 7.17522L17.4222 15.3783ZM21.4056 17.5993C19.75 18.7266 17.5833 18.7266 15.9278 17.5993L5.33333 10.3951V20.0714C5.33333 22.0413 6.92778 23.6429 8.88889 23.6429H28.4444C30.4056 23.6429 32 22.0413 32 20.0714V10.3951L21.4056 17.5938V17.5993ZM2.66667 10.6964C2.66667 9.95424 2.07222 9.35714 1.33333 9.35714C0.594444 9.35714 0 9.95424 0 10.6964V25.4286C0 27.3984 1.59444 29 3.55556 29H25.3333C26.0722 29 26.6667 28.4029 26.6667 27.6607C26.6667 26.9185 26.0722 26.3214 25.3333 26.3214H3.55556C3.06667 26.3214 2.66667 25.9196 2.66667 25.4286V10.6964Z"/>
</svg>
