<svg height="1em" width="1em" fill="currentColor" viewBox="0 0 32 32" xmlns="http://www.w3.org/2000/svg">
<g clip-path="url(#clip0_138_2156)">
<path d="M2.27659 0.391599C1.75432 -0.130533 0.909801 -0.130533 0.39309 0.391599C-0.123622 0.91373 -0.129178 1.75803 0.387534 2.28016L29.7234 31.6084C30.2457 32.1305 31.0902 32.1305 31.6069 31.6084C32.1236 31.0863 32.1292 30.242 31.6069 29.7254L26.2509 24.3708C26.4009 24.2375 26.5509 24.1042 26.6954 23.9708C29.2956 21.5546 31.0346 18.6718 31.8625 16.6888C32.0458 16.25 32.0458 15.7612 31.8625 15.3223C31.0346 13.3394 29.2956 10.451 26.6954 8.04027C24.0785 5.61291 20.4837 3.56327 15.9944 3.56327C12.8386 3.56327 10.1273 4.57421 7.88263 6.0184L2.27659 0.391599ZM11.3607 9.47891C12.6664 8.54574 14.2721 7.99583 16 7.99583C20.4171 7.99583 24.0007 11.5785 24.0007 15.9944C24.0007 17.7219 23.4506 19.3216 22.5172 20.6325L20.5893 18.7051C21.2949 17.5164 21.5338 16.0555 21.1504 14.6114C20.3893 11.7674 17.4612 10.0788 14.6165 10.8398C14.1387 10.9675 13.6887 11.1564 13.2831 11.3952L11.3552 9.4678L11.3607 9.47891ZM18.0724 23.7209C17.4112 23.8986 16.7167 23.9931 16 23.9931C11.583 23.9931 7.99931 20.4103 7.99931 15.9944C7.99931 15.2779 8.09376 14.5836 8.27155 13.9226L3.8545 9.50668C2.04323 11.5508 0.79868 13.7171 0.137512 15.3112C-0.0458373 15.75 -0.0458373 16.2388 0.137512 16.6777C0.965362 18.6607 2.7044 21.549 5.30463 23.9597C7.92152 26.3871 11.5163 28.4367 16.0056 28.4367C18.078 28.4367 19.9615 27.9979 21.6449 27.2925L18.078 23.7264L18.0724 23.7209Z"/>
</g>
<defs>
<clipPath id="clip0_138_2156">
<rect width="32" height="32"/>
</clipPath>
</defs>
</svg>
