<svg height="1em" width="1em" fill="currentColor" viewBox="0 0 32 32" xmlns="http://www.w3.org/2000/svg">
<path d="M16 3C11.5123 3 7.91877 5.05357 5.30279 7.49777C2.70346 9.92522 0.965026 12.8214 0.137464 14.8136C-0.0458214 15.2545 -0.0458214 15.7455 0.137464 16.1864C0.965026 18.1786 2.70346 21.0804 5.30279 23.5022C7.91877 25.9408 11.5123 28 16 28C20.4877 28 24.0812 25.9464 26.6972 23.5022C29.2965 21.0748 31.035 18.1786 31.8625 16.1864C32.0458 15.7455 32.0458 15.2545 31.8625 14.8136C31.035 12.8214 29.2965 9.91964 26.6972 7.49777C24.0812 5.05915 20.4877 3 16 3ZM8.00208 15.5C8.00208 13.3688 8.84472 11.3249 10.3446 9.81789C11.8445 8.3109 13.8788 7.46429 16 7.46429C18.1212 7.46429 20.1555 8.3109 21.6554 9.81789C23.1553 11.3249 23.9979 13.3688 23.9979 15.5C23.9979 17.6312 23.1553 19.6751 21.6554 21.1821C20.1555 22.6891 18.1212 23.5357 16 23.5357C13.8788 23.5357 11.8445 22.6891 10.3446 21.1821C8.84472 19.6751 8.00208 17.6312 8.00208 15.5ZM16 11.9286C16 13.8984 14.406 15.5 12.4454 15.5C11.8066 15.5 11.2068 15.3326 10.6847 15.0312C10.6292 15.6395 10.6792 16.2645 10.8458 16.8839C11.6067 19.7411 14.5337 21.4375 17.3774 20.673C20.2211 19.9085 21.9096 16.9676 21.1487 14.1105C20.4711 11.5603 18.0661 9.93638 15.5335 10.1596C15.8278 10.6786 16 11.2812 16 11.9286Z"/>
</svg>
