<svg height="1em" width="1em" fill="currentColor" viewBox="0 0 32 32" xmlns="http://www.w3.org/2000/svg">
<g clip-path="url(#clip0_138_2215)">
<path d="M16 32C20.2435 32 24.3131 30.3143 27.3137 27.3137C30.3143 24.3131 32 20.2435 32 16C32 11.7565 30.3143 7.68687 27.3137 4.68629C24.3131 1.68571 20.2435 0 16 0C11.7565 0 7.68687 1.68571 4.68629 4.68629C1.68571 7.68687 0 11.7565 0 16C0 20.2435 1.68571 24.3131 4.68629 27.3137C7.68687 30.3143 11.7565 32 16 32ZM10.3375 20.1187C11.6125 21.8687 13.675 23 16 23C18.325 23 20.3875 21.8687 21.6625 20.1187C22.15 19.45 23.0875 19.3 23.7563 19.7875C24.425 20.275 24.575 21.2125 24.0875 21.8813C22.2687 24.375 19.325 26 16 26C12.675 26 9.73125 24.375 7.9125 21.8813C7.425 21.2125 7.575 20.275 8.24375 19.7875C8.9125 19.3 9.85 19.45 10.3375 20.1187ZM9 13C9 12.4696 9.21071 11.9609 9.58579 11.5858C9.96086 11.2107 10.4696 11 11 11C11.5304 11 12.0391 11.2107 12.4142 11.5858C12.7893 11.9609 13 12.4696 13 13C13 13.5304 12.7893 14.0391 12.4142 14.4142C12.0391 14.7893 11.5304 15 11 15C10.4696 15 9.96086 14.7893 9.58579 14.4142C9.21071 14.0391 9 13.5304 9 13ZM21 11C21.5304 11 22.0391 11.2107 22.4142 11.5858C22.7893 11.9609 23 12.4696 23 13C23 13.5304 22.7893 14.0391 22.4142 14.4142C22.0391 14.7893 21.5304 15 21 15C20.4696 15 19.9609 14.7893 19.5858 14.4142C19.2107 14.0391 19 13.5304 19 13C19 12.4696 19.2107 11.9609 19.5858 11.5858C19.9609 11.2107 20.4696 11 21 11Z"/>
</g>
<defs>
<clipPath id="clip0_138_2215">
<rect width="32" height="32"/>
</clipPath>
</defs>
</svg>
