<svg height="1em" width="1em" fill="currentColor" viewBox="0 0 32 32" xmlns="http://www.w3.org/2000/svg">
<path d="M8.57143 3.76471C8.57143 1.68824 10.2371 0 12.2857 0H20.0335C21.0201 0 21.9661 0.394118 22.6625 1.1L27.9147 6.42353C28.6112 7.12941 29 8.08823 29 9.08823V22.5882C29 24.6647 27.3344 26.3529 25.2857 26.3529H12.2857C10.2371 26.3529 8.57143 24.6647 8.57143 22.5882V3.76471ZM19.7143 8C19.7143 8.78235 20.3353 9.41177 21.1071 9.41177H25.6049L19.7143 3.44118V8ZM5.78571 7.05882V28.2353C5.78571 28.7529 6.20357 29.1765 6.71429 29.1765H22.0357C22.8076 29.1765 23.4286 29.8059 23.4286 30.5882C23.4286 31.3706 22.8076 32 22.0357 32H6.71429C4.66562 32 3 30.3118 3 28.2353V7.05882C3 6.27647 3.62098 5.64706 4.39286 5.64706C5.16473 5.64706 5.78571 6.27647 5.78571 7.05882Z"/>
</svg>
