<svg height="1em" width="1em" fill="currentColor" viewBox="0 0 32 32" xmlns="http://www.w3.org/2000/svg">
<path d="M4 4C4 1.79375 5.79375 0 8 0H17.3438C18.4062 0 19.425 0.41875 20.175 1.16875L26.8312 7.83125C27.5812 8.58125 28 9.6 28 10.6625V28C28 30.2062 26.2062 32 24 32H8C5.79375 32 4 30.2062 4 28V4ZM17 3.65625V9.5C17 10.3313 17.6687 11 18.5 11H24.3438L17 3.65625ZM14.25 16.6688C13.7875 15.9813 12.8562 15.7937 12.1687 16.25C11.4812 16.7062 11.2937 17.6437 11.75 18.3312L14.2 22L11.75 25.6688C11.2875 26.3563 11.475 27.2875 12.1687 27.75C12.8625 28.2125 13.7875 28.025 14.25 27.3312L16 24.7062L17.75 27.3312C18.2125 28.0187 19.1438 28.2062 19.8313 27.75C20.5187 27.2938 20.7062 26.3563 20.25 25.6688L17.8 22L20.25 18.3312C20.7125 17.6437 20.525 16.7125 19.8313 16.25C19.1375 15.7875 18.2125 15.975 17.75 16.6688L16 19.2938L14.25 16.6688Z"/>
</svg>
