<svg height="1em" width="1em" fill="currentColor" viewBox="0 0 32 32" xmlns="http://www.w3.org/2000/svg">
<path d="M1.39485 14.6346L0 18.8774V6.84615C0 4.72476 1.69628 3 3.78265 3H11.9804C12.796 3 13.5939 3.27043 14.25 3.76923L16.5196 5.5C16.8446 5.7524 17.2465 5.88462 17.6544 5.88462H24.5873C26.6736 5.88462 28.3699 7.60938 28.3699 9.73077V10.6923H6.77332C4.33232 10.6923 2.16321 12.2788 1.38894 14.6346H1.39485ZM26.3249 28H3.93632C1.99771 28 0.632412 26.0709 1.24709 24.2019L4.08408 15.5481C4.46826 14.3702 5.55577 13.5769 6.77332 13.5769H29.1619C31.1005 13.5769 32.4658 15.506 31.8511 17.375L29.0141 26.0288C28.63 27.2067 27.5425 28 26.3249 28Z"/>
</svg>
