<svg height="1em" width="1em" fill="currentColor" viewBox="0 0 32 32" xmlns="http://www.w3.org/2000/svg">
<g clip-path="url(#clip0_138_2145)">
<path d="M21.0519 13.5916C21.6974 13.417 22.3746 13.7239 22.6656 14.3218L23.6498 16.3112C24.1947 16.3853 24.7291 16.5334 25.2318 16.7398L27.0836 15.507C27.6392 15.1366 28.3746 15.2107 28.8455 15.6816L29.8614 16.6974C30.3323 17.1683 30.4063 17.9091 30.036 18.4593L28.8032 20.3059C28.9037 20.5545 28.9937 20.8138 29.0677 21.0836C29.1418 21.3535 29.1894 21.618 29.2265 21.8879L31.2211 22.872C31.819 23.1683 32.1259 23.8455 31.9513 24.4857L31.5809 25.872C31.4063 26.5122 30.8085 26.946 30.1418 26.9037L27.9196 26.7609C27.5863 27.1894 27.2 27.5863 26.7609 27.9249L26.9037 30.1418C26.946 30.8085 26.5122 31.4116 25.872 31.5809L24.4857 31.9513C23.8402 32.1259 23.1683 31.819 22.872 31.2212L21.8879 29.2318C21.3429 29.1577 20.8085 29.0095 20.3059 28.8032L18.454 30.036C17.8985 30.4063 17.163 30.3323 16.6921 29.8614L15.6763 28.8455C15.2054 28.3746 15.1313 27.6392 15.5017 27.0836L16.7345 25.2318C16.6339 24.9831 16.544 24.7238 16.4699 24.454C16.3958 24.1842 16.3482 23.9143 16.3112 23.6498L14.3165 22.6656C13.7186 22.3694 13.417 21.6921 13.5863 21.0519L13.9567 19.6657C14.1313 19.0255 14.7292 18.5916 15.3958 18.6339L17.6128 18.7768C17.9461 18.3482 18.3323 17.9514 18.7715 17.6128L18.6286 15.4011C18.5863 14.7345 19.0202 14.1313 19.6604 13.962L21.0466 13.5916H21.0519ZM22.7715 20.4434C22.4657 20.4438 22.1631 20.5043 21.8808 20.6217C21.5985 20.739 21.342 20.9108 21.1261 21.1272C20.69 21.5643 20.4454 22.1567 20.4461 22.7741C20.4468 23.3915 20.6927 23.9834 21.1298 24.4195C21.5669 24.8556 22.1593 25.1002 22.7768 25.0995C23.3942 25.0988 23.9861 24.8528 24.4221 24.4158C24.8582 23.9787 25.1028 23.3863 25.1021 22.7688C25.1014 22.1514 24.8555 21.5595 24.4184 21.1234C23.9813 20.6873 23.3889 20.4427 22.7715 20.4434ZM10.9461 0.0467258L12.3324 0.417094C12.9726 0.591696 13.4064 1.19487 13.3641 1.85624L13.2213 4.06787C13.6604 4.40649 14.0466 4.79802 14.38 5.23188L16.6022 5.08903C17.2636 5.0467 17.8667 5.48056 18.0413 6.12077L18.4117 7.507C18.581 8.14721 18.2794 8.82446 17.6815 9.12075L15.6868 10.1049C15.6498 10.3747 15.5969 10.6446 15.5281 10.9091C15.4593 11.1736 15.3641 11.4382 15.2636 11.6869L16.4964 13.5387C16.8667 14.0943 16.7927 14.8297 16.3218 15.3006L15.3059 16.3165C14.835 16.7874 14.0996 16.8614 13.544 16.4911L11.6922 15.2583C11.1895 15.4646 10.6551 15.6128 10.1102 15.6869L9.12604 17.6763C8.82975 18.2741 8.1525 18.5757 7.51229 18.4064L6.12606 18.036C5.48056 17.8614 5.05199 17.2583 5.09432 16.5969L5.23717 14.38C4.79802 14.0414 4.41178 13.6498 4.07845 13.216L1.85624 13.3588C1.19487 13.4011 0.591696 12.9673 0.417094 12.3271L0.0467258 10.9408C-0.122585 10.3006 0.179 9.62339 0.77688 9.3271L2.77158 8.34298C2.80862 8.07314 2.86152 7.80859 2.93031 7.53875C3.00438 7.26891 3.08904 7.00965 3.19486 6.76097L1.96206 4.91442C1.59169 4.35887 1.66576 3.62343 2.13666 3.15253L3.15253 2.13666C3.62343 1.66576 4.35887 1.59169 4.91442 1.96206L6.76626 3.19486C7.26891 2.98851 7.8033 2.84036 8.34827 2.76629L9.33239 0.776881C9.62868 0.179 10.3006 -0.122585 10.9461 0.0467258ZM9.22657 6.89854C8.60914 6.89854 8.01699 7.14381 7.5804 7.5804C7.14381 8.01699 6.89854 8.60914 6.89854 9.22657C6.89854 9.844 7.14381 10.4361 7.5804 10.8727C8.01699 11.3093 8.60914 11.5546 9.22657 11.5546C9.844 11.5546 10.4361 11.3093 10.8727 10.8727C11.3093 10.4361 11.5546 9.844 11.5546 9.22657C11.5546 8.60914 11.3093 8.01699 10.8727 7.5804C10.4361 7.14381 9.844 6.89854 9.22657 6.89854Z"/>
</g>
<defs>
<clipPath id="clip0_138_2145">
<rect width="32" height="32"/>
</clipPath>
</defs>
</svg>
