<svg height="1em" width="1em" fill="currentColor" viewBox="0 0 32 32" xmlns="http://www.w3.org/2000/svg">
<path d="M12.3958 1.5C12.5724 0.629412 13.3435 0 14.2383 0H17.7584C18.6532 0 19.4243 0.629412 19.6009 1.5L20.4545 5.61765C21.2845 5.97059 22.0615 6.42353 22.7679 6.95882L26.759 5.63529C27.6066 5.35294 28.5367 5.70588 28.9841 6.48235L30.7442 9.52941C31.1915 10.3059 31.0326 11.2824 30.3615 11.8765L27.224 14.6647C27.277 15.1 27.3005 15.5471 27.3005 16C27.3005 16.4529 27.2711 16.9 27.224 17.3353L30.3674 20.1294C31.0385 20.7235 31.1915 21.7059 30.7501 22.4765L28.99 25.5235C28.5426 26.2941 27.6125 26.6529 26.7649 26.3706L22.7738 25.0471C22.0615 25.5824 21.2845 26.0294 20.4604 26.3882L19.6127 30.5C19.4302 31.3765 18.6591 32 17.7702 32H14.25C13.3553 32 12.5841 31.3706 12.4075 30.5L11.5599 26.3882C10.7299 26.0353 9.95874 25.5824 9.24647 25.0471L5.23772 26.3706C4.39006 26.6529 3.45998 26.3 3.0126 25.5235L1.25252 22.4765C0.805145 21.7 0.964082 20.7235 1.63515 20.1294L4.77857 17.3353C4.72559 16.9 4.70205 16.4529 4.70205 16C4.70205 15.5471 4.73148 15.1 4.77857 14.6647L1.63515 11.8706C0.964082 11.2765 0.811032 10.2941 1.25252 9.52353L3.0126 6.47647C3.45998 5.7 4.39006 5.34706 5.23772 5.62941L9.22881 6.95294C9.94108 6.41765 10.7181 5.97059 11.5422 5.61176L12.3958 1.5ZM15.9983 20.7059C16.6168 20.7036 17.2287 20.5795 17.7992 20.3409C18.3696 20.1023 18.8875 19.7537 19.3231 19.3151C19.7588 18.8765 20.1037 18.3564 20.3382 17.7846C20.5727 17.2127 20.6922 16.6003 20.6899 15.9824C20.6876 15.3644 20.5635 14.7529 20.3247 14.1828C20.0859 13.6128 19.7371 13.0953 19.2981 12.66C18.8592 12.2246 18.3388 11.8799 17.7665 11.6456C17.1943 11.4112 16.5815 11.2918 15.963 11.2941C15.3446 11.2964 14.7327 11.4205 14.1622 11.6591C13.5918 11.8977 13.0739 12.2463 12.6383 12.6849C12.2026 13.1235 11.8577 13.6436 11.6232 14.2154C11.3886 14.7873 11.2691 15.3997 11.2714 16.0176C11.2738 16.6356 11.3979 17.2471 11.6367 17.8172C11.8755 18.3872 12.2243 18.9047 12.6632 19.34C13.1022 19.7754 13.6226 20.1201 14.1949 20.3544C14.7671 20.5888 15.3799 20.7082 15.9983 20.7059Z"/>
</svg>
