<svg height="1em" width="1em" fill="currentColor" viewBox="0 0 32 32" xmlns="http://www.w3.org/2000/svg">
<path d="M20.0938 4.3C20.5688 3.49375 21.4312 3 22.3625 3H22.5C23.8813 3 25 4.11875 25 5.5C25 6.88125 23.8813 8 22.5 8H17.9188L20.0938 4.3ZM11.9062 4.3L14.0813 8H9.5C8.11875 8 7 6.88125 7 5.5C7 4.11875 8.11875 3 9.5 3H9.6375C10.5687 3 11.4375 3.49375 11.9062 4.3ZM17.5063 2.78125L16 5.34375L14.4937 2.78125C13.4812 1.05625 11.6312 0 9.6375 0H9.5C6.4625 0 4 2.4625 4 5.5C4 6.4 4.21875 7.25 4.6 8H2C0.89375 8 0 8.89375 0 10V12C0 13.1062 0.89375 14 2 14H30C31.1063 14 32 13.1062 32 12V10C32 8.89375 31.1063 8 30 8H27.4C27.7812 7.25 28 6.4 28 5.5C28 2.4625 25.5375 0 22.5 0H22.3625C20.3687 0 18.5188 1.05625 17.5063 2.775V2.78125ZM30 17H17.5V30H26C28.2062 30 30 28.2062 30 26V17ZM14.5 17H2V26C2 28.2062 3.79375 30 6 30H14.5V17Z"/>
</svg>
