<svg height="1em" width="1em" fill="currentColor" viewBox="0 0 32 32" xmlns="http://www.w3.org/2000/svg">
<g clip-path="url(#clip0_138_2206)">
<path d="M21.9937 17.5H10.0625C10.2437 21.5312 11.1375 25.2437 12.4062 27.9625C13.1187 29.4937 13.8875 30.575 14.6 31.2375C15.3 31.8937 15.7812 32 16.0312 32C16.2812 32 16.7625 31.8937 17.4625 31.2375C18.175 30.575 18.9438 29.4875 19.6562 27.9625C20.925 25.2437 21.8188 21.5312 22 17.5H21.9937ZM10.0562 14.5H21.9875C21.8125 10.4688 20.9187 6.75625 19.65 4.0375C18.9375 2.5125 18.1687 1.425 17.4562 0.7625C16.7562 0.10625 16.275 0 16.025 0C15.775 0 15.2937 0.10625 14.5938 0.7625C13.8813 1.425 13.1125 2.5125 12.4 4.0375C11.1312 6.75625 10.2375 10.4688 10.0562 14.5ZM7.05625 14.5C7.275 9.15 8.65625 4.18125 10.675 0.91875C4.91875 2.95625 0.68125 8.2 0.09375 14.5H7.05625ZM0.09375 17.5C0.68125 23.8 4.91875 29.0437 10.675 31.0812C8.65625 27.8187 7.275 22.85 7.05625 17.5H0.09375ZM24.9937 17.5C24.775 22.85 23.3937 27.8187 21.375 31.0812C27.1313 29.0375 31.3687 23.8 31.9562 17.5H24.9937ZM31.9562 14.5C31.3687 8.2 27.1313 2.95625 21.375 0.91875C23.3937 4.18125 24.775 9.15 24.9937 14.5H31.9562Z"/>
</g>
<defs>
<clipPath id="clip0_138_2206">
<rect width="32" height="32"/>
</clipPath>
</defs>
</svg>
