<svg height="1em" width="1em" fill="currentColor" viewBox="0 0 32 32" xmlns="http://www.w3.org/2000/svg">
<path d="M14 5C14 3.34375 12.6562 2 11 2H5C3.34375 2 2 3.34375 2 5V11C2 12.6562 3.34375 14 5 14H11C12.6562 14 14 12.6562 14 11V5ZM14 21C14 19.3438 12.6562 18 11 18H5C3.34375 18 2 19.3438 2 21V27C2 28.6562 3.34375 30 5 30H11C12.6562 30 14 28.6562 14 27V21ZM18 5V11C18 12.6562 19.3438 14 21 14H27C28.6562 14 30 12.6562 30 11V5C30 3.34375 28.6562 2 27 2H21C19.3438 2 18 3.34375 18 5ZM30 21C30 19.3438 28.6562 18 27 18H21C19.3438 18 18 19.3438 18 21V27C18 28.6562 19.3438 30 21 30H27C28.6562 30 30 28.6562 30 27V21Z"/>
</svg>
