<svg height="1em" width="1em" fill="currentColor" viewBox="0 0 32 32" xmlns="http://www.w3.org/2000/svg">
<path d="M6 2C6 0.89375 6.89375 0 8 0C9.10625 0 10 0.89375 10 2V15H6V2ZM18 12C18 10.8938 18.8938 10 20 10C21.1063 10 22 10.8938 22 12V16C22 17.1063 21.1063 18 20 18C18.8938 18 18 17.1063 18 16V12ZM14 8C15.1062 8 16 8.89375 16 10V13C16 14.1062 15.1062 15 14 15C12.8938 15 12 14.1062 12 13V10C12 8.89375 12.8938 8 14 8ZM24 14C24 12.8938 24.8937 12 26 12C27.1063 12 28 12.8938 28 14V18C28 19.1063 27.1063 20 26 20C24.8937 20 24 19.1063 24 18V14ZM18 19.5V19.4625C18.5875 19.8 19.2688 20 20 20C20.825 20 21.5875 19.75 22.225 19.325C22.7688 20.8813 24.2563 22 26 22C26.7313 22 27.4125 21.8062 28 21.4625V22C28 27.525 23.525 32 18 32H14.1438C11.4938 32 8.95 30.9438 7.075 29.0688L6.34375 28.3438C4.84375 26.8438 4 24.8062 4 22.6875V21C4 18.7938 5.79375 17 8 17H13.5C14.8813 17 16 18.1187 16 19.5C16 20.8813 14.8813 22 13.5 22H10C9.45 22 9 22.45 9 23C9 23.55 9.45 24 10 24H13.5C15.9875 24 18 21.9875 18 19.5Z"/>
</svg>
