<svg height="1em" width="1em" fill="currentColor" viewBox="0 0 32 32" xmlns="http://www.w3.org/2000/svg">
<g clip-path="url(#clip0_138_2214)">
<path d="M18 2C18 0.89375 17.1062 0 16 0C14.8937 0 14 0.89375 14 2V15C14 15.55 13.55 16 13 16C12.45 16 12 15.55 12 15V4C12 2.89375 11.1062 2 10 2C8.89375 2 8 2.89375 8 4V21C8 21.0938 8 21.1938 8.00625 21.2875L4.225 17.6875C3.225 16.7375 1.64375 16.775 0.687495 17.775C-0.268755 18.775 -0.225005 20.3563 0.774995 21.3125L7.8 28C10.4937 30.5688 14.075 32 17.8 32H19C25.075 32 30 27.075 30 21V8C30 6.89375 29.1062 6 28 6C26.8937 6 26 6.89375 26 8V15C26 15.55 25.55 16 25 16C24.45 16 24 15.55 24 15V4C24 2.89375 23.1062 2 22 2C20.8937 2 20 2.89375 20 4V15C20 15.55 19.55 16 19 16C18.45 16 18 15.55 18 15V2Z"/>
</g>
<defs>
<clipPath id="clip0_138_2214">
<rect width="32" height="32"/>
</clipPath>
</defs>
</svg>
