<svg height="1em" width="1em" fill="currentColor" viewBox="0 0 32 32" xmlns="http://www.w3.org/2000/svg">
<path d="M14.9389 5.96809L8.46111 13.1986C8.20556 13.4832 8.21667 13.9239 8.48889 14.1973C10.1833 15.8989 12.9333 15.8989 14.6278 14.1973L16.3944 12.4231C16.6278 12.1888 16.9222 12.0605 17.2222 12.0382C17.6 12.0047 17.9889 12.133 18.2778 12.4231L28.0889 22.1921L32 19.0678V3L25.7778 6.57063L24.4556 5.68355C23.5778 5.09775 22.55 4.78532 21.4944 4.78532H17.5833C17.5222 4.78532 17.4556 4.78532 17.3944 4.79089C16.4556 4.84111 15.5722 5.26512 14.9389 5.96809ZM6.47778 11.4077L12.4111 4.78532H10.2111C8.79445 4.78532 7.43889 5.34881 6.43889 6.35305L6.22222 6.57063L0 3V19.0678L8.68889 26.3374C9.96667 27.4086 11.5778 27.9944 13.2389 27.9944H14.1111L13.7222 27.6039C13.2 27.0794 13.2 26.2314 13.7222 25.7126C14.2444 25.1937 15.0889 25.1881 15.6056 25.7126L17.8833 28H18.3833C19.4444 28 20.4833 27.7601 21.4278 27.3138L19.9444 25.8186C19.4222 25.2941 19.4222 24.4461 19.9444 23.9272C20.4667 23.4084 21.3111 23.4028 21.8278 23.9272L23.6056 25.7126L24.5778 24.7362C25.0722 24.2397 25.2167 23.52 25 22.8895L17.3389 15.2573L16.5111 16.0886C13.7722 18.8391 9.33889 18.8391 6.6 16.0886C5.32222 14.8054 5.27222 12.7467 6.47778 11.4021V11.4077Z"/>
</svg>
