<svg height="1em" width="1em" fill="currentColor" viewBox="0 0 32 32" xmlns="http://www.w3.org/2000/svg">
<path d="M15.5308 3.69531C14.7476 2.62891 13.4922 2 12.1591 2C9.85951 2 7.9987 3.83203 7.9987 6.09609V6.22734C7.9987 9.74922 12.5535 13.5227 14.7865 15.1578C15.5086 15.6883 16.4807 15.6883 17.2028 15.1578C19.4357 13.5172 23.9905 9.74922 23.9905 6.22734V6.09609C23.9905 3.83203 22.1297 2 19.8301 2C18.497 2 17.2416 2.62891 16.4584 3.69531L15.9974 4.33516L15.5308 3.69531ZM6.07124 20.6758L3.70495 23H1.77749C0.794315 23 0 23.782 0 24.75V28.25C0 29.218 0.794315 30 1.77749 30H19.5801C21.191 30 22.763 29.4914 24.0628 28.5508L31.0949 23.4484C32.0837 22.732 32.2947 21.3648 31.5671 20.3914C30.8394 19.418 29.4508 19.2102 28.462 19.9266L21.8076 24.75H15.553C14.8143 24.75 14.2199 24.1648 14.2199 23.4375C14.2199 22.7102 14.8143 22.125 15.553 22.125H19.5524C20.5355 22.125 21.3299 21.343 21.3299 20.375C21.3299 19.407 20.5355 18.625 19.5524 18.625H11.0982C9.21517 18.625 7.40435 19.3633 6.07124 20.6758Z"/>
</svg>
