<svg height="1em" width="1em" fill="currentColor" viewBox="0 0 32 32" xmlns="http://www.w3.org/2000/svg">
<g clip-path="url(#clip0_138_2194)">
<path d="M13.4187 0.0437851C14.5 0.275035 15.1875 1.33754 14.9563 2.41879L13.7625 8.00004H21.6688L23.0438 1.58129C23.275 0.500035 24.3375 -0.187465 25.4188 0.0437851C26.5 0.275035 27.1875 1.33754 26.9562 2.41879L25.7625 8.00004H30C31.1063 8.00004 32 8.89379 32 10C32 11.1063 31.1063 12 30 12H24.9L23.1875 20H27.425C28.5312 20 29.425 20.8938 29.425 22C29.425 23.1063 28.5312 24 27.425 24H22.325L20.95 30.4188C20.7188 31.5 19.6562 32.1875 18.575 31.9563C17.4938 31.725 16.8062 30.6625 17.0375 29.5813L18.2313 24H10.325L8.95 30.4188C8.71875 31.5 7.65625 32.1875 6.575 31.9563C5.49375 31.725 4.80625 30.6625 5.0375 29.5813L6.2375 24H2C0.89375 24 0 23.1063 0 22C0 20.8938 0.89375 20 2 20H7.1L8.8125 12H4.575C3.46875 12 2.575 11.1063 2.575 10C2.575 8.89379 3.46875 8.00004 4.575 8.00004H9.675L11.05 1.58129C11.275 0.500035 12.3375 -0.187465 13.4187 0.0437851ZM12.9 12L11.1875 20H19.0938L20.8062 12H12.9Z"/>
</g>
<defs>
<clipPath id="clip0_138_2194">
<rect width="32" height="32"/>
</clipPath>
</defs>
</svg>
