<svg height="1em" width="1em" fill="currentColor" viewBox="0 0 32 32" xmlns="http://www.w3.org/2000/svg">
<g clip-path="url(#clip0_138_2213)">
<path d="M17.3625 0.537549C16.5938 -0.174951 15.4062 -0.174951 14.6438 0.537549L0.64375 13.5375C0.0437497 14.1 -0.15625 14.9688 0.14375 15.7313C0.44375 16.4938 1.175 17 2 17H3V28C3 30.2063 4.79375 32 7 32H25C27.2062 32 29 30.2063 29 28V17H30C30.825 17 31.5625 16.4938 31.8625 15.7313C32.1625 14.9688 31.9625 14.0938 31.3625 13.5375L17.3625 0.537549ZM15 20H17C18.6562 20 20 21.3438 20 23V29H12V23C12 21.3438 13.3438 20 15 20Z"/>
</g>
<defs>
<clipPath id="clip0_138_2213">
<rect width="32" height="32"/>
</clipPath>
</defs>
</svg>
