<svg height="1em" width="1em" fill="currentColor" viewBox="0 0 32 32" xmlns="http://www.w3.org/2000/svg">
<path d="M6 2C3.79375 2 2 3.79375 2 6V26C2 28.2062 3.79375 30 6 30H26C28.2062 30 30 28.2062 30 26V6C30 3.79375 28.2062 2 26 2H6ZM10 7C10.7956 7 11.5587 7.31607 12.1213 7.87868C12.6839 8.44129 13 9.20435 13 10C13 10.7956 12.6839 11.5587 12.1213 12.1213C11.5587 12.6839 10.7956 13 10 13C9.20435 13 8.44129 12.6839 7.87868 12.1213C7.31607 11.5587 7 10.7956 7 10C7 9.20435 7.31607 8.44129 7.87868 7.87868C8.44129 7.31607 9.20435 7 10 7ZM19 14C19.525 14 20.0063 14.275 20.2812 14.7188L25.7812 23.7188C26.0625 24.1812 26.075 24.7625 25.8125 25.2375C25.55 25.7125 25.0438 26 24.5 26H7.5C6.94375 26 6.425 25.6875 6.16875 25.1938C5.9125 24.7 5.95 24.1 6.26875 23.6437L9.76875 18.6437C10.05 18.2437 10.5063 18.0063 11 18.0063C11.4937 18.0063 11.95 18.2437 12.2312 18.6437L13.8813 21.0063L17.7188 14.725C17.9937 14.2812 18.475 14.0063 19 14.0063V14Z"/>
</svg>
