<svg height="1em" width="1em" fill="currentColor" viewBox="0 0 32 32" xmlns="http://www.w3.org/2000/svg">
<path d="M5.7375 2C3.74375 2 2.05625 3.4625 1.775 5.43125L0.0375 17.575C0.0125 17.7625 0 17.95 0 18.1437V26C0 28.2062 1.79375 30 4 30H28C30.2062 30 32 28.2062 32 26V18.1437C32 17.9562 31.9875 17.7625 31.9625 17.575L30.225 5.43125C29.9438 3.4625 28.2563 2 26.2625 2H5.7375ZM5.7375 6H26.2687L27.9813 18H24.2375C23.4812 18 22.7875 18.425 22.45 19.1063L21.5562 20.8937C21.2188 21.5687 20.525 22 19.7687 22H12.2437C11.4875 22 10.7937 21.575 10.4563 20.8937L9.5625 19.1063C9.225 18.4313 8.53125 18 7.775 18H4.01875L5.7375 6Z"/>
</svg>
