<svg height="1em" width="1em" fill="currentColor" viewBox="0 0 32 32" xmlns="http://www.w3.org/2000/svg">
<g clip-path="url(#clip0_138_2151)">
<path d="M14.5312 0.325024C15.4625 -0.106226 16.5375 -0.106226 17.4688 0.325024L31.1313 6.63752C31.6625 6.88127 32 7.41252 32 8.00002C32 8.58752 31.6625 9.11878 31.1313 9.36252L17.4688 15.675C16.5375 16.1063 15.4625 16.1063 14.5312 15.675L0.86875 9.36252C0.3375 9.11252 0 8.58127 0 8.00002C0 7.41877 0.3375 6.88127 0.86875 6.63752L14.5312 0.325024ZM3.00625 13.65L13.275 18.3938C15.0062 19.1938 17 19.1938 18.7313 18.3938L29 13.65L31.1313 14.6375C31.6625 14.8813 32 15.4125 32 16C32 16.5875 31.6625 17.1188 31.1313 17.3625L17.4688 23.675C16.5375 24.1063 15.4625 24.1063 14.5312 23.675L0.86875 17.3625C0.3375 17.1125 0 16.5813 0 16C0 15.4188 0.3375 14.8813 0.86875 14.6375L3 13.65H3.00625ZM0.86875 22.6375L3 21.65L13.2688 26.3938C15 27.1938 16.9937 27.1938 18.725 26.3938L28.9937 21.65L31.125 22.6375C31.6562 22.8813 31.9937 23.4125 31.9937 24C31.9937 24.5875 31.6562 25.1188 31.125 25.3625L17.4625 31.675C16.5312 32.1063 15.4562 32.1063 14.525 31.675L0.86875 25.3625C0.3375 25.1125 0 24.5813 0 24C0 23.4188 0.3375 22.8813 0.86875 22.6375Z"/>
</g>
<defs>
<clipPath id="clip0_138_2151">
<rect width="32" height="32"/>
</clipPath>
</defs>
</svg>
