<svg height="1em" width="1em" fill="currentColor" viewBox="0 0 32 32" xmlns="http://www.w3.org/2000/svg">
<path d="M23.3056 6.56983C22.3833 6.56983 21.4889 6.82084 20.7056 7.27822C19.8278 6.38576 18.8056 5.63833 17.6778 5.07497C19.2444 3.73628 21.2389 3 23.3056 3C28.1056 3 32 6.90451 32 11.7294C32 14.0442 31.0833 16.2642 29.4556 17.8985L25.5056 21.8643C23.8778 23.4987 21.6667 24.419 19.3611 24.419C14.5611 24.419 10.6667 20.5145 10.6667 15.6896C10.6667 15.606 10.6667 15.5223 10.6722 15.4386C10.7 14.4514 11.5167 13.676 12.5 13.7039C13.4833 13.7318 14.2556 14.5518 14.2278 15.539C14.2278 15.5892 14.2278 15.6394 14.2278 15.6841C14.2278 18.5344 16.5278 20.8436 19.3667 20.8436C20.7278 20.8436 22.0333 20.3025 23 19.332L26.95 15.3661C27.9111 14.4012 28.4556 13.0848 28.4556 11.7182C28.4556 8.86792 26.1556 6.55868 23.3167 6.55868L23.3056 6.56983ZM15.2889 10.8815C15.1833 10.8369 15.0778 10.7755 14.9833 10.7086C14.2833 10.3461 13.4833 10.1397 12.6444 10.1397C11.2833 10.1397 9.97778 10.6807 9.01111 11.6513L5.06111 15.6171C4.1 16.5821 3.55556 17.8985 3.55556 19.2651C3.55556 22.1153 5.85556 24.4246 8.69444 24.4246C9.61111 24.4246 10.5056 24.1792 11.2889 23.7218C12.1667 24.6142 13.1889 25.3617 14.3222 25.925C12.7556 27.2581 10.7667 28 8.69444 28C3.89444 28 0 24.0955 0 19.2706C0 16.9558 0.916667 14.7358 2.54444 13.1015L6.49444 9.13565C8.12222 7.50134 10.3333 6.58099 12.6389 6.58099C17.45 6.58099 21.3333 10.519 21.3333 15.3327C21.3333 15.4052 21.3333 15.4777 21.3333 15.5502C21.3111 16.5375 20.4944 17.3128 19.5111 17.2905C18.5278 17.2682 17.7556 16.4482 17.7778 15.461C17.7778 15.4163 17.7778 15.3773 17.7778 15.3327C17.7778 13.4529 16.7778 11.8019 15.2889 10.8927V10.8815Z"/>
</svg>
