<svg height="1em" width="1em" fill="currentColor" viewBox="0 0 32 32" xmlns="http://www.w3.org/2000/svg">
<path d="M11.6667 7.52941V11.2941H19.3333V7.52941C19.3333 5.45294 17.6143 3.76471 15.5 3.76471C13.3857 3.76471 11.6667 5.45294 11.6667 7.52941ZM7.83333 11.2941V7.52941C7.83333 3.37059 11.2654 0 15.5 0C19.7346 0 23.1667 3.37059 23.1667 7.52941V11.2941C25.281 11.2941 27 12.9824 27 15.0588V28.2353C27 30.3118 25.281 32 23.1667 32H7.83333C5.71901 32 4 30.3118 4 28.2353V15.0588C4 12.9824 5.71901 11.2941 7.83333 11.2941Z"/>
</svg>
