<svg height="1em" width="1em" fill="currentColor" viewBox="0 0 32 32" xmlns="http://www.w3.org/2000/svg">
<path d="M30 2.00002C28.8937 2.00002 28 2.89377 28 4.00002V4.56877L3.925 11.45C3.6875 10.6125 2.9125 10 2 10C0.89375 10 0 10.8938 0 12V20C0 21.1063 0.89375 22 2 22C2.9125 22 3.6875 21.3875 3.925 20.55L8.40625 21.8313C8.14375 22.5063 8 23.2375 8 24C8 27.3125 10.6875 30 14 30C16.9312 30 19.375 27.8938 19.8937 25.1125L28 27.425V27.9938C28 29.1 28.8937 29.9938 30 29.9938C31.1063 29.9938 32 29.1 32 27.9938V3.99377C32 2.88752 31.1063 1.99377 30 1.99377V2.00002ZM16.9875 24.2813C16.8438 25.8063 15.5625 27 14 27C12.3438 27 11 25.6563 11 24C11 23.5188 11.1125 23.0625 11.3125 22.6625L16.9875 24.2813Z"/>
</svg>
