<svg height="1em" width="1em" fill="currentColor" viewBox="0 0 32 32" xmlns="http://www.w3.org/2000/svg">
<path d="M4 4C1.79375 4 0 5.79375 0 8V24C0 26.2062 1.79375 28 4 28H28C30.2062 28 32 26.2062 32 24V8C32 5.79375 30.2062 4 28 4H4ZM16 10C17.5913 10 19.1174 10.6321 20.2426 11.7574C21.3679 12.8826 22 14.4087 22 16C22 17.5913 21.3679 19.1174 20.2426 20.2426C19.1174 21.3679 17.5913 22 16 22C14.4087 22 12.8826 21.3679 11.7574 20.2426C10.6321 19.1174 10 17.5913 10 16C10 14.4087 10.6321 12.8826 11.7574 11.7574C12.8826 10.6321 14.4087 10 16 10ZM28 11.5C28 11.775 27.775 12.0063 27.5 11.9688C25.6875 11.7438 24.2563 10.3063 24.0312 8.5C24 8.225 24.225 8 24.5 8H27.5C27.775 8 28 8.225 28 8.5V11.5ZM4 20.5C4 20.225 4.225 19.9937 4.5 20.0312C6.3125 20.2563 7.74375 21.6938 7.96875 23.5C8 23.775 7.775 24 7.5 24H4.5C4.225 24 4 23.775 4 23.5V20.5ZM4.5 11.9688C4.225 12 4 11.775 4 11.5V8.5C4 8.225 4.225 8 4.5 8H7.5C7.775 8 8.00625 8.225 7.96875 8.5C7.74375 10.3125 6.30625 11.7438 4.5 11.9688ZM27.5 20.0312C27.775 20 28 20.225 28 20.5V23.5C28 23.775 27.775 24 27.5 24H24.5C24.225 24 23.9937 23.775 24.0312 23.5C24.2563 21.6875 25.6938 20.2563 27.5 20.0312Z"/>
</svg>
