<svg height="1em" width="1em" fill="currentColor" viewBox="0 0 32 32" xmlns="http://www.w3.org/2000/svg">
<path d="M0 26V7.5C0 6.66875 0.66875 6 1.5 6C2.33125 6 3 6.66875 3 7.5V25.5C3 26.3312 3.66875 27 4.5 27C5.33125 27 6 26.3312 6 25.5V6C6 3.79375 7.79375 2 10 2H28C30.2062 2 32 3.79375 32 6V26C32 28.2062 30.2062 30 28 30H4C1.79375 30 0 28.2062 0 26ZM10 8V12C10 13.1062 10.8938 14 12 14H16C17.1063 14 18 13.1062 18 12V8C18 6.89375 17.1063 6 16 6H12C10.8938 6 10 6.89375 10 8ZM11.5 23C10.6687 23 10 23.6688 10 24.5C10 25.3312 10.6687 26 11.5 26H26.5C27.3312 26 28 25.3312 28 24.5C28 23.6688 27.3312 23 26.5 23H11.5ZM10 18.5C10 19.3312 10.6687 20 11.5 20H26.5C27.3312 20 28 19.3312 28 18.5C28 17.6687 27.3312 17 26.5 17H11.5C10.6687 17 10 17.6687 10 18.5ZM22.5 11C21.6688 11 21 11.6687 21 12.5C21 13.3313 21.6688 14 22.5 14H26.5C27.3312 14 28 13.3313 28 12.5C28 11.6687 27.3312 11 26.5 11H22.5Z"/>
</svg>
