<svg height="1em" width="1em" fill="currentColor" viewBox="0 0 32 32" xmlns="http://www.w3.org/2000/svg">
<g clip-path="url(#clip0_138_2128)">
<path d="M6 22C6 24.2062 7.79375 26 10 26H21.3438C22.4062 26 23.425 25.5812 24.175 24.8312L30.8312 18.1688C31.5812 17.4188 32 16.4 32 15.3375V4C32 1.79375 30.2062 0 28 0H10C7.79375 0 6 1.79375 6 4V22ZM18 7H20C20.55 7 21 7.45 21 8V11H24C24.55 11 25 11.45 25 12V14C25 14.55 24.55 15 24 15H21V18C21 18.55 20.55 19 20 19H18C17.45 19 17 18.55 17 18V15H14C13.45 15 13 14.55 13 14V12C13 11.45 13.45 11 14 11H17V8C17 7.45 17.45 7 18 7ZM3 7.5C3 6.66875 2.33125 6 1.5 6C0.66875 6 0 6.66875 0 7.5V28C0 30.2062 1.79375 32 4 32H20.5C21.3312 32 22 31.3312 22 30.5C22 29.6688 21.3312 29 20.5 29H4C3.45 29 3 28.55 3 28V7.5Z"/>
</g>
<defs>
<clipPath id="clip0_138_2128">
<rect width="32" height="32"/>
</clipPath>
</defs>
</svg>
