<svg height="1em" width="1em" fill="currentColor" viewBox="0 0 32 32" xmlns="http://www.w3.org/2000/svg">
<g clip-path="url(#clip0_138_2143)">
<path d="M29.9344 0.0899451C30.4986 -0.111544 31.1203 0.0323768 31.5463 0.452625C31.9723 0.872873 32.1104 1.50037 31.909 2.06453L21.6622 30.6702C21.3743 31.4704 20.6202 32 19.774 32C18.9566 32 18.2197 31.5049 17.9146 30.7508L14.2189 21.655C13.9598 21.0217 14.0749 20.2964 14.5182 19.7783L19.9582 13.3076C20.2518 12.9564 20.2288 12.4441 19.9064 12.1217C19.584 11.7993 19.0659 11.7763 18.7205 12.0699L12.2501 17.4986C11.7262 17.9361 11.0067 18.0512 10.3734 17.7979L1.24919 14.0848C0.495069 13.7797 0 13.0428 0 12.2253C0 11.3791 0.529609 10.6249 1.32978 10.3371L29.9344 0.0899451Z"/>
</g>
<defs>
<clipPath id="clip0_138_2143">
<rect width="32" height="32"/>
</clipPath>
</defs>
</svg>
