<svg height="1em" width="1em" fill="currentColor" viewBox="0 0 32 32" xmlns="http://www.w3.org/2000/svg">
<path d="M14.9579 2.46345C18.2298 -0.82115 23.5392 -0.82115 26.8111 2.46345C30.083 5.74805 30.083 11.0782 26.8111 14.3628L17.2633 23.9478C15.2606 25.9583 12.0179 25.9583 10.0152 23.9478C8.01248 21.9373 8.01248 18.6819 10.0152 16.6714L18.9109 7.75271C19.6386 7.02215 20.8205 7.02215 21.5482 7.75271C22.2759 8.48327 22.2759 9.6697 21.5482 10.4003L12.6525 19.3248C12.1052 19.8742 12.1052 20.7625 12.6525 21.3061C13.1997 21.8496 14.0846 21.8554 14.6261 21.3061L24.1738 11.7211C25.9902 9.89763 25.9902 6.93448 24.1738 5.111C22.3574 3.28752 19.4058 3.28752 17.5894 5.111L8.04158 14.6959C4.9502 17.7994 4.9502 22.8315 8.04158 25.9349C11.133 29.0383 16.1455 29.0383 19.2369 25.9349L26.8169 18.3312C27.5447 17.6007 28.7265 17.6007 29.4542 18.3312C30.1819 19.0618 30.1819 20.2482 29.4542 20.9788L21.8742 28.5766C17.3274 33.1411 9.95696 33.1411 5.41013 28.5766C0.863291 24.0121 0.863291 16.6129 5.41013 12.0484L14.9579 2.46345Z"/>
</svg>
