<svg height="1em" width="1em" fill="currentColor" viewBox="0 0 32 32" xmlns="http://www.w3.org/2000/svg">
<g clip-path="url(#clip0_138_2210)">
<path d="M29.475 1.35627C28.1063 -0.0124756 25.8937 -0.0124756 24.525 1.35627L23 2.88127L29.1187 9.00002L30.6437 7.47502C32.0125 6.10627 32.0125 3.89377 30.6437 2.52502L29.475 1.35627ZM10.775 15.1063C10.3937 15.4875 10.1 15.9563 9.93125 16.475L8.08125 22.025C7.9 22.5625 8.04375 23.1563 8.44375 23.5625C8.84375 23.9688 9.4375 24.1063 9.98125 23.925L15.5312 22.075C16.0438 21.9063 16.5125 21.6125 16.9 21.2313L27 11.1188L20.8813 5.00002L10.775 15.1063ZM6 4.00002C2.6875 4.00002 0 6.68752 0 10V26C0 29.3125 2.6875 32 6 32H22C25.3125 32 28 29.3125 28 26V20C28 18.8938 27.1063 18 26 18C24.8937 18 24 18.8938 24 20V26C24 27.1063 23.1063 28 22 28H6C4.89375 28 4 27.1063 4 26V10C4 8.89377 4.89375 8.00002 6 8.00002H12C13.1062 8.00002 14 7.10627 14 6.00002C14 4.89377 13.1062 4.00002 12 4.00002H6Z"/>
</g>
<defs>
<clipPath id="clip0_138_2210">
<rect width="32" height="32"/>
</clipPath>
</defs>
</svg>
