<svg height="1em" width="1em" fill="currentColor" viewBox="0 0 32 32" xmlns="http://www.w3.org/2000/svg">
<g clip-path="url(#clip0_138_2171)">
<path d="M22.0562 1.325L19.25 4.13125L27.8687 12.75L30.675 9.94375C31.525 9.1 32 7.95 32 6.75C32 5.55 31.525 4.4 30.675 3.55625L28.4438 1.325C27.6 0.475 26.45 0 25.25 0C24.05 0 22.9 0.475 22.0562 1.325ZM17.1313 6.25L3.68125 19.6938C3.0125 20.3625 2.525 21.2 2.26875 22.1125L0.0562504 30.1C-0.0874996 30.6187 0.0562505 31.1812 0.44375 31.5625C0.83125 31.9438 1.3875 32.0938 1.90625 31.95L9.89375 29.7313C10.8063 29.475 11.6375 28.9937 12.3125 28.3188L25.75 14.8687L17.1313 6.25Z"/>
</g>
<defs>
<clipPath id="clip0_138_2171">
<rect width="32" height="32"/>
</clipPath>
</defs>
</svg>
