<svg height="1em" width="1em" fill="currentColor" viewBox="0 0 32 32" xmlns="http://www.w3.org/2000/svg">
<g clip-path="url(#clip0_138_2132)">
<path d="M2.27499 22.075C2.53124 21.1625 3.01249 20.3313 3.68749 19.6563L15.0125 8.33127L17.1312 6.21252C18.1687 7.25002 20.3375 9.41877 23.6312 12.7125L25.75 14.8313L23.6312 16.95L12.3062 28.275C11.6375 28.9438 10.8 29.4313 9.88749 29.6875L1.89999 31.9125C1.38124 32.0563 0.81874 31.9125 0.43749 31.525C0.05624 31.1375 -0.08751 30.5813 0.05624 30.0625L2.27499 22.075ZM5.74999 21.8438C5.47499 22.1375 5.27499 22.4938 5.16874 22.8813L3.66249 28.3125L9.09374 26.8063C9.49374 26.6938 9.85624 26.4875 10.1562 26.2L5.74374 21.8438H5.74999ZM27.875 12.7125C26.8375 11.675 24.6687 9.50627 21.375 6.21252L19.25 4.09377C20.9062 2.43752 21.8375 1.50627 22.0562 1.28752C22.9 0.437524 24.05 -0.0374756 25.25 -0.0374756C26.45 -0.0374756 27.6 0.437524 28.4437 1.28752L30.675 3.51877C31.525 4.36877 32 5.51877 32 6.71252C32 7.90627 31.525 9.06252 30.675 9.90627C30.4562 10.125 29.525 11.0563 27.8687 12.7125H27.875Z"/>
</g>
<defs>
<clipPath id="clip0_138_2132">
<rect width="32" height="32"/>
</clipPath>
</defs>
</svg>
