<svg height="1em" width="1em" fill="currentColor" viewBox="0 0 32 32" xmlns="http://www.w3.org/2000/svg">
<g clip-path="url(#clip0_138_2224)">
<path d="M10.0124 1.56253C9.5187 0.381278 8.2312 -0.243722 7.0062 0.0875279L6.66245 0.181278C2.62495 1.28128 -0.825053 5.19378 0.181197 9.95628C2.49995 20.8938 11.1062 29.5 22.0437 31.8188C26.8124 32.8313 30.7187 29.375 31.8187 25.3375L31.9124 24.9938C32.2499 23.7625 31.6187 22.475 30.4437 21.9875L24.3624 19.4563C23.3312 19.025 22.1374 19.325 21.4249 20.1938L19.0124 23.1438C14.6187 20.9625 11.0812 17.3125 9.04995 12.8313L11.8124 10.5813C12.6812 9.87503 12.9749 8.68128 12.5499 7.64378L10.0124 1.56253Z"/>
</g>
<defs>
<clipPath id="clip0_138_2224">
<rect width="32" height="32"/>
</clipPath>
</defs>
</svg>
