<svg height="1em" width="1em" fill="currentColor" viewBox="0 0 32 32" xmlns="http://www.w3.org/2000/svg">
<g clip-path="url(#clip0_138_2179)">
<path d="M18.3535 0C25.8885 0 32 6.11151 32 13.6465C32 14.4288 31.3706 15.0582 30.5883 15.0582C29.806 15.0582 29.1766 14.4288 29.1766 13.6465C29.1766 7.67027 24.3297 2.82341 18.3535 2.82341C17.5712 2.82341 16.9418 2.19403 16.9418 1.41171C16.9418 0.629385 17.5712 0 18.3535 0ZM18.8241 11.2936C19.3233 11.2936 19.8021 11.492 20.1551 11.8449C20.5081 12.1979 20.7064 12.6767 20.7064 13.1759C20.7064 13.6751 20.5081 14.1539 20.1551 14.5069C19.8021 14.8599 19.3233 15.0582 18.8241 15.0582C18.3249 15.0582 17.8461 14.8599 17.4931 14.5069C17.1401 14.1539 16.9418 13.6751 16.9418 13.1759C16.9418 12.6767 17.1401 12.1979 17.4931 11.8449C17.8461 11.492 18.3249 11.2936 18.8241 11.2936ZM16.9418 7.05853C16.9418 6.27621 17.5712 5.64682 18.3535 5.64682C22.771 5.64682 26.3532 9.22902 26.3532 13.6465C26.3532 14.4288 25.7238 15.0582 24.9415 15.0582C24.1592 15.0582 23.5298 14.4288 23.5298 13.6465C23.5298 10.7878 21.2122 8.47023 18.3535 8.47023C17.5712 8.47023 16.9418 7.84085 16.9418 7.05853ZM6.59519 1.96462C7.75397 1.64699 8.96568 2.24108 9.42448 3.34692L11.8067 9.07021C12.2126 10.0408 11.9303 11.1642 11.1126 11.8348L8.51864 13.9582C10.4303 18.1698 13.7537 21.605 17.8888 23.6578L20.1593 20.8815C20.824 20.0639 21.9475 19.7874 22.9239 20.1874L28.6472 22.5755C29.753 23.0343 30.3471 24.246 30.0295 25.4048L29.9413 25.7283C28.906 29.5341 25.2297 32.781 20.7417 31.834C10.448 29.6517 2.34831 21.552 0.16605 11.2584C-0.780969 6.7703 2.46595 3.09399 6.26579 2.05286L6.58931 1.96462H6.59519Z"/>
</g>
<defs>
<clipPath id="clip0_138_2179">
<rect width="32" height="32"/>
</clipPath>
</defs>
</svg>
