<svg height="1em" width="1em" fill="currentColor" viewBox="0 0 32 32" xmlns="http://www.w3.org/2000/svg">
<g clip-path="url(#clip0_138_2201)">
<path d="M4 4C4 1.79375 5.79375 0 8 0H21.3438C22.4062 0 23.425 0.41875 24.175 1.16875L26.8312 3.825C27.5812 4.575 28 5.59375 28 6.65625V9H4V4ZM0 16C0 13.7937 1.79375 12 4 12H28C30.2062 12 32 13.7937 32 16V22C32 23.1063 31.1063 24 30 24H28V28C28 30.2062 26.2062 32 24 32H8C5.79375 32 4 30.2062 4 28V24H2C0.89375 24 0 23.1063 0 22V16ZM8 26V28H24V22H8V26ZM28.5 17C28.5 16.6022 28.342 16.2206 28.0607 15.9393C27.7794 15.658 27.3978 15.5 27 15.5C26.6022 15.5 26.2206 15.658 25.9393 15.9393C25.658 16.2206 25.5 16.6022 25.5 17C25.5 17.3978 25.658 17.7794 25.9393 18.0607C26.2206 18.342 26.6022 18.5 27 18.5C27.3978 18.5 27.7794 18.342 28.0607 18.0607C28.342 17.7794 28.5 17.3978 28.5 17Z"/>
</g>
<defs>
<clipPath id="clip0_138_2201">
<rect width="32" height="32"/>
</clipPath>
</defs>
</svg>
