<svg height="1em" width="1em" fill="currentColor" viewBox="0 0 32 32" xmlns="http://www.w3.org/2000/svg">
<path d="M10 10C10 6.6875 12.6875 4 16 4C19.3125 4 22 6.6875 22 10C22 12.6687 20.2563 14.9312 17.8438 15.7125C16.0688 16.2875 14 17.9188 14 20.5V22C14 23.1063 14.8938 24 16 24C17.1062 24 18 23.1063 18 22V20.5C18 20.3937 18.0375 20.2438 18.2188 20.0438C18.4062 19.8375 18.7125 19.6375 19.075 19.5187C23.0938 18.225 26 14.4563 26 10C26 4.475 21.525 0 16 0C10.475 0 6 4.475 6 10C6 11.1062 6.89375 12 8 12C9.10625 12 10 11.1062 10 10ZM16 32C17.3813 32 18.5 30.8813 18.5 29.5C18.5 28.1187 17.3813 27 16 27C14.6187 27 13.5 28.1187 13.5 29.5C13.5 30.8813 14.6187 32 16 32Z"/>
</svg>
