<svg height="1em" width="1em" fill="currentColor" viewBox="0 0 32 32" xmlns="http://www.w3.org/2000/svg">
<path d="M21.5625 17.0625C22.15 16.475 22.15 15.525 21.5625 14.9438L12.5625 5.9375C12.1313 5.50625 11.4875 5.38125 10.925 5.6125C10.3625 5.84375 10 6.39375 10 7V12H3C1.34375 12 0 13.3438 0 15V17C0 18.6562 1.34375 20 3 20H10V25C10 25.6063 10.3625 26.1562 10.925 26.3875C11.4875 26.6188 12.1313 26.4937 12.5625 26.0625L21.5625 17.0625ZM22 26C20.8937 26 20 26.8937 20 28C20 29.1063 20.8937 30 22 30H26C29.3125 30 32 27.3125 32 24V8C32 4.6875 29.3125 2 26 2H22C20.8937 2 20 2.89375 20 4C20 5.10625 20.8937 6 22 6H26C27.1063 6 28 6.89375 28 8V24C28 25.1063 27.1063 26 26 26H22Z"/>
</svg>
