<svg height="1em" width="1em" fill="currentColor" viewBox="0 0 32 32" xmlns="http://www.w3.org/2000/svg">
<g clip-path="url(#clip0_138_2166)">
<path d="M30.5 12H21.5C20.8937 12 20.3437 11.6375 20.1125 11.075C19.8812 10.5125 20.0062 9.86877 20.4375 9.43752L23.3562 6.51877C18.65 2.85627 11.8375 3.18752 7.51248 7.51252C2.82498 12.2 2.82498 19.7938 7.51248 24.4813C12.2 29.1688 19.7937 29.1688 24.4812 24.4813C24.9937 23.9688 25.45 23.425 25.85 22.85C26.4812 21.9438 27.7312 21.725 28.6375 22.3563C29.5437 22.9875 29.7625 24.2375 29.1312 25.1438C28.6 25.9063 27.9937 26.6313 27.3125 27.3125C21.0625 33.5625 10.9312 33.5625 4.68748 27.3125C-1.55627 21.0625 -1.56252 10.9375 4.68748 4.68752C10.5812 -1.20623 19.9187 -1.53748 26.2062 3.67502L29.4375 0.437522C29.8687 0.00627187 30.5125 -0.118728 31.075 0.112522C31.6375 0.343772 32 0.893772 32 1.50002V10.5C32 11.3313 31.3312 12 30.5 12Z"/>
</g>
<defs>
<clipPath id="clip0_138_2166">
<rect width="32" height="32"/>
</clipPath>
</defs>
</svg>
