<svg height="1em" width="1em" fill="currentColor" viewBox="0 0 32 32" xmlns="http://www.w3.org/2000/svg">
<path d="M21.013 1.45484V5.81396H17.1924C12.4466 5.81396 8.59621 9.71901 8.59621 14.5322C8.59621 20.187 13.539 22.6934 14.6016 23.1657C14.733 23.2262 14.8762 23.2504 15.0255 23.2504H15.1747C15.7597 23.2504 16.2373 22.7661 16.2373 22.1728C16.2373 21.6703 15.8851 21.2344 15.4732 20.9437C14.9419 20.5684 14.327 19.8419 14.327 18.4917C14.327 15.7673 16.5059 13.5575 19.1922 13.5575H21.013V17.9166C21.013 18.5038 21.3592 19.0366 21.8965 19.2606C22.4337 19.4846 23.0486 19.3636 23.4605 18.9458L31.5791 10.7119C32.1403 10.1428 32.1403 9.22255 31.5791 8.6595L23.4605 0.425598C23.0486 0.00784925 22.4337 -0.113237 21.8965 0.110773C21.3592 0.334783 21.013 0.867565 21.013 1.45484ZM4.77567 5.81396C2.13711 5.81396 0 7.98141 0 10.6574V26.1565C0 28.8325 2.13711 31 4.77567 31H20.0578C22.6964 31 24.8335 28.8325 24.8335 26.1565V24.2191C24.8335 23.1475 23.9799 22.2818 22.9232 22.2818C21.8666 22.2818 21.013 23.1475 21.013 24.2191V26.1565C21.013 26.6893 20.5832 27.1252 20.0578 27.1252H4.77567C4.25035 27.1252 3.82054 26.6893 3.82054 26.1565V10.6574C3.82054 10.1246 4.25035 9.68873 4.77567 9.68873H5.73081C6.78743 9.68873 7.64108 8.82296 7.64108 7.75135C7.64108 6.67973 6.78743 5.81396 5.73081 5.81396H4.77567Z"/>
</svg>
