<svg height="1em" width="1em" fill="currentColor" viewBox="0 0 32 32" xmlns="http://www.w3.org/2000/svg">
<g clip-path="url(#clip0_138_2160)">
<path d="M19.2375 1.15005C18.4875 1.46255 18 2.18755 18 3.00005V8.00005H11C4.925 8.00005 0 12.9251 0 19.0001C0 26.0813 5.09375 29.2438 6.2625 29.8813C6.41875 29.9688 6.59375 30.0001 6.76875 30.0001C7.45 30.0001 8 29.4438 8 28.7688C8 28.3001 7.73125 27.8688 7.3875 27.5501C6.8 27.0001 6 25.9001 6 24.0063C6 20.6938 8.6875 18.0063 12 18.0063H18V23.0063C18 23.8126 18.4875 24.5438 19.2375 24.8563C19.9875 25.1688 20.8438 24.9938 21.4188 24.4251L31.4188 14.4251C32.2 13.6438 32.2 12.3751 31.4188 11.5938L21.4188 1.5938C20.8438 1.0188 19.9875 0.850052 19.2375 1.16255V1.15005Z"/>
</g>
<defs>
<clipPath id="clip0_138_2160">
<rect width="32" height="32"/>
</clipPath>
</defs>
</svg>
