<svg height="1em" width="1em" fill="currentColor" viewBox="0 0 32 32" xmlns="http://www.w3.org/2000/svg">
<path d="M0.323529 11.6531L3.66471 5.05446C4.30588 3.79509 5.60588 3 7.03529 3H24.9706C26.3941 3 27.7 3.79509 28.3353 5.05446L31.6765 11.6531C31.8882 12.071 32 12.5295 32 12.9996C32 14.5839 30.7529 15.8839 29.1765 15.9942V27.1429C29.1765 28.1701 28.3353 29 27.2941 29C26.2529 29 25.4118 28.1701 25.4118 27.1429V16H19.7647V26.2143C19.7647 27.7522 18.5 29 16.9412 29H5.64706C4.08824 29 2.82353 27.7522 2.82353 26.2143V15.9942C1.24706 15.8839 0 14.5839 0 12.9996C0 12.5353 0.111765 12.071 0.323529 11.6531ZM6.58824 16V22.5C6.58824 23.0107 7.01176 23.4286 7.52941 23.4286H15.0588C15.5765 23.4286 16 23.0107 16 22.5V16H6.58824Z"/>
</svg>
