<svg height="1em" width="1em" fill="currentColor" viewBox="0 0 32 32" xmlns="http://www.w3.org/2000/svg">
<path d="M30 4C30 2.89375 29.1063 2 28 2C26.8937 2 26 2.89375 26 4V28C26 29.1063 26.8937 30 28 30C29.1063 30 30 29.1063 30 28V4ZM20 8C18.8937 8 18 8.89375 18 10V28C18 29.1063 18.8937 30 20 30C21.1063 30 22 29.1063 22 28V10C22 8.89375 21.1063 8 20 8ZM14 18C14 16.8938 13.1062 16 12 16C10.8938 16 10 16.8938 10 18V28C10 29.1063 10.8938 30 12 30C13.1062 30 14 29.1063 14 28V18ZM6 26C6 24.8937 5.10625 24 4 24C2.89375 24 2 24.8937 2 26V28C2 29.1063 2.89375 30 4 30C5.10625 30 6 29.1063 6 28V26Z"/>
</svg>
