<svg height="1em" width="1em" fill="currentColor" viewBox="0 0 32 32" xmlns="http://www.w3.org/2000/svg">
<g clip-path="url(#clip0_138_2130)">
<path d="M2.27426 0.391599C1.75189 -0.130533 0.907211 -0.130533 0.390399 0.391599C-0.126413 0.91373 -0.13197 1.75803 0.384842 2.28016L29.7264 31.6084C30.2488 32.1305 31.0935 32.1305 31.6103 31.6084C32.1271 31.0863 32.1327 30.242 31.6103 29.7254L28.8873 27.0036V4.88526C28.8873 4.1465 28.2927 3.55216 27.5536 3.55216C26.8145 3.55216 26.2199 4.1465 26.2199 4.88526V24.3374L23.1079 21.2269V10.2177C23.1079 9.47891 22.5133 8.88457 21.7742 8.88457C21.0351 8.88457 20.4405 9.47891 20.4405 10.2177V18.5607L2.26871 0.397153L2.27426 0.391599ZM17.3341 22.9821L14.6666 20.3159V27.1036C14.6666 27.8424 15.2613 28.4367 16.0004 28.4367C16.7394 28.4367 17.3341 27.8424 17.3341 27.1036V22.9821ZM10.2209 19.5494C9.48185 19.5494 8.88724 20.1437 8.88724 20.8825V27.1036C8.88724 27.8424 9.48185 28.4367 10.2209 28.4367C10.96 28.4367 11.5547 27.8424 11.5547 27.1036V20.8825C11.5547 20.1437 10.96 19.5494 10.2209 19.5494ZM4.44154 23.1043C3.70244 23.1043 3.10783 23.6987 3.10783 24.4374V27.1036C3.10783 27.8424 3.70244 28.4367 4.44154 28.4367C5.18064 28.4367 5.77525 27.8424 5.77525 27.1036V24.4374C5.77525 23.6987 5.18064 23.1043 4.44154 23.1043Z"/>
</g>
<defs>
<clipPath id="clip0_138_2130">
<rect width="32" height="32"/>
</clipPath>
</defs>
</svg>
