<svg height="1em" width="1em" fill="currentColor" viewBox="0 0 32 32" xmlns="http://www.w3.org/2000/svg">
<path d="M2 4C0.89375 4 0 4.89375 0 6C0 7.10625 0.89375 8 2 8H7.41875C8.1875 9.76875 9.95 11 12 11C14.05 11 15.8125 9.76875 16.5812 8H30C31.1063 8 32 7.10625 32 6C32 4.89375 31.1063 4 30 4H16.5812C15.8125 2.23125 14.05 1 12 1C9.95 1 8.1875 2.23125 7.41875 4H2ZM2 14C0.89375 14 0 14.8938 0 16C0 17.1063 0.89375 18 2 18H17.4188C18.1875 19.7687 19.95 21 22 21C24.05 21 25.8125 19.7687 26.5812 18H30C31.1063 18 32 17.1063 32 16C32 14.8938 31.1063 14 30 14H26.5812C25.8125 12.2312 24.05 11 22 11C19.95 11 18.1875 12.2312 17.4188 14H2ZM2 24C0.89375 24 0 24.8937 0 26C0 27.1063 0.89375 28 2 28H5.41875C6.1875 29.7687 7.95 31 10 31C12.05 31 13.8125 29.7687 14.5813 28H30C31.1063 28 32 27.1063 32 26C32 24.8937 31.1063 24 30 24H14.5813C13.8125 22.2313 12.05 21 10 21C7.95 21 6.1875 22.2313 5.41875 24H2Z"/>
</svg>
