<svg height="1em" width="1em" fill="currentColor" viewBox="0 0 32 32" xmlns="http://www.w3.org/2000/svg">
<path d="M6 2C3.79375 2 2 3.79375 2 6V26C2 28.2062 3.79375 30 6 30H26C28.2062 30 30 28.2062 30 26V6C30 3.79375 28.2062 2 26 2H6ZM15.6 12.4688L16 13L16.4 12.4688C17.0938 11.5437 18.1812 11 19.3312 11C21.3562 11 23 12.6437 23 14.6687V15C23 18.0688 18.8875 21.1312 16.9688 22.3937C16.375 22.7812 15.625 22.7812 15.0375 22.3937C13.1188 21.1312 9.00625 18.0625 9.00625 15V14.6687C9.00625 12.6437 10.65 11 12.675 11C13.8313 11 14.9187 11.5437 15.6062 12.4688H15.6Z"/>
</svg>
