<svg height="1em" width="1em" fill="currentColor" viewBox="0 0 32 32" xmlns="http://www.w3.org/2000/svg">
<path d="M17.25 0.772636C17.0115 0.300797 16.5288 0 16.0053 0C15.4818 0 14.9991 0.300797 14.7606 0.772636L10.4798 9.27753L1.17937 10.7756C0.661716 10.8582 0.231304 11.2298 0.0684454 11.737C-0.0944131 12.2442 0.0393635 12.7986 0.405795 13.1761L7.05973 19.9293L5.594 29.3602C5.51257 29.8851 5.72778 30.4159 6.15237 30.7285C6.57697 31.0411 7.13534 31.0883 7.60647 30.8465L16.0053 26.5174L24.3983 30.8465C24.8636 31.0883 25.4278 31.0411 25.8524 30.7285C26.277 30.4159 26.4922 29.891 26.4108 29.3602L24.9393 19.9293L31.5932 13.1761C31.9654 12.7986 32.0934 12.2442 31.9305 11.737C31.7677 11.2298 31.3431 10.8582 30.8196 10.7756L21.525 9.27753L17.25 0.772636Z"/>
</svg>
