<svg height="1em" width="1em" fill="currentColor" viewBox="0 0 32 32" xmlns="http://www.w3.org/2000/svg">
<path d="M1.91872 4.51875C2.34997 3.025 3.71872 2 5.27497 2H26.775C28.3312 2 29.7 3.025 30.1375 4.51875L31.6 9.53125C32.4 12.2625 30.3437 15 27.5 15C25.8562 15 24.4125 14.0687 23.7 12.6812C22.975 14.05 21.5375 15 19.8625 15C18.2 15 16.7562 14.0625 16.0312 12.6875C15.3062 14.0625 13.8625 15 12.2 15C10.525 15 9.08747 14.0562 8.36247 12.6812C7.64997 14.0625 6.20622 15 4.56247 15C1.71247 15 -0.33753 12.2688 0.46247 9.53125L1.91872 4.51875ZM6.02497 22H26.025V17.85C26.5 17.95 26.9937 18 27.4937 18C28.3875 18 29.2437 17.8375 30.025 17.55V27C30.025 28.6562 28.6812 30 27.025 30H5.02497C3.36872 30 2.02497 28.6562 2.02497 27V17.55C2.80622 17.8375 3.65622 18 4.55622 18C5.06247 18 5.54997 17.95 6.02497 17.85V22Z"/>
</svg>
