<svg height="1em" width="1em" fill="currentColor" viewBox="0 0 32 32" xmlns="http://www.w3.org/2000/svg">
<path d="M2.03125 6V15.3438C2.03125 16.4062 2.45 17.425 3.2 18.175L15.2 30.175C16.7625 31.7375 19.2938 31.7375 20.8563 30.175L30.2 20.8312C31.7625 19.2687 31.7625 16.7375 30.2 15.175L18.2 3.175C17.45 2.41875 16.4375 2 15.375 2H6.03125C3.825 2 2.03125 3.79375 2.03125 6ZM9.03125 7C9.56168 7 10.0704 7.21071 10.4455 7.58579C10.8205 7.96086 11.0312 8.46957 11.0312 9C11.0312 9.53043 10.8205 10.0391 10.4455 10.4142C10.0704 10.7893 9.56168 11 9.03125 11C8.50082 11 7.99211 10.7893 7.61704 10.4142C7.24196 10.0391 7.03125 9.53043 7.03125 9C7.03125 8.46957 7.24196 7.96086 7.61704 7.58579C7.99211 7.21071 8.50082 7 9.03125 7Z"/>
</svg>
