<svg height="1em" width="1em" fill="currentColor" viewBox="0 0 32 32" xmlns="http://www.w3.org/2000/svg">
<path d="M21.9508 4.41862L30.7645 13.2804C32.4118 14.9372 32.4118 17.5904 30.7645 19.2472L21.4632 28.5806C20.9101 29.1348 20.0061 29.1407 19.4471 28.5924C18.8881 28.0441 18.8821 27.1479 19.4352 26.5937L28.7365 17.2543C29.2836 16.706 29.2836 15.8157 28.7365 15.2673L19.9169 6.41148C19.3638 5.85725 19.3698 4.96106 19.9288 4.41272C20.4879 3.86439 21.3918 3.87029 21.9449 4.42452L21.9508 4.41862ZM0 15.6447V7.77347C0 5.69217 1.70683 4 3.80616 4H11.7456C12.7566 4 13.726 4.39504 14.4396 5.10256L23.0035 13.5929C24.4903 15.0669 24.4903 17.4548 23.0035 18.9288L15.0641 26.8C13.5773 28.274 11.1687 28.274 9.68192 26.8L1.11806 18.3097C0.404405 17.6022 0.00594726 16.6411 0.00594726 15.6388L0 15.6447ZM8.56386 10.6036C8.56386 10.1032 8.36336 9.62328 8.00646 9.26945C7.64957 8.91562 7.16551 8.71684 6.66078 8.71684C6.15605 8.71684 5.672 8.91562 5.3151 9.26945C4.9582 9.62328 4.7577 10.1032 4.7577 10.6036C4.7577 11.104 4.9582 11.5839 5.3151 11.9377C5.672 12.2915 6.15605 12.4903 6.66078 12.4903C7.16551 12.4903 7.64957 12.2915 8.00646 11.9377C8.36336 11.5839 8.56386 11.104 8.56386 10.6036Z"/>
</svg>
