<svg height="1em" width="1em" fill="currentColor" viewBox="0 0 32 32" xmlns="http://www.w3.org/2000/svg">
<path d="M5 10C6.10625 10 7 10.8938 7 12V28C7 29.1063 6.10625 30 5 30H2C0.89375 30 0 29.1063 0 28V12C0 10.8938 0.89375 10 2 10H5ZM16.9125 1C18.6187 1 20 2.38125 20 4.0875V4.35C20 4.775 19.9188 5.2 19.7625 5.59375L18 10H28C29.6562 10 31 11.3438 31 13C31 14.2312 30.2563 15.2875 29.1938 15.75C30.2563 16.2125 31 17.2687 31 18.5C31 19.9625 29.95 21.1812 28.5625 21.4438C28.8375 21.9 29 22.4312 29 23C29 24.3875 28.0625 25.55 26.7875 25.8937C26.925 26.2375 27 26.6125 27 27C27 28.6562 25.6562 30 24 30H18.5063C16.2375 30 14.0312 29.225 12.2625 27.8062L11.5 27.2C10.55 26.4438 10 25.2938 10 24.075V12.4125C10 11.4813 10.2188 10.5625 10.6313 9.73125L14.1438 2.70625C14.6687 1.6625 15.7375 1 16.9125 1Z"/>
</svg>
