<svg height="1em" width="1em" fill="currentColor" viewBox="0 0 32 32" xmlns="http://www.w3.org/2000/svg">
<path d="M24 2C25.6562 2 27 3.34375 27 5C27 5.39375 26.9188 5.7625 26.7875 6.10625C28.0625 6.45 29 7.6125 29 9C29 9.56875 28.8375 10.1 28.5625 10.5562C29.95 10.8187 31 12.0375 31 13.5C31 14.7312 30.2563 15.7875 29.1938 16.25C30.2563 16.7125 31 17.7688 31 19C31 20.6562 29.6562 22 28 22H18L19.7625 26.4C19.9188 26.7937 20 27.2188 20 27.6437V27.9062C20 29.6125 18.6187 30.9937 16.9125 30.9937C15.7438 30.9937 14.675 30.3313 14.15 29.2875L10.6313 22.2687C10.2125 21.4375 10 20.5187 10 19.5875V7.925C10 6.7125 10.5562 5.5625 11.5 4.8L12.2625 4.19375C14.0375 2.775 16.2375 2 18.5063 2H24ZM5 6C6.10625 6 7 6.89375 7 8V24C7 25.1063 6.10625 26 5 26H2C0.89375 26 0 25.1063 0 24V8C0 6.89375 0.89375 6 2 6H5Z"/>
</svg>
