<svg height="1em" width="1em" fill="currentColor" viewBox="0 0 32 32" xmlns="http://www.w3.org/2000/svg">
<path d="M3.55556 5C1.59444 5 0 6.56953 0 8.5V12C0 12.4812 0.411111 12.8586 0.872222 13.0172C1.91667 13.3727 2.66667 14.3516 2.66667 15.5C2.66667 16.6484 1.91667 17.6273 0.872222 17.9828C0.411111 18.1414 0 18.5188 0 19V22.5C0 24.4305 1.59444 26 3.55556 26H28.4444C30.4056 26 32 24.4305 32 22.5V19C32 18.5188 31.5889 18.1414 31.1278 17.9828C30.0833 17.6273 29.3333 16.6484 29.3333 15.5C29.3333 14.3516 30.0833 13.3727 31.1278 13.0172C31.5889 12.8586 32 12.4812 32 12V8.5C32 6.56953 30.4056 5 28.4444 5H3.55556ZM23.1111 19.875V11.125H8.88889V19.875H23.1111ZM6.22222 10.25C6.22222 9.28203 7.01667 8.5 8 8.5H24C24.9833 8.5 25.7778 9.28203 25.7778 10.25V20.75C25.7778 21.718 24.9833 22.5 24 22.5H8C7.01667 22.5 6.22222 21.718 6.22222 20.75V10.25Z"/>
</svg>
