<svg height="1em" width="1em" fill="currentColor" viewBox="0 0 32 32" xmlns="http://www.w3.org/2000/svg">
<path d="M10.2386 1.32727L9.71429 2.90909H3.92857C2.86183 2.90909 2 3.77576 2 4.84848C2 5.92121 2.86183 6.78788 3.92857 6.78788H27.0714C28.1382 6.78788 29 5.92121 29 4.84848C29 3.77576 28.1382 2.90909 27.0714 2.90909H21.2857L20.7614 1.32727C20.4962 0.533333 19.7609 0 18.9292 0H12.0708C11.2391 0 10.5038 0.533333 10.2386 1.32727ZM27.0714 9.69697H3.92857L5.20022 29.2788C5.29665 30.8121 6.56228 32 8.08705 32H22.9129C24.4377 32 25.7033 30.8121 25.7998 29.2788L27.0714 9.69697Z"/>
</svg>
