<svg height="1em" width="1em" fill="currentColor" viewBox="0 0 32 32" xmlns="http://www.w3.org/2000/svg">
<path d="M0 5.6C0 3.61437 1.59444 2 3.55556 2H19.5556C21.5167 2 23.1111 3.61437 23.1111 5.6V7.4H25.9278C26.8722 7.4 27.7778 7.77687 28.4444 8.45187L30.9611 11C31.6278 11.675 32 12.5919 32 13.5481V21.8C32 23.7856 30.4056 25.4 28.4444 25.4H28.2611C27.6833 27.4756 25.7944 29 23.5556 29C21.3167 29 19.4333 27.4756 18.85 25.4H13.15C12.5722 27.4756 10.6833 29 8.44444 29C6.20556 29 4.32222 27.4756 3.73889 25.4H3.55556C1.59444 25.4 0 23.7856 0 21.8V5.6ZM28.4444 16.4V13.5481L25.9278 11H23.1111V16.4H28.4444ZM10.6667 24.05C10.6667 23.4533 10.4325 22.881 10.0158 22.459C9.59905 22.0371 9.03381 21.8 8.44444 21.8C7.85507 21.8 7.28984 22.0371 6.8731 22.459C6.45635 22.881 6.22222 23.4533 6.22222 24.05C6.22222 24.6467 6.45635 25.219 6.8731 25.641C7.28984 26.0629 7.85507 26.3 8.44444 26.3C9.03381 26.3 9.59905 26.0629 10.0158 25.641C10.4325 25.219 10.6667 24.6467 10.6667 24.05ZM23.5556 26.3C24.1449 26.3 24.7102 26.0629 25.1269 25.641C25.5437 25.219 25.7778 24.6467 25.7778 24.05C25.7778 23.4533 25.5437 22.881 25.1269 22.459C24.7102 22.0371 24.1449 21.8 23.5556 21.8C22.9662 21.8 22.401 22.0371 21.9842 22.459C21.5675 22.881 21.3333 23.4533 21.3333 24.05C21.3333 24.6467 21.5675 25.219 21.9842 25.641C22.401 26.0629 22.9662 26.3 23.5556 26.3Z"/>
</svg>
