<svg height="1em" width="1em" fill="currentColor" viewBox="0 0 32 32" xmlns="http://www.w3.org/2000/svg">
<path d="M18 6.83127V20C18 21.1063 17.1062 22 16 22C14.8938 22 14 21.1063 14 20V6.83127L11.4125 9.41877C10.6313 10.2 9.3625 10.2 8.58125 9.41877C7.8 8.63752 7.8 7.36877 8.58125 6.58752L14.5813 0.587524C15.3625 -0.193726 16.6313 -0.193726 17.4125 0.587524L23.4125 6.58752C24.1938 7.36877 24.1938 8.63752 23.4125 9.41877C22.6313 10.2 21.3625 10.2 20.5812 9.41877L18 6.83127ZM16 25C18.7625 25 21 22.7625 21 20H26C28.2062 20 30 21.7938 30 24V26C30 28.2063 28.2062 30 26 30H6C3.79375 30 2 28.2063 2 26V24C2 21.7938 3.79375 20 6 20H11C11 22.7625 13.2375 25 16 25ZM25 26.5C25.197 26.5 25.392 26.4612 25.574 26.3858C25.756 26.3105 25.9214 26.2 26.0607 26.0607C26.1999 25.9214 26.3104 25.756 26.3858 25.5741C26.4612 25.3921 26.5 25.197 26.5 25C26.5 24.803 26.4612 24.608 26.3858 24.426C26.3104 24.244 26.1999 24.0787 26.0607 23.9394C25.9214 23.8001 25.756 23.6896 25.574 23.6142C25.392 23.5388 25.197 23.5 25 23.5C24.803 23.5 24.608 23.5388 24.426 23.6142C24.244 23.6896 24.0786 23.8001 23.9393 23.9394C23.8001 24.0787 23.6896 24.244 23.6142 24.426C23.5388 24.608 23.5 24.803 23.5 25C23.5 25.197 23.5388 25.3921 23.6142 25.5741C23.6896 25.756 23.8001 25.9214 23.9393 26.0607C24.0786 26.2 24.244 26.3105 24.426 26.3858C24.608 26.4612 24.803 26.5 25 26.5Z"/>
</svg>
