<svg height="1em" width="1em" fill="currentColor" viewBox="0 0 32 32" xmlns="http://www.w3.org/2000/svg">
<path d="M4.75676 8.66667C4.75676 6.89856 5.44015 5.20286 6.6566 3.95262C7.87306 2.70238 9.52292 2 11.2432 2C12.9636 2 14.6134 2.70238 15.8299 3.95262C17.0463 5.20286 17.7297 6.89856 17.7297 8.66667C17.7297 10.4348 17.0463 12.1305 15.8299 13.3807C14.6134 14.631 12.9636 15.3333 11.2432 15.3333C9.52292 15.3333 7.87306 14.631 6.6566 13.3807C5.44015 12.1305 4.75676 10.4348 4.75676 8.66667ZM0 28.35C0 22.8778 4.31351 18.4444 9.63784 18.4444H12.8486C18.173 18.4444 22.4865 22.8778 22.4865 28.35C22.4865 29.2611 21.7676 30 20.8811 30H1.60541C0.718919 30 0 29.2611 0 28.35ZM22.9189 10.8889H30.7027C31.4216 10.8889 32 11.4833 32 12.2222C32 12.9611 31.4216 13.5556 30.7027 13.5556H22.9189C22.2 13.5556 21.6216 12.9611 21.6216 12.2222C21.6216 11.4833 22.2 10.8889 22.9189 10.8889Z"/>
</svg>
