<svg height="1em" width="1em" fill="currentColor" viewBox="0 0 32 32" xmlns="http://www.w3.org/2000/svg">
<path d="M16 15.5C16.9849 15.5 17.9602 15.306 18.8701 14.9291C19.7801 14.5522 20.6069 13.9997 21.3033 13.3033C21.9997 12.6069 22.5522 11.7801 22.9291 10.8701C23.306 9.96018 23.5 8.98491 23.5 8C23.5 7.01509 23.306 6.03982 22.9291 5.12987C22.5522 4.21993 21.9997 3.39314 21.3033 2.6967C20.6069 2.00026 19.7801 1.44781 18.8701 1.0709C17.9602 0.693993 16.9849 0.5 16 0.5C15.0151 0.5 14.0398 0.693993 13.1299 1.0709C12.2199 1.44781 11.3931 2.00026 10.6967 2.6967C10.0003 3.39314 9.44781 4.21993 9.0709 5.12987C8.69399 6.03982 8.5 7.01509 8.5 8C8.5 8.98491 8.69399 9.96018 9.0709 10.8701C9.44781 11.7801 10.0003 12.6069 10.6967 13.3033C11.3931 13.9997 12.2199 14.5522 13.1299 14.9291C14.0398 15.306 15.0151 15.5 16 15.5ZM14.1438 19C7.9875 19 3 23.9875 3 30.1437C3 31.1687 3.83125 32 4.85625 32H27.1437C28.1687 32 29 31.1687 29 30.1437C29 23.9875 24.0125 19 17.8562 19H14.1438Z"/>
</svg>
