<svg height="1em" width="1em" fill="currentColor" viewBox="0 0 32 32" xmlns="http://www.w3.org/2000/svg">
<path d="M16 4C17.3791 4 18.7018 4.54313 19.677 5.50992C20.6521 6.4767 21.2 7.78794 21.2 9.15517C21.2 10.5224 20.6521 11.8336 19.677 12.8004C18.7018 13.7672 17.3791 14.3103 16 14.3103C14.6209 14.3103 13.2982 13.7672 12.323 12.8004C11.3479 11.8336 10.8 10.5224 10.8 9.15517C10.8 7.78794 11.3479 6.4767 12.323 5.50992C13.2982 4.54313 14.6209 4 16 4ZM4.8 7.56897C5.27276 7.56897 5.74089 7.66128 6.17766 7.84064C6.61443 8.01999 7.01129 8.28288 7.34558 8.61429C7.67987 8.9457 7.94505 9.33914 8.12597 9.77215C8.30688 10.2052 8.4 10.6692 8.4 11.1379C8.4 11.6066 8.30688 12.0707 8.12597 12.5037C7.94505 12.9367 7.67987 13.3302 7.34558 13.6616C7.01129 13.993 6.61443 14.2559 6.17766 14.4352C5.74089 14.6146 5.27276 14.7069 4.8 14.7069C4.32724 14.7069 3.85911 14.6146 3.42234 14.4352C2.98557 14.2559 2.58871 13.993 2.25442 13.6616C1.92012 13.3302 1.65495 12.9367 1.47403 12.5037C1.29312 12.0707 1.2 11.6066 1.2 11.1379C1.2 10.6692 1.29312 10.2052 1.47403 9.77215C1.65495 9.33914 1.92012 8.9457 2.25442 8.61429C2.58871 8.28288 2.98557 8.01999 3.42234 7.84064C3.85911 7.66128 4.32724 7.56897 4.8 7.56897ZM0 23.8276C0 20.3231 2.865 17.4828 6.4 17.4828C7.04 17.4828 7.66 17.5769 8.245 17.7504C6.6 19.5746 5.6 21.9836 5.6 24.6207V25.4138C5.6 25.9789 5.72 26.5142 5.935 27H1.6C0.715 27 0 26.2912 0 25.4138V23.8276ZM26.065 27C26.28 26.5142 26.4 25.9789 26.4 25.4138V24.6207C26.4 21.9836 25.4 19.5746 23.755 17.7504C24.34 17.5769 24.96 17.4828 25.6 17.4828C29.135 17.4828 32 20.3231 32 23.8276V25.4138C32 26.2912 31.285 27 30.4 27H26.065ZM23.6 11.1379C23.6 10.1914 23.9793 9.2836 24.6544 8.61429C25.3295 7.94498 26.2452 7.56897 27.2 7.56897C28.1548 7.56897 29.0705 7.94498 29.7456 8.61429C30.4207 9.2836 30.8 10.1914 30.8 11.1379C30.8 12.0845 30.4207 12.9923 29.7456 13.6616C29.0705 14.3309 28.1548 14.7069 27.2 14.7069C26.2452 14.7069 25.3295 14.3309 24.6544 13.6616C23.9793 12.9923 23.6 12.0845 23.6 11.1379ZM8 24.6207C8 20.2388 11.58 16.6897 16 16.6897C20.42 16.6897 24 20.2388 24 24.6207V25.4138C24 26.2912 23.285 27 22.4 27H9.6C8.715 27 8 26.2912 8 25.4138V24.6207Z"/>
</svg>
