<svg height="1em" width="1em" fill="currentColor" viewBox="0 0 32 32" xmlns="http://www.w3.org/2000/svg">
<g clip-path="url(#clip0_138_2137)">
<path d="M15.9962 6.57143C10.9455 6.57143 6.3726 8.58036 3.01102 11.8504C2.30536 12.5368 1.17743 12.5201 0.499553 11.8114C-0.17832 11.1027 -0.167207 9.96987 0.538447 9.28906C4.53345 5.39397 9.98977 3 15.9962 3C22.0026 3 27.4589 5.39397 31.4594 9.28906C32.1651 9.97545 32.1818 11.1083 31.4983 11.8114C30.8149 12.5145 29.687 12.5368 28.9869 11.8504C25.6197 8.58036 21.0469 6.57143 15.9962 6.57143ZM13.3291 25.3214C13.3291 24.611 13.6101 23.9297 14.1103 23.4274C14.6105 22.9251 15.2888 22.6429 15.9962 22.6429C16.7035 22.6429 17.3819 22.9251 17.8821 23.4274C18.3822 23.9297 18.6632 24.611 18.6632 25.3214C18.6632 26.0318 18.3822 26.7131 17.8821 27.2155C17.3819 27.7178 16.7035 28 15.9962 28C15.2888 28 14.6105 27.7178 14.1103 27.2155C13.6101 26.7131 13.3291 26.0318 13.3291 25.3214ZM9.32857 19.4174C8.67848 20.1596 7.5561 20.2266 6.8171 19.5737C6.07811 18.9208 6.01144 17.7935 6.66153 17.0513C8.93962 14.4621 12.279 12.8214 15.9962 12.8214C19.7134 12.8214 23.0527 14.4621 25.3308 17.0513C25.9809 17.7935 25.9087 18.9208 25.1752 19.5737C24.4418 20.2266 23.3139 20.154 22.6638 19.4174C21.0302 17.5592 18.6521 16.3929 15.9962 16.3929C13.3402 16.3929 10.9621 17.5592 9.32857 19.4174Z"/>
</g>
<defs>
<clipPath id="clip0_138_2137">
<rect width="32" height="32"/>
</clipPath>
</defs>
</svg>
