<svg height="1em" width="1em" fill="currentColor" viewBox="0 0 32 32" xmlns="http://www.w3.org/2000/svg">
<path d="M7.41713 4.59219C6.63588 3.81094 5.36713 3.81094 4.58588 4.59219C3.80463 5.37344 3.80463 6.64219 4.58588 7.42344L13.1734 16.0047L4.59213 24.5922C3.81088 25.3734 3.81088 26.6422 4.59213 27.4234C5.37338 28.2047 6.64213 28.2047 7.42338 27.4234L16.0046 18.8359L24.5921 27.4172C25.3734 28.1984 26.6421 28.1984 27.4234 27.4172C28.2046 26.6359 28.2046 25.3672 27.4234 24.5859L18.8359 16.0047L27.4171 7.41719C28.1984 6.63594 28.1984 5.36719 27.4171 4.58594C26.6359 3.80469 25.3671 3.80469 24.5859 4.58594L16.0046 13.1734L7.41713 4.59219Z"/>
</svg>
