<svg xmlns="http://www.w3.org/2000/svg" width="1em" height="1em" fill="currentColor"
  viewBox="0 0 61 29">
  <g clip-path="url(#clip0_117_34847)">
    <path
      d="M50.0595 11.4914C49.8458 11.4914 49.6974 11.4914 49.5471 11.4914C44.6261 11.4896 39.7051 11.486 34.7823 11.486C27.5656 11.486 20.3489 11.486 13.134 11.486C9.66506 11.486 6.19611 11.486 2.72716 11.486C2.14417 11.486 1.5811 11.5109 1.05605 11.8287C-0.377874 12.6951 -0.347095 14.7831 1.12123 15.5874C1.49963 15.7951 1.89432 15.8945 2.32704 15.8945C6.03678 15.8927 9.74653 15.8945 13.4563 15.8945C25.3532 15.8945 37.2501 15.8945 49.1488 15.8945H50.0396C49.9183 16.0294 49.8368 16.1306 49.7463 16.2194C47.2984 18.6056 44.8506 20.9901 42.3992 23.3728C41.9701 23.79 41.608 24.2374 41.5066 24.8446C41.3599 25.7128 41.8108 26.6467 42.5929 27.0746C43.5217 27.5824 44.4976 27.4758 45.2652 26.7479C46.3244 25.743 47.369 24.7239 48.4155 23.7065C50.0269 22.1388 51.6346 20.5658 53.2442 18.9962C54.4753 17.796 55.7065 16.594 56.9394 15.3938C57.3015 15.0405 57.5912 14.6517 57.6944 14.1421C57.8212 13.5047 57.727 12.9064 57.3052 12.4128C56.8869 11.9228 56.4071 11.4825 55.9455 11.0297C53.4307 8.56541 50.914 6.10107 48.392 3.64028C47.3908 2.662 46.3787 1.69437 45.3684 0.724974C44.9556 0.329044 44.4849 0.0591736 43.8856 0.00768471C42.7486 -0.0899658 41.7058 0.755157 41.5138 1.81866C41.3889 2.50931 41.5645 3.1325 42.0516 3.63673C42.7341 4.34336 43.4511 5.01626 44.1554 5.70337C46.0745 7.57648 47.9937 9.44781 49.911 11.3209C49.9508 11.36 49.9852 11.4044 50.0631 11.4949L50.0595 11.4914Z"
    />
  </g>
  <defs>
    <clipPath id="clip0_117_34847">
      <rect width="61" height="29" transform="matrix(1 0 0 -1 0 29)" />
    </clipPath>
  </defs>
</svg>