<svg width="1em" height="1em" viewBox="0 0 44 44" fill="currentColor" xmlns="http://www.w3.org/2000/svg">
<rect width="44" height="44" rx="22" fill="#D5FDFC"/>
<path d="M29.25 7.9375H14.75C13.6469 7.9375 12.75 8.83438 12.75 9.9375V33.9375C12.75 35.0406 13.6469 35.9375 14.75 35.9375H29.25C30.3531 35.9375 31.25 35.0406 31.25 33.9375V9.9375C31.25 8.83438 30.3531 7.9375 29.25 7.9375ZM22 31.75C21.3094 31.75 20.75 31.1906 20.75 30.5C20.75 29.8094 21.3094 29.25 22 29.25C22.6906 29.25 23.25 29.8094 23.25 30.5C23.25 31.1906 22.6906 31.75 22 31.75Z" fill="url(#paint0_linear_1176_2073)"/>
<defs>
<linearGradient id="paint0_linear_1176_2073" x1="8.8042" y1="15.476" x2="40.9449" y2="31.2223" gradientUnits="userSpaceOnUse">
<stop stop-color="#62CBC9"/>
<stop offset="1" stop-color="#08FFFA"/>
</linearGradient>
</defs>
</svg>
