<svg height="1em" width="1em" fill="currentColor" viewBox="0 0 32 32" xmlns="http://www.w3.org/2000/svg">
  <g clip-path="url(#clip0_104_2439)">
    <path
      d="M25.1625 3.1375C24.825 3.24375 24.4562 3.25 24.15 3.08125C23.7875 2.88125 23.4125 2.69375 23.0375 2.525C22.3875 2.23125 22.1812 1.38125 22.7812 0.9875C23.7188 0.36875 24.8438 0.00625 26.05 0.00625C29.3375 0.00625 32 2.66875 32 5.95625C32 6.78125 31.8312 7.56875 31.525 8.2875C31.2437 8.94375 30.375 8.9 29.9688 8.3125C29.7313 7.96875 29.4813 7.6375 29.2188 7.3125C29 7.0375 28.9375 6.675 28.9813 6.325C28.9938 6.20625 29.0063 6.08125 29.0063 5.95625C29.0063 4.325 27.6812 3.00625 26.0562 3.00625C25.75 3.00625 25.45 3.05625 25.1688 3.14375L25.1625 3.1375ZM2.03125 8.30625C1.625 8.89375 0.75 8.9375 0.475 8.28125C0.16875 7.5625 0 6.775 0 5.95C0 2.6625 2.6625 0 5.95 0C7.15625 0 8.28125 0.3625 9.21875 0.98125C9.81875 1.375 9.6125 2.225 8.9625 2.51875C8.58125 2.69375 8.2125 2.875 7.85 3.075C7.54375 3.24375 7.16875 3.2375 6.8375 3.13125C6.55625 3.04375 6.2625 2.99375 5.95 2.99375C4.31875 2.99375 3 4.31875 3 5.94375C3 6.06875 3.00625 6.19375 3.025 6.3125C3.06875 6.6625 3.00625 7.025 2.7875 7.3C2.525 7.625 2.275 7.95625 2.0375 8.3L2.03125 8.30625ZM27 18C27 15.0826 25.8411 12.2847 23.7782 10.2218C21.7153 8.15893 18.9174 7 16 7C13.0826 7 10.2847 8.15893 8.22183 10.2218C6.15893 12.2847 5 15.0826 5 18C5 20.9174 6.15893 23.7153 8.22183 25.7782C10.2847 27.8411 13.0826 29 16 29C18.9174 29 21.7153 27.8411 23.7782 25.7782C25.8411 23.7153 27 20.9174 27 18ZM24.7812 28.9062C22.3813 30.8375 19.325 32 16 32C12.675 32 9.61875 30.8375 7.21875 28.9062L4.5625 31.5625C3.975 32.15 3.025 32.15 2.44375 31.5625C1.8625 30.975 1.85625 30.025 2.44375 29.4438L5.1 26.7875C3.1625 24.3813 2 21.325 2 18C2 10.2688 8.26875 4 16 4C23.7313 4 30 10.2688 30 18C30 21.325 28.8375 24.3813 26.9062 26.7812L29.5625 29.4375C30.15 30.025 30.15 30.975 29.5625 31.5562C28.975 32.1375 28.025 32.1437 27.4438 31.5562L24.7875 28.9L24.7812 28.9062ZM17.5 11.5V17.3813L20.0625 19.9438C20.65 20.5312 20.65 21.4813 20.0625 22.0625C19.475 22.6437 18.525 22.65 17.9438 22.0625L14.9438 19.0625C14.6625 18.7812 14.5063 18.4 14.5063 18V11.5C14.5063 10.6687 15.175 10 16.0063 10C16.8375 10 17.5063 10.6687 17.5063 11.5H17.5Z"
      />
  </g>
  <defs>
    <clipPath id="clip0_104_2439">
      <rect width="32" height="32" />
    </clipPath>
  </defs>
</svg>