<svg height="1em" width="1em" fill="currentColor" viewBox="0 0 32 32" xmlns="http://www.w3.org/2000/svg">
<path d="M11.5393 12.7697C13.2107 11.4625 14.2857 9.42679 14.2857 7.14108C14.2857 3.19644 11.0982 0.00536386 7.15357 6.72026e-06C3.20357 -0.00535042 0 3.19286 0 7.14108C0 9.37679 1.02679 11.3714 2.63571 12.6804C2.69821 12.7304 2.78929 12.7197 2.83929 12.6572L3.54286 11.7554C3.59107 11.6947 3.58036 11.6072 3.52143 11.5572C3.37679 11.4393 3.2375 11.3125 3.10357 11.1786C2.58146 10.6583 2.16542 10.0415 1.87857 9.36251C1.57857 8.66072 1.42857 7.91251 1.42857 7.14108C1.42857 6.36965 1.57857 5.62144 1.87679 4.91786C2.16429 4.23751 2.57679 3.62679 3.10179 3.10179C3.62679 2.57679 4.2375 2.16429 4.91786 1.87679C5.62322 1.57858 6.37143 1.42858 7.14286 1.42858C7.91429 1.42858 8.6625 1.57858 9.36607 1.87679C10.0464 2.16429 10.6571 2.57679 11.1821 3.10179C11.7071 3.62679 12.1196 4.23751 12.4071 4.91786C12.7054 5.62144 12.8554 6.36965 12.8554 7.14108C12.8554 7.91251 12.7054 8.66072 12.4071 9.36429C12.1203 10.0433 11.7043 10.6601 11.1821 11.1804C11.0161 11.3464 10.8411 11.5018 10.6589 11.6447L9.93214 10.7143C9.91569 10.693 9.89357 10.6768 9.86832 10.6676C9.84307 10.6583 9.81572 10.6564 9.78942 10.662C9.76312 10.6676 9.73893 10.6805 9.71964 10.6992C9.70034 10.7179 9.68673 10.7417 9.68036 10.7679L8.97322 13.6643C8.95179 13.7536 9.01964 13.8411 9.11072 13.8411L12.0929 13.8554C12.2125 13.8554 12.2804 13.7179 12.2054 13.625L11.5393 12.7697Z" />
</svg>
