<svg height="1em" width="1em" fill="currentColor" viewBox="0 0 32 32" xmlns="http://www.w3.org/2000/svg">
<g clip-path="url(#clip0_138_1428)">
<path d="M17.0625 0.440625C16.475 -0.146875 15.525 -0.146875 14.9438 0.440625L6.4375 8.94063C5.85 9.52812 5.85 10.4781 6.4375 11.0594C7.025 11.6406 7.975 11.6469 8.55625 11.0594L14.4937 5.12188V20.5031C14.4937 21.3344 15.1625 22.0031 15.9937 22.0031C16.825 22.0031 17.4937 21.3344 17.4937 20.5031V5.12188L23.4312 11.0594C24.0187 11.6469 24.9688 11.6469 25.55 11.0594C26.1312 10.4719 26.1375 9.52188 25.55 8.94063L17.0625 0.440625ZM5 21.5031C5 20.6719 4.33125 20.0031 3.5 20.0031C2.66875 20.0031 2 20.6719 2 21.5031V26.0031C2 29.3156 4.6875 32.0031 8 32.0031H24C27.3125 32.0031 30 29.3156 30 26.0031V21.5031C30 20.6719 29.3312 20.0031 28.5 20.0031C27.6688 20.0031 27 20.6719 27 21.5031V26.0031C27 27.6594 25.6562 29.0031 24 29.0031H8C6.34375 29.0031 5 27.6594 5 26.0031V21.5031Z"/>
</g>
<defs>
<clipPath id="clip0_138_1428">
<rect width="32" height="32"/>
</clipPath>
</defs>
</svg>
