<svg height="1em" width="1em" fill="currentColor" viewBox="0 0 32 32" xmlns="http://www.w3.org/2000/svg">
<path d="M26.5 32C27.3312 32 28 31.3312 28 30.5C28 29.6688 27.3312 29 26.5 29H5.5C4.66875 29 4 29.6688 4 30.5C4 31.3312 4.66875 32 5.5 32H26.5ZM14.9375 23.5625C15.525 24.15 16.475 24.15 17.0562 23.5625L25.5625 15.0625C26.15 14.475 26.15 13.525 25.5625 12.9438C24.975 12.3625 24.025 12.3563 23.4438 12.9438L17.5063 18.8813V1.5C17.5063 0.66875 16.8375 0 16.0063 0C15.175 0 14.5063 0.66875 14.5063 1.5V18.8813L8.56875 12.9438C7.98125 12.3563 7.03125 12.3563 6.45 12.9438C5.86875 13.5312 5.8625 14.4812 6.45 15.0625L14.9375 23.5625Z"/>
</svg>
