<svg height="1em" width="1em" fill="currentColor" viewBox="0 0 32 32" xmlns="http://www.w3.org/2000/svg">
<path d="M2 5.5C2 4.66875 2.66875 4 3.5 4H28.5C29.3312 4 30 4.66875 30 5.5C30 6.33125 29.3312 7 28.5 7H3.5C2.66875 7 2 6.33125 2 5.5ZM2 16C2 15.1687 2.66875 14.5 3.5 14.5H28.5C29.3312 14.5 30 15.1687 30 16C30 16.8313 29.3312 17.5 28.5 17.5H3.5C2.66875 17.5 2 16.8313 2 16ZM30 26.5C30 27.3312 29.3312 28 28.5 28H3.5C2.66875 28 2 27.3312 2 26.5C2 25.6688 2.66875 25 3.5 25H28.5C29.3312 25 30 25.6688 30 26.5Z"/>
</svg>
