<svg height="1em" width="1em" fill="currentColor" viewBox="0 0 32 32" xmlns="http://www.w3.org/2000/svg">
<g clip-path="url(#clip0_104_2523)">
<path d="M16 0.00625C15.1687 0.00625 14.5 0.675 14.5 1.50625V2.1125C9.4125 2.8375 5.5 7.21875 5.5 12.5063V13.4125C5.5 15.7688 4.875 18.0812 3.6875 20.1187L2.31875 22.4563C2.1125 22.8188 2 23.225 2 23.6438C2 24.95 3.05625 26.0063 4.3625 26.0063H27.6375C28.9438 26.0063 30 24.95 30 23.6438C30 23.225 29.8875 22.8125 29.6812 22.4563L28.3125 20.1125C27.125 18.075 26.5 15.7625 26.5 13.4062V12.5C26.5 7.2125 22.5875 2.83125 17.5 2.10625V1.5C17.5 0.66875 16.8313 0 16 0V0.00625ZM26.525 23.0063H5.46875L6.275 21.625C7.73125 19.1313 8.5 16.2938 8.5 13.4125V12.5063C8.5 8.3625 11.8562 5.00625 16 5.00625C20.1437 5.00625 23.5 8.3625 23.5 12.5063V13.4125C23.5 16.3 24.2687 19.1313 25.7188 21.625L26.525 23.0063ZM11.7563 29.0063C12.375 30.7563 14.0437 32.0062 16 32.0062C17.9563 32.0062 19.625 30.7563 20.2437 29.0063H11.7563Z"/>
</g>
<defs>
<clipPath id="clip0_104_2523">
<rect width="32" height="32"/>
</clipPath>
</defs>
</svg>
