<svg height="1em" width="1em" fill="currentColor" viewBox="0 0 32 32" xmlns="http://www.w3.org/2000/svg">
<path d="M9.5 0C10.3313 0 11 0.66875 11 1.5V4H21V1.5C21 0.66875 21.6688 0 22.5 0C23.3312 0 24 0.66875 24 1.5V4H26C28.2062 4 30 5.79375 30 8V26C30 28.2062 28.2062 30 26 30H6C3.79375 30 2 28.2062 2 26V8C2 5.79375 3.79375 4 6 4H8V1.5C8 0.66875 8.66875 0 9.5 0ZM26 27C26.55 27 27 26.55 27 26V22H21.5V27H26ZM27 19V14H21.5V19H27ZM18.5 19V14H13.5V19H18.5ZM10.5 19V14H5V19H10.5ZM5 22V26C5 26.55 5.45 27 6 27H10.5V22H5ZM13.5 22V27H18.5V22H13.5ZM9.5 7H6C5.45 7 5 7.45 5 8V11H27V8C27 7.45 26.55 7 26 7H9.5Z"/>
</svg>
