<svg height="1em" width="1em" fill="currentColor" viewBox="0 0 32 32" xmlns="http://www.w3.org/2000/svg">
<path d="M12.0688 2C10.9 2 9.80625 2.5875 9.15625 3.55625L7.53125 6H4C1.79375 6 0 7.79375 0 10V26C0 28.2062 1.79375 30 4 30H28C30.2062 30 32 28.2062 32 26V10C32 7.79375 30.2062 6 28 6H24.4688L22.8438 3.55625C22.1938 2.5875 21.1 2 19.9312 2H12.0688ZM11.65 5.225C11.7437 5.0875 11.9 5 12.0688 5H19.925C20.0938 5 20.25 5.08125 20.3438 5.225L22.4188 8.3375C22.7 8.75625 23.1625 9.00625 23.6688 9.00625H28C28.55 9.00625 29 9.45625 29 10.0063V26.0063C29 26.5562 28.55 27.0063 28 27.0063L4 27C3.45 27 3 26.55 3 26V10C3 9.45 3.45 9 4 9H8.33125C8.83125 9 9.3 8.75 9.58125 8.33125L11.6562 5.21875L11.65 5.225ZM16 24C17.8565 24 19.637 23.2625 20.9497 21.9497C22.2625 20.637 23 18.8565 23 17C23 15.1435 22.2625 13.363 20.9497 12.0503C19.637 10.7375 17.8565 10 16 10C14.1435 10 12.363 10.7375 11.0503 12.0503C9.7375 13.363 9 15.1435 9 17C9 18.8565 9.7375 20.637 11.0503 21.9497C12.363 23.2625 14.1435 24 16 24ZM12 17C12 15.9391 12.4214 14.9217 13.1716 14.1716C13.9217 13.4214 14.9391 13 16 13C17.0609 13 18.0783 13.4214 18.8284 14.1716C19.5786 14.9217 20 15.9391 20 17C20 18.0609 19.5786 19.0783 18.8284 19.8284C18.0783 20.5786 17.0609 21 16 21C14.9391 21 13.9217 20.5786 13.1716 19.8284C12.4214 19.0783 12 18.0609 12 17Z"/>
</svg>
