<svg height="1em" width="1em" fill="currentColor" viewBox="0 0 32 32" xmlns="http://www.w3.org/2000/svg">
<path d="M0 2.36364C0 1.60795 0.606318 1 1.35997 1H3.9269C5.46253 1 6.77716 2.10227 7.04915 3.61364L7.07182 3.72727H29.7322C31.1545 3.72727 32.2255 5.02841 31.9592 6.43182L30.4632 14.2159C30.0099 16.5682 27.9586 18.2727 25.5674 18.2727H9.71242L10.0014 19.8807C10.1204 20.5284 10.6814 21 11.3387 21H25.8393C26.593 21 27.1993 21.608 27.1993 22.3636C27.1993 23.1193 26.593 23.7273 25.8393 23.7273H11.3387C9.36676 23.7273 7.67814 22.3125 7.32681 20.3693L4.37456 4.10227C4.33489 3.88636 4.14789 3.72727 3.9269 3.72727H1.35997C0.606318 3.72727 0 3.11932 0 2.36364ZM9.21377 15.5455H25.5674C26.6553 15.5455 27.5903 14.7727 27.7943 13.7045L29.1769 6.45455H7.56481L9.21377 15.5455ZM11.7864 25.5455C12.5077 25.5455 13.1996 25.8328 13.7096 26.3443C14.2197 26.8557 14.5063 27.5494 14.5063 28.2727C14.5063 28.996 14.2197 29.6897 13.7096 30.2012C13.1996 30.7127 12.5077 31 11.7864 31C11.065 31 10.3732 30.7127 9.86308 30.2012C9.353 29.6897 9.06644 28.996 9.06644 28.2727C9.06644 27.5494 9.353 26.8557 9.86308 26.3443C10.3732 25.8328 11.065 25.5455 11.7864 25.5455ZM24.4794 25.5455C25.2007 25.5455 25.8926 25.8328 26.4027 26.3443C26.9127 26.8557 27.1993 27.5494 27.1993 28.2727C27.1993 28.996 26.9127 29.6897 26.4027 30.2012C25.8926 30.7127 25.2007 31 24.4794 31C23.758 31 23.0662 30.7127 22.5561 30.2012C22.046 29.6897 21.7594 28.996 21.7594 28.2727C21.7594 27.5494 22.046 26.8557 22.5561 26.3443C23.0662 25.8328 23.758 25.5455 24.4794 25.5455Z"/>
</svg>
