<svg height="1em" width="1em" fill="currentColor" viewBox="0 0 32 32" xmlns="http://www.w3.org/2000/svg">
<g clip-path="url(#clip0_138_1436)">
<path d="M16 29C12.5522 29 9.24558 27.6304 6.80761 25.1924C4.36964 22.7544 3 19.4478 3 16C3 12.5522 4.36964 9.24558 6.80761 6.80761C9.24558 4.36964 12.5522 3 16 3C19.4478 3 22.7544 4.36964 25.1924 6.80761C27.6304 9.24558 29 12.5522 29 16C29 19.4478 27.6304 22.7544 25.1924 25.1924C22.7544 27.6304 19.4478 29 16 29ZM16 0C11.7565 0 7.68687 1.68571 4.68629 4.68629C1.68571 7.68687 0 11.7565 0 16C0 20.2435 1.68571 24.3131 4.68629 27.3137C7.68687 30.3143 11.7565 32 16 32C20.2435 32 24.3131 30.3143 27.3137 27.3137C30.3143 24.3131 32 20.2435 32 16C32 11.7565 30.3143 7.68687 27.3137 4.68629C24.3131 1.68571 20.2435 0 16 0ZM15.2937 24.2062C15.6812 24.5938 16.3187 24.5938 16.7062 24.2062L23.2062 17.7062C23.4937 17.4187 23.575 16.9875 23.425 16.6187C23.275 16.25 22.9062 16 22.5 16H18V9.5C18 8.66875 17.3312 8 16.5 8H15.5C14.6687 8 14 8.66875 14 9.5V16H9.5C9.09375 16 8.73125 16.2437 8.575 16.6187C8.41875 16.9937 8.50625 17.425 8.79375 17.7062L15.2937 24.2062Z"/>
</g>
<defs>
<clipPath id="clip0_138_1436">
<rect width="32" height="32"/>
</clipPath>
</defs>
</svg>
