<svg height="1em" width="1em" fill="currentColor" viewBox="0 0 32 32" xmlns="http://www.w3.org/2000/svg">
<g clip-path="url(#clip0_104_2433)">
<path d="M25.4062 24.975C24.2125 22.0562 21.3438 20 18 20H14C10.6562 20 7.7875 22.0562 6.59375 24.975C4.36875 22.6438 3 19.4813 3 16C3 8.81875 8.81875 3 16 3C23.1812 3 29 8.81875 29 16C29 19.4813 27.6313 22.6375 25.4062 24.975ZM22.9 27.0187C20.9 28.275 18.5375 29 16 29C13.4625 29 11.1 28.275 9.09375 27.0187C9.55 24.725 11.575 23 14 23H18C20.425 23 22.45 24.725 22.9062 27.0187H22.9ZM16 32C20.2435 32 24.3131 30.3143 27.3137 27.3137C30.3143 24.3131 32 20.2435 32 16C32 11.7565 30.3143 7.68687 27.3137 4.68629C24.3131 1.68571 20.2435 0 16 0C11.7565 0 7.68687 1.68571 4.68629 4.68629C1.68571 7.68687 0 11.7565 0 16C0 20.2435 1.68571 24.3131 4.68629 27.3137C7.68687 30.3143 11.7565 32 16 32ZM16 15C15.337 15 14.7011 14.7366 14.2322 14.2678C13.7634 13.7989 13.5 13.163 13.5 12.5C13.5 11.837 13.7634 11.2011 14.2322 10.7322C14.7011 10.2634 15.337 10 16 10C16.663 10 17.2989 10.2634 17.7678 10.7322C18.2366 11.2011 18.5 11.837 18.5 12.5C18.5 13.163 18.2366 13.7989 17.7678 14.2678C17.2989 14.7366 16.663 15 16 15ZM10.5 12.5C10.5 13.9587 11.0795 15.3576 12.1109 16.3891C13.1424 17.4205 14.5413 18 16 18C17.4587 18 18.8576 17.4205 19.8891 16.3891C20.9205 15.3576 21.5 13.9587 21.5 12.5C21.5 11.0413 20.9205 9.64236 19.8891 8.61091C18.8576 7.57946 17.4587 7 16 7C14.5413 7 13.1424 7.57946 12.1109 8.61091C11.0795 9.64236 10.5 11.0413 10.5 12.5Z"/>
</g>
<defs>
<clipPath id="clip0_104_2433">
<rect width="32" height="32"/>
</clipPath>
</defs>
</svg>
