<svg height="1em" width="1em" fill="currentColor" viewBox="0 0 32 32" xmlns="http://www.w3.org/2000/svg">
<g clip-path="url(#clip0_138_1411)">
<path d="M16 32C11.7565 32 7.68687 30.3143 4.68629 27.3137C1.68571 24.3131 0 20.2435 0 16C0 11.7565 1.68571 7.68687 4.68629 4.68629C7.68687 1.68571 11.7565 0 16 0C20.2435 0 24.3131 1.68571 27.3137 4.68629C30.3143 7.68687 32 11.7565 32 16C32 20.2435 30.3143 24.3131 27.3137 27.3137C24.3131 30.3143 20.2435 32 16 32ZM16 3C12.5522 3 9.24558 4.36964 6.80761 6.80761C4.36964 9.24558 3 12.5522 3 16C3 19.4478 4.36964 22.7544 6.80761 25.1924C9.24558 27.6304 12.5522 29 16 29C19.4478 29 22.7544 27.6304 25.1924 25.1924C27.6304 22.7544 29 19.4478 29 16C29 12.5522 27.6304 9.24558 25.1924 6.80761C22.7544 4.36964 19.4478 3 16 3ZM16 24C15.4696 24 14.9609 23.7893 14.5858 23.4142C14.2107 23.0391 14 22.5304 14 22C14 21.4696 14.2107 20.9609 14.5858 20.5858C14.9609 20.2107 15.4696 20 16 20C16.5304 20 17.0391 20.2107 17.4142 20.5858C17.7893 20.9609 18 21.4696 18 22C18 22.5304 17.7893 23.0391 17.4142 23.4142C17.0391 23.7893 16.5304 24 16 24ZM16 8C17.1375 8 18.0437 8.96875 17.9625 10.1062L17.5 16.6063C17.4438 17.3938 16.7875 18 16.0063 18C15.2188 18 14.5687 17.3938 14.5125 16.6063L14.05 10.1062C13.9563 8.96875 14.8625 8 16 8Z"/>
</g>
<defs>
<clipPath id="clip0_138_1411">
<rect width="32" height="32"/>
</clipPath>
</defs>
</svg>
