<svg height="1em" width="1em" fill="currentColor" viewBox="0 0 32 32" xmlns="http://www.w3.org/2000/svg">
<path d="M18.5 6H13.5C12.6687 6 12 5.33125 12 4.5C12 3.66875 12.6687 3 13.5 3H18.5C19.3313 3 20 3.66875 20 4.5C20 5.33125 19.3313 6 18.5 6ZM18.5 9C20.8188 9 22.725 7.25 22.975 5H24C24.55 5 25 5.45 25 6V28C25 28.55 24.55 29 24 29H8C7.45 29 7 28.55 7 28V6C7 5.45 7.45 5 8 5H9.025C9.275 7.25 11.1813 9 13.5 9H18.5ZM22.2437 2C21.4375 0.79375 20.0625 0 18.5 0H13.5C11.9375 0 10.5625 0.79375 9.75625 2H8C5.79375 2 4 3.79375 4 6V28C4 30.2062 5.79375 32 8 32H24C26.2062 32 28 30.2062 28 28V6C28 3.79375 26.2062 2 24 2H22.2437Z"/>
</svg>
