<svg height="1em" width="1em" fill="currentColor" viewBox="0 0 32 32" xmlns="http://www.w3.org/2000/svg">
<path d="M13.3333 3C8.42222 3 4.44444 6.99554 4.44444 11.9286C4.44444 12.202 4.45556 12.4754 4.48333 12.7433C1.82778 14.0491 0 16.7891 0 19.9643C0 24.4007 3.58333 28 8 28H24.8889C28.8167 28 32 24.8025 32 20.8571C32 18.0725 30.4167 15.6674 28.1056 14.4844C28.3278 13.8203 28.4444 13.1116 28.4444 12.375C28.4444 8.67522 25.4611 5.67857 21.7778 5.67857C21.1389 5.67857 20.5167 5.76786 19.9278 5.94085C18.3 4.13839 15.95 3 13.3333 3ZM7.11111 11.9286C7.11111 8.47433 9.89444 5.67857 13.3333 5.67857C15.4278 5.67857 17.2778 6.71652 18.4056 8.30692C18.7778 8.83705 19.4778 9.0212 20.0611 8.74219C20.5778 8.49665 21.1556 8.35714 21.7722 8.35714C23.9833 8.35714 25.7722 10.154 25.7722 12.375C25.7722 13.1618 25.55 13.8929 25.1611 14.5123C24.9333 14.875 24.8944 15.327 25.05 15.7232C25.2056 16.1194 25.55 16.4208 25.9667 16.5212C27.9 17.0067 29.3278 18.7645 29.3278 20.8516C29.3278 23.3181 27.3389 25.3158 24.8833 25.3158H7.99444C5.05 25.3158 2.66111 22.9163 2.66111 19.9587C2.66111 17.5759 4.21111 15.5502 6.36111 14.8583C7.01667 14.6462 7.40556 13.9654 7.25556 13.2902C7.15556 12.8493 7.10556 12.3917 7.10556 11.923L7.11111 11.9286ZM16.9444 12.3192C16.4222 11.7946 15.5778 11.7946 15.0611 12.3192L11.5056 15.8906C10.9833 16.4152 10.9833 17.2634 11.5056 17.7824C12.0278 18.3013 12.8722 18.3069 13.3889 17.7824L14.6667 16.4989V21.3036C14.6667 22.0458 15.2611 22.6429 16 22.6429C16.7389 22.6429 17.3333 22.0458 17.3333 21.3036V16.4989L18.6111 17.7824C19.1333 18.3069 19.9778 18.3069 20.4944 17.7824C21.0111 17.2578 21.0167 16.4096 20.4944 15.8906L16.9389 12.3192H16.9444Z"/>
</svg>
