<svg height="1em" width="1em" fill="currentColor" viewBox="0 0 32 32" xmlns="http://www.w3.org/2000/svg">
<path d="M4.44444 11.9286C4.44444 6.99554 8.42222 3 13.3333 3C15.95 3 18.3 4.13839 19.9278 5.94085C20.5167 5.76786 21.1389 5.67857 21.7778 5.67857C25.4611 5.67857 28.4444 8.67522 28.4444 12.375C28.4444 13.1116 28.3278 13.8203 28.1056 14.4844C30.4167 15.6618 32 18.0725 32 20.8571C32 24.8025 28.8167 28 24.8889 28H8C3.58333 28 0 24.4007 0 19.9643C0 16.7946 1.82778 14.0547 4.48333 12.7433C4.46111 12.4754 4.44444 12.202 4.44444 11.9286ZM13.3333 5.67857C9.89444 5.67857 7.11111 8.47433 7.11111 11.9286C7.11111 12.3973 7.16111 12.8549 7.26111 13.2958C7.41111 13.971 7.02222 14.6518 6.36667 14.8638C4.21667 15.5558 2.66667 17.5815 2.66667 19.9643C2.66667 22.9219 5.05556 25.3214 8 25.3214H24.8889C27.3444 25.3214 29.3333 23.3237 29.3333 20.8571C29.3333 18.7701 27.9056 17.0123 25.9722 16.5268C25.5556 16.4208 25.2167 16.125 25.0556 15.7288C24.8944 15.3326 24.9389 14.8806 25.1667 14.5179C25.5556 13.8984 25.7778 13.1674 25.7778 12.3806C25.7778 10.1596 23.9889 8.36272 21.7778 8.36272C21.1611 8.36272 20.5833 8.50223 20.0667 8.74777C19.4833 9.02679 18.7833 8.84263 18.4111 8.3125C17.2833 6.71652 15.4278 5.68415 13.3389 5.68415L13.3333 5.67857Z"/>
</svg>
