<svg height="1em" width="1em" fill="currentColor" viewBox="0 0 32 32" xmlns="http://www.w3.org/2000/svg">
<path d="M18.7273 2.92312C18.9439 2.22853 19.6938 1.84568 20.3937 2.05898C21.0936 2.27228 21.4879 3.01062 21.2713 3.69974L13.2727 29.0769C13.0561 29.7715 12.3062 30.1543 11.6063 29.941C10.9064 29.7277 10.5121 28.9894 10.7287 28.3003L18.7273 2.92312ZM8.05694 9.38225C8.57907 9.89636 8.57907 10.7277 8.05694 11.2363L3.22444 15.9945L8.05694 20.7527C8.57907 21.2668 8.57907 22.0982 8.05694 22.6068C7.5348 23.1154 6.69051 23.1209 6.17393 22.6068L0.391599 16.9298C-0.130533 16.4157 -0.130533 15.5843 0.391599 15.0757L6.16837 9.38225C6.69051 8.86815 7.5348 8.86815 8.05138 9.38225H8.05694ZM23.9431 9.38225C24.4652 8.86815 25.3095 8.86815 25.8261 9.38225L31.6084 15.0702C32.1305 15.5843 32.1305 16.4157 31.6084 16.9243L25.8316 22.6177C25.3095 23.1319 24.4652 23.1319 23.9486 22.6177C23.432 22.1036 23.4265 21.2723 23.9486 20.7637L28.7811 16.0055L23.9486 11.2473C23.4265 10.7331 23.4265 9.90183 23.9486 9.39319L23.9431 9.38225Z"/>
</svg>
