<svg height="1em" width="1em" fill="currentColor" viewBox="0 0 32 32" xmlns="http://www.w3.org/2000/svg">
<g clip-path="url(#clip0_104_2521)">
<path d="M3.24375 24.0562C1.20625 21.5375 0 18.4 0 15C0 6.71875 7.1625 0 16 0C24.8375 0 32 6.71875 32 15C32 23.2812 24.8375 30 16 30C13.7188 30 11.55 29.55 9.5875 28.75L2.3125 31.8687C2.08125 31.9688 1.84375 32 1.59375 32C0.7125 32 0 31.2875 0 30.4062C0 30.1375 0.06875 29.875 0.19375 29.6437L3.24375 24.0562ZM5.575 22.1688C6.3375 23.1125 6.45625 24.425 5.875 25.4937L4.75 27.5625L8.40625 25.9937C9.14375 25.675 9.98125 25.6688 10.725 25.975C12.3313 26.6313 14.1125 27 15.9937 27C23.3563 27 28.9937 21.45 28.9937 15C28.9937 8.55 23.3625 3 16 3C8.6375 3 3 8.55 3 15C3 17.675 3.94375 20.15 5.575 22.1688Z"/>
</g>
<defs>
<clipPath id="clip0_104_2521">
<rect width="32" height="32"/>
</clipPath>
</defs>
</svg>
