<svg height="1em" width="1em" fill="currentColor" viewBox="0 0 32 32" xmlns="http://www.w3.org/2000/svg">
<g clip-path="url(#clip0_138_1435)">
<path d="M4.2326 16.15C4.57143 15.3056 4.45478 14.3389 3.92154 13.6C3.11613 12.4833 2.6662 11.1722 2.6662 9.77778C2.6662 6.06667 6.02673 2.66667 10.6648 2.66667C15.3029 2.66667 18.6634 6.06667 18.6634 9.77778C18.6634 13.4889 15.3029 16.8889 10.6648 16.8889C9.78164 16.8889 8.93734 16.7611 8.14859 16.5278C7.57646 16.3556 6.9599 16.3889 6.40444 16.6111L3.60493 17.7333L4.23815 16.15H4.2326ZM0 9.77778C0 11.7667 0.644333 13.6167 1.76081 15.1556L0.105537 19.2889C0.0333275 19.4667 0 19.6556 0 19.8444C0 20.6667 0.666551 21.3333 1.48863 21.3333C1.67749 21.3333 1.86634 21.2944 2.04409 21.2278L7.39316 19.0889C8.42632 19.3944 9.52612 19.5556 10.6648 19.5556C16.5527 19.5556 21.3296 15.1778 21.3296 9.77778C21.3296 4.37778 16.5527 0 10.6648 0C4.77695 0 0 4.37778 0 9.77778ZM21.3296 30.2222C22.4739 30.2222 23.5681 30.0556 24.6013 29.7556L29.9504 31.8944C30.1281 31.9667 30.317 32 30.5058 32C31.3279 32 31.9944 31.3333 31.9944 30.5111C31.9944 30.3222 31.9556 30.1333 31.8889 29.9556L30.2392 25.8222C31.3501 24.2778 32 22.4278 32 20.4444C32 15.8667 28.5728 12.0278 23.9458 10.9611C23.857 11.8667 23.6626 12.7333 23.3848 13.5667C26.9342 14.3889 29.3394 17.3056 29.3394 20.45C29.3394 21.8444 28.8894 23.1556 28.084 24.2722C27.5508 25.0111 27.4341 25.9722 27.773 26.8222L28.4062 28.4056L25.6067 27.2833C25.0512 27.0611 24.4346 27.0333 23.8625 27.2C23.0738 27.4333 22.2295 27.5611 21.3463 27.5611C17.3359 27.5611 14.2864 25.0222 13.531 21.9389C12.6645 22.1167 11.7702 22.2167 10.8592 22.2278C11.7702 26.7778 16.1194 30.2278 21.3463 30.2278L21.3296 30.2222Z"/>
</g>
<defs>
<clipPath id="clip0_138_1435">
<rect width="32" height="32"/>
</clipPath>
</defs>
</svg>
