<svg height="1em" width="1em" fill="currentColor" viewBox="0 0 32 32" xmlns="http://www.w3.org/2000/svg">
<path d="M17.5 2.5C17.5 1.66875 16.8313 1 16 1C15.1687 1 14.5 1.66875 14.5 2.5V17.8813L10.5625 13.9438C9.975 13.3563 9.025 13.3563 8.44375 13.9438C7.8625 14.5312 7.85625 15.4812 8.44375 16.0625L14.9375 22.5625C15.525 23.15 16.475 23.15 17.0562 22.5625L23.5625 16.0625C24.15 15.475 24.15 14.525 23.5625 13.9438C22.975 13.3625 22.025 13.3563 21.4438 13.9438L17.5063 17.8813V2.5H17.5ZM6.1375 18H6C3.79375 18 2 19.7938 2 22V27C2 29.2062 3.79375 31 6 31H26C28.2062 31 30 29.2062 30 27V22C30 19.7938 28.2062 18 26 18H25.8625L22.8625 21H26C26.55 21 27 21.45 27 22V27C27 27.55 26.55 28 26 28H6C5.45 28 5 27.55 5 27V22C5 21.45 5.45 21 6 21H9.1375L6.1375 18ZM25 24.5C25 24.1022 24.842 23.7206 24.5607 23.4393C24.2794 23.158 23.8978 23 23.5 23C23.1022 23 22.7206 23.158 22.4393 23.4393C22.158 23.7206 22 24.1022 22 24.5C22 24.8978 22.158 25.2794 22.4393 25.5607C22.7206 25.842 23.1022 26 23.5 26C23.8978 26 24.2794 25.842 24.5607 25.5607C24.842 25.2794 25 24.8978 25 24.5Z"/>
</svg>
