<svg height="1em" width="1em" fill="currentColor" viewBox="0 0 32 32" xmlns="http://www.w3.org/2000/svg">
<g clip-path="url(#clip0_138_1410)">
<path d="M16 29C8.81875 29 3 23.1812 3 16C3 14.625 3.2125 13.3062 3.60625 12.0625L4.19375 13.0875C4.7125 13.9937 5.5625 14.6625 6.56875 14.95L10.1875 15.9812C11.2625 16.2875 12 17.2688 12 18.3875V20.8813C12 21.5688 12.3875 22.1938 13 22.5C13.6125 22.8062 14 23.4312 14 24.1187V26.0187C14 27.0125 14.95 27.725 15.9062 27.4562C16.9 27.175 17.675 26.3937 17.9562 25.4062L18.05 25.0688C18.3375 24.0625 19.0063 23.2125 19.9125 22.6938L20.4875 22.3625C21.425 21.8312 22 20.8313 22 19.7563V19.2375C22 18.4437 21.6812 17.6812 21.1187 17.1187L20.875 16.875C20.3125 16.3125 19.55 15.9937 18.7563 15.9937L16.0625 16C15.3687 16 14.6812 15.8188 14.075 15.475L11.9187 14.2437C11.65 14.0875 11.4438 13.8375 11.3438 13.5437C11.1438 12.9437 11.4125 12.2937 11.9812 12.0125L12.35 11.825C12.7625 11.6187 13.2437 11.5813 13.6812 11.7312L15.1313 12.2125C15.6438 12.3812 16.2062 12.1875 16.5 11.7437C16.7938 11.3062 16.7625 10.725 16.425 10.3188L15.575 9.3C14.95 8.55 14.9563 7.45625 15.5938 6.71875L16.575 5.575C17.125 4.93125 17.2125 4.0125 16.7938 3.28125L16.6437 3.01875C21.2437 3.24375 25.2188 5.86875 27.3438 9.6625L25.75 10.3C24.7687 10.6938 24.2625 11.7875 24.5938 12.7875L25.65 15.9563C25.8687 16.6063 26.4 17.1 27.0625 17.2625L28.8813 17.7188C28.0438 24.0875 22.5938 29 16 29ZM16 32C20.2435 32 24.3131 30.3143 27.3137 27.3137C30.3143 24.3131 32 20.2435 32 16C32 11.7565 30.3143 7.68687 27.3137 4.68629C24.3131 1.68571 20.2435 0 16 0C11.7565 0 7.68687 1.68571 4.68629 4.68629C1.68571 7.68687 0 11.7565 0 16C0 20.2435 1.68571 24.3131 4.68629 27.3137C7.68687 30.3143 11.7565 32 16 32Z"/>
</g>
<defs>
<clipPath id="clip0_138_1410">
<rect width="32" height="32"/>
</clipPath>
</defs>
</svg>
