<svg height="1em" width="1em" fill="currentColor" viewBox="0 0 32 32" xmlns="http://www.w3.org/2000/svg">
<path d="M8.88889 5.67857H28.4444C28.9333 5.67857 29.3333 6.08036 29.3333 6.57143C29.3333 6.7221 29.2667 6.86161 29.1444 6.95647L20.0333 14.077C19.2333 14.702 18.1056 14.702 17.3056 14.077L8.18889 6.95647C8.07222 6.86161 8 6.7221 8 6.57143C8 6.08036 8.4 5.67857 8.88889 5.67857ZM29.3333 10.2042V19.0714C29.3333 19.5625 28.9333 19.9643 28.4444 19.9643H8.88889C8.4 19.9643 8 19.5625 8 19.0714V10.2042L15.6667 16.192C17.4333 17.5703 19.9056 17.5703 21.6722 16.192L29.3333 10.2042ZM5.33333 6.57143V19.0714C5.33333 21.0413 6.92778 22.6429 8.88889 22.6429H28.4444C30.4056 22.6429 32 21.0413 32 19.0714V6.57143C32 4.60156 30.4056 3 28.4444 3H8.88889C6.92778 3 5.33333 4.60156 5.33333 6.57143ZM1.33333 8.35714C0.594444 8.35714 0 8.95424 0 9.69643V24.4286C0 26.3984 1.59444 28 3.55556 28H25.3333C26.0722 28 26.6667 27.4029 26.6667 26.6607C26.6667 25.9185 26.0722 25.3214 25.3333 25.3214H3.55556C3.06667 25.3214 2.66667 24.9196 2.66667 24.4286V9.69643C2.66667 8.95424 2.07222 8.35714 1.33333 8.35714Z"/>
</svg>
