<svg height="1em" width="1em" fill="currentColor" viewBox="0 0 32 32" xmlns="http://www.w3.org/2000/svg">
<path d="M3.8375 4C1.71875 4 0 5.71875 0 7.8375C0 7.89375 0 7.94375 0.00625 8H0V24C0 26.2062 1.79375 28 4 28H28C30.2062 28 32 26.2062 32 24V8H31.9937C31.9937 7.94375 32 7.89375 32 7.8375C32 5.71875 30.2812 4 28.1625 4H3.8375ZM29 12.0188V24C29 24.55 28.55 25 28 25H4C3.45 25 3 24.55 3 24V12.0188L12.675 19.3563C14.6375 20.85 17.3563 20.85 19.325 19.3563L29 12.0188ZM3 7.8375C3 7.375 3.375 7 3.8375 7H28.1625C28.625 7 29 7.375 29 7.8375C29 8.1 28.875 8.35 28.6688 8.50625L17.5125 16.9688C16.6188 17.6438 15.3813 17.6438 14.4875 16.9688L3.33125 8.50625C3.125 8.35 3 8.1 3 7.8375Z"/>
</svg>
