<svg height="1em" width="1em" fill="currentColor" viewBox="0 0 32 32" xmlns="http://www.w3.org/2000/svg">
<g clip-path="url(#clip0_138_1409)">
<path d="M2.27659 0.391599C1.75432 -0.130533 0.909801 -0.130533 0.39309 0.391599C-0.123622 0.91373 -0.129178 1.75803 0.387534 2.28016L29.7234 31.6084C30.2457 32.1305 31.0902 32.1305 31.6069 31.6084C32.1236 31.0863 32.1292 30.242 31.6069 29.7254L26.2509 24.3708C26.4009 24.2375 26.5509 24.1042 26.6954 23.9708C29.2956 21.5546 31.0346 18.6718 31.8625 16.6888C32.0458 16.25 32.0458 15.7612 31.8625 15.3223C31.0346 13.3394 29.2956 10.451 26.6954 8.04027C24.0785 5.61291 20.4837 3.56327 15.9944 3.56327C12.8386 3.56327 10.1273 4.57421 7.88263 6.0184L2.27659 0.391599ZM9.82724 7.94584C11.6107 6.89603 13.672 6.21837 16 6.21837C19.6225 6.21837 22.6006 7.86252 24.8841 9.97882C27.0232 11.9618 28.5011 14.3281 29.2511 15.9944C28.4955 17.6608 27.0176 20.0215 24.8841 22.0101C24.7119 22.1656 24.5396 22.3211 24.3618 22.4767L21.8783 19.9938C22.6561 18.8551 23.1117 17.4775 23.1117 15.9944C23.1117 12.0674 19.9281 8.88457 16 8.88457C14.5165 8.88457 13.1386 9.34004 11.9997 10.1177L9.82724 7.94584ZM19.9392 18.0552L13.9387 12.0562C14.5554 11.7341 15.2555 11.5508 16 11.5508C18.4558 11.5508 20.4448 13.5393 20.4448 15.9944C20.4448 16.7388 20.2615 17.4386 19.9392 18.0552ZM5.74355 11.3952L3.8545 9.50668C2.04323 11.5508 0.79868 13.7171 0.137512 15.3112C-0.0458373 15.75 -0.0458373 16.2388 0.137512 16.6777C0.965362 18.6607 2.7044 21.549 5.30463 23.9597C7.92152 26.3871 11.5163 28.4367 16.0056 28.4367C18.078 28.4367 19.9615 27.9979 21.6449 27.2925L19.567 25.2151C18.4558 25.5706 17.2668 25.7705 16 25.7705C12.3775 25.7705 9.39943 24.1264 7.1159 22.0101C4.97682 20.0271 3.49891 17.6608 2.74885 15.9944C3.32668 14.7113 4.33788 13.0172 5.74911 11.3952H5.74355Z"/>
</g>
<defs>
<clipPath id="clip0_138_1409">
<rect width="32" height="32"/>
</clipPath>
</defs>
</svg>
