<svg height="1em" width="1em" fill="currentColor" viewBox="0 0 32 32" xmlns="http://www.w3.org/2000/svg">
<path d="M16 5.67857C12.3787 5.67857 9.40172 7.33036 7.11898 9.45647C4.98065 11.4542 3.50325 13.8259 2.7479 15.5C3.50325 17.1741 4.98065 19.5458 7.11898 21.5435C9.40172 23.6696 12.3787 25.3214 16 25.3214C19.6213 25.3214 22.5983 23.6696 24.881 21.5435C27.0194 19.5458 28.4967 17.1741 29.2521 15.5C28.4967 13.8259 27.0194 11.4542 24.881 9.45647C22.5983 7.33036 19.6213 5.67857 16 5.67857ZM5.30279 7.49777C7.91877 5.05357 11.5123 3 16 3C20.4877 3 24.0812 5.05357 26.6972 7.49777C29.2965 9.92522 31.035 12.8214 31.8625 14.8136C32.0458 15.2545 32.0458 15.7455 31.8625 16.1864C31.035 18.1786 29.2965 21.0804 26.6972 23.5022C24.0812 25.9408 20.4877 28 16 28C11.5123 28 7.91877 25.9464 5.30279 23.5022C2.70346 21.0748 0.965026 18.1786 0.137464 16.1864C-0.0458214 15.7455 -0.0458214 15.2545 0.137464 14.8136C0.965026 12.8214 2.70346 9.91964 5.30279 7.49777ZM16 19.9643C18.4549 19.9643 20.4433 17.9665 20.4433 15.5C20.4433 13.8482 19.5491 12.4029 18.2216 11.6328C18.1439 14.9643 15.4668 17.654 12.151 17.7321C12.9175 19.0658 14.356 19.9643 16 19.9643ZM11.5789 15.0312C11.7178 15.048 11.8566 15.0536 12.001 15.0536C13.9616 15.0536 15.5557 13.452 15.5557 11.4821C15.5557 11.3371 15.5446 11.1975 15.5335 11.058C13.4562 11.2757 11.8011 12.9386 11.5845 15.0257L11.5789 15.0312ZM14.1116 8.61384C14.7114 8.44643 15.3446 8.36272 15.9944 8.36272C16.4832 8.36272 16.9664 8.41295 17.4274 8.50781C17.4441 8.51339 17.4552 8.51339 17.4718 8.51897C20.6877 9.19978 23.1037 12.0737 23.1037 15.5056C23.1037 19.4509 19.9212 22.6484 15.9944 22.6484C12.5731 22.6484 9.7183 20.221 9.0407 16.99C8.94073 16.51 8.88519 16.0134 8.88519 15.5056C8.88519 14.8917 8.96294 14.2891 9.10735 13.7199C9.11846 13.6808 9.12401 13.6473 9.13512 13.6138C9.79606 11.192 11.6956 9.28348 14.106 8.61942L14.1116 8.61384Z"/>
</svg>
