<svg height="1em" width="1em" fill="currentColor" viewBox="0 0 32 32" xmlns="http://www.w3.org/2000/svg">
<g clip-path="url(#clip0_104_2525)">
<path d="M29 16C29 12.5522 27.6304 9.24558 25.1924 6.80761C22.7544 4.36964 19.4478 3 16 3C12.5522 3 9.24558 4.36964 6.80761 6.80761C4.36964 9.24558 3 12.5522 3 16C3 19.4478 4.36964 22.7544 6.80761 25.1924C9.24558 27.6304 12.5522 29 16 29C19.4478 29 22.7544 27.6304 25.1924 25.1924C27.6304 22.7544 29 19.4478 29 16ZM0 16C0 11.7565 1.68571 7.68687 4.68629 4.68629C7.68687 1.68571 11.7565 0 16 0C20.2435 0 24.3131 1.68571 27.3137 4.68629C30.3143 7.68687 32 11.7565 32 16C32 20.2435 30.3143 24.3131 27.3137 27.3137C24.3131 30.3143 20.2435 32 16 32C11.7565 32 7.68687 30.3143 4.68629 27.3137C1.68571 24.3131 0 20.2435 0 16ZM11.0813 19.9625C12.0188 20.9375 13.65 22 16 22C18.35 22 19.9813 20.9375 20.9188 19.9625C21.4938 19.3625 22.4438 19.3438 23.0375 19.9188C23.6313 20.4938 23.6562 21.4438 23.0812 22.0375C21.7 23.475 19.3312 25 16 25C12.6687 25 10.3 23.475 8.91875 22.0375C8.34375 21.4375 8.3625 20.4875 8.9625 19.9188C9.5625 19.35 10.5125 19.3625 11.0813 19.9625ZM9 13C9 12.4696 9.21071 11.9609 9.58579 11.5858C9.96086 11.2107 10.4696 11 11 11C11.5304 11 12.0391 11.2107 12.4142 11.5858C12.7893 11.9609 13 12.4696 13 13C13 13.5304 12.7893 14.0391 12.4142 14.4142C12.0391 14.7893 11.5304 15 11 15C10.4696 15 9.96086 14.7893 9.58579 14.4142C9.21071 14.0391 9 13.5304 9 13ZM21 11C21.5304 11 22.0391 11.2107 22.4142 11.5858C22.7893 11.9609 23 12.4696 23 13C23 13.5304 22.7893 14.0391 22.4142 14.4142C22.0391 14.7893 21.5304 15 21 15C20.4696 15 19.9609 14.7893 19.5858 14.4142C19.2107 14.0391 19 13.5304 19 13C19 12.4696 19.2107 11.9609 19.5858 11.5858C19.9609 11.2107 20.4696 11 21 11Z"/>
</g>
<defs>
<clipPath id="clip0_104_2525">
<rect width="32" height="32"/>
</clipPath>
</defs>
</svg>
