<svg height="1em" width="1em" fill="currentColor" viewBox="0 0 32 32" xmlns="http://www.w3.org/2000/svg">
<path d="M17.8571 2.82353V7.05882C17.8571 9.4 19.7259 11.2941 22.0357 11.2941H26.2143V22.5882C26.2143 23.1059 25.7964 23.5294 25.2857 23.5294H12.2857C11.775 23.5294 11.3571 23.1059 11.3571 22.5882V3.76471C11.3571 3.24706 11.775 2.82353 12.2857 2.82353H17.8571ZM20.6429 3.05294L25.9879 8.47059H22.0357C21.2638 8.47059 20.6429 7.84118 20.6429 7.05882V3.05294ZM12.2857 0C10.2371 0 8.57143 1.68824 8.57143 3.76471V22.5882C8.57143 24.6647 10.2371 26.3529 12.2857 26.3529H25.2857C27.3344 26.3529 29 24.6647 29 22.5882V8.7C29 7.95294 28.704 7.23529 28.1817 6.70588L22.3897 0.829412C21.8674 0.3 21.1594 0 20.4223 0H12.2857ZM4.39286 5.64706C3.62098 5.64706 3 6.27647 3 7.05882V28.2353C3 30.3118 4.66562 32 6.71429 32H22.0357C22.8076 32 23.4286 31.3706 23.4286 30.5882C23.4286 29.8059 22.8076 29.1765 22.0357 29.1765H6.71429C6.20357 29.1765 5.78571 28.7529 5.78571 28.2353V7.05882C5.78571 6.27647 5.16473 5.64706 4.39286 5.64706Z"/>
</svg>
