<svg height="1em" width="1em" fill="currentColor" viewBox="0 0 32 32" xmlns="http://www.w3.org/2000/svg">
<g clip-path="url(#clip0_138_1434)">
<path d="M0 5.85625C0 4.83125 0.83125 4 1.85625 4H30.15C31.175 4 32.0062 4.83125 32.0062 5.85625C32.0062 6.35 31.8125 6.81875 31.4625 7.16875L21 17.6187V30.1437C21 31.1687 20.1687 32 19.1437 32C18.65 32 18.1812 31.8062 17.8312 31.4562L11.4375 25.0625C11.1562 24.7812 11 24.4 11 24V17.6187L0.54375 7.1625C0.19375 6.81875 0 6.34375 0 5.85625ZM4.61875 7L13.5625 15.9375C13.8438 16.2188 14 16.6 14 17V23.3813L18 27.3813V17C18 16.6 18.1562 16.2188 18.4375 15.9375L27.375 7H4.61875Z"/>
</g>
<defs>
<clipPath id="clip0_138_1434">
<rect width="32" height="32"/>
</clipPath>
</defs>
</svg>
