<svg height="1em" width="1em" fill="currentColor" viewBox="0 0 32 32" xmlns="http://www.w3.org/2000/svg">
<path d="M4 25H28C28.55 25 29 24.55 29 24V9C29 8.45 28.55 8 28 8H18.6688C17.5875 8 16.5312 7.65 15.6687 7L13.2688 5.2C13.0938 5.06875 12.8875 5 12.6687 5H4C3.45 5 3 5.45 3 6V24C3 24.55 3.45 25 4 25ZM28 28H4C1.79375 28 0 26.2062 0 24V6C0 3.79375 1.79375 2 4 2H12.6687C13.5312 2 14.375 2.28125 15.0688 2.8L17.4688 4.6C17.8125 4.8625 18.2375 5 18.6688 5H28C30.2062 5 32 6.79375 32 9V24C32 26.2062 30.2062 28 28 28Z"/>
</svg>
