<svg height="1em" width="1em" fill="currentColor" viewBox="0 0 32 32" xmlns="http://www.w3.org/2000/svg">
<path d="M3.84943 25.1154L6.79692 15.5H29.1625L26.215 25.1154H3.84943ZM15.0912 28H26.2209C27.4588 28 28.5553 27.1827 28.9208 25.9748L31.8683 16.3594C32.4401 14.5024 31.0784 12.6154 29.1684 12.6154H6.80281C5.56487 12.6154 4.4684 13.4327 4.10291 14.6406L2.82959 18.7692V6.84615C2.82959 6.31731 3.25403 5.88462 3.77279 5.88462H11.9491C12.1555 5.88462 12.35 5.95072 12.5151 6.07692L14.7787 7.80769C15.5922 8.43269 16.5885 8.76923 17.6083 8.76923H24.5231C25.0419 8.76923 25.4663 9.20192 25.4663 9.73077H28.2959C28.2959 7.60938 26.6041 5.88462 24.5231 5.88462H17.6083C17.2016 5.88462 16.8007 5.7524 16.4765 5.5L14.2128 3.76923C13.5585 3.27043 12.7685 3 11.9491 3H3.77279C1.69186 3 0 4.72476 0 6.84615V24.1538C0 26.2752 1.69186 28 3.77279 28H15.0912Z"/>
</svg>
