<svg height="1em" width="1em" fill="currentColor" viewBox="0 0 32 32" xmlns="http://www.w3.org/2000/svg">
<path d="M13.1104 6.39412L13.8931 2.82353H18.098L18.8807 6.39412C18.9778 6.82941 19.2692 7.19412 19.6691 7.37647C20.2861 7.65882 20.8689 8.00588 21.4059 8.41177C21.7544 8.67647 22.2114 8.75882 22.6285 8.62353L26.0278 7.53529L28.1303 11.2882L25.5136 13.7765C25.1937 14.0824 25.0337 14.5235 25.0794 14.9647C25.1537 15.6412 25.1537 16.3588 25.0794 17.0353C25.0337 17.4824 25.1937 17.9235 25.5136 18.2235L28.1303 20.7118L26.0278 24.4647L22.6285 23.3765C22.2114 23.2412 21.7601 23.3235 21.4059 23.5882C20.8689 23.9941 20.2861 24.3471 19.6691 24.6235C19.2692 24.8059 18.9778 25.1706 18.8807 25.6059L18.098 29.1765H13.8931L13.1104 25.6059C13.0133 25.1706 12.7219 24.8059 12.322 24.6235C11.705 24.3412 11.1222 23.9941 10.5852 23.5882C10.2367 23.3235 9.77962 23.2412 9.36257 23.3765L5.96324 24.4647L3.8608 20.7118L6.47742 18.2235C6.79736 17.9176 6.95733 17.4765 6.91162 17.0353C6.83735 16.3588 6.83735 15.6412 6.91162 14.9647C6.95733 14.5176 6.79736 14.0765 6.47742 13.7765L3.8608 11.2882L5.96324 7.53529L9.36257 8.62353C9.77962 8.75882 10.231 8.67647 10.5852 8.41177C11.1222 8.00588 11.705 7.65294 12.322 7.37647C12.7219 7.19412 13.0133 6.82941 13.1104 6.39412ZM13.5275 0C12.4591 0 11.5336 0.764706 11.2993 1.83529L10.5795 5.10588C10.2195 5.29412 9.87675 5.5 9.53967 5.72353L6.43172 4.72941C5.40906 4.4 4.30643 4.84706 3.7751 5.8L1.30702 10.2C0.775698 11.1529 0.952806 12.3588 1.73551 13.1059L4.12932 15.3824C4.11218 15.7882 4.11218 16.2059 4.12932 16.6176L1.73551 18.8941C0.952806 19.6412 0.769985 20.8471 1.30702 21.8L3.7751 26.2C4.30643 27.1529 5.41478 27.5941 6.43172 27.2706L9.54539 26.2765C9.88246 26.5 10.2253 26.7059 10.5852 26.8941L11.305 30.1647C11.5393 31.2353 12.4648 32 13.5332 32H18.4693C19.5377 32 20.4632 31.2353 20.6975 30.1647L21.4173 26.8941C21.7772 26.7059 22.12 26.5 22.4571 26.2765L25.5708 27.2706C26.5934 27.6 27.6961 27.1529 28.2274 26.2L30.6955 21.8C31.2268 20.8471 31.0497 19.6412 30.267 18.8941L27.8732 16.6176C27.8903 16.2118 27.8903 15.7941 27.8732 15.3824L30.267 13.1059C31.0497 12.3588 31.2268 11.1529 30.6955 10.2L28.2217 5.8C27.6846 4.84706 26.582 4.40588 25.5651 4.72941L22.4514 5.72353C22.1143 5.5 21.7715 5.29412 21.4116 5.10588L20.6975 1.83529C20.4575 0.764706 19.532 0 18.4636 0H13.5275ZM18.7378 16C18.7378 16.7488 18.4489 17.467 17.9346 17.9965C17.4204 18.5261 16.7228 18.8235 15.9955 18.8235C15.2682 18.8235 14.5707 18.5261 14.0564 17.9965C13.5421 17.467 13.2532 16.7488 13.2532 16C13.2532 15.2512 13.5421 14.533 14.0564 14.0035C14.5707 13.4739 15.2682 13.1765 15.9955 13.1765C16.7228 13.1765 17.4204 13.4739 17.9346 14.0035C18.4489 14.533 18.7378 15.2512 18.7378 16ZM15.9955 10.3529C14.5409 10.3529 13.1459 10.9479 12.1173 12.0069C11.0888 13.066 10.5109 14.5023 10.5109 16C10.5109 17.4977 11.0888 18.934 12.1173 19.9931C13.1459 21.0521 14.5409 21.6471 15.9955 21.6471C17.4501 21.6471 18.8452 21.0521 19.8738 19.9931C20.9023 18.934 21.4802 17.4977 21.4802 16C21.4802 14.5023 20.9023 13.066 19.8738 12.0069C18.8452 10.9479 17.4501 10.3529 15.9955 10.3529Z"/>
</svg>
