<svg height="1em" width="1em" fill="currentColor" viewBox="0 0 32 32" xmlns="http://www.w3.org/2000/svg">
<g clip-path="url(#clip0_138_1429)">
<path d="M8.08777 1.38916C8.6317 0.322417 9.84631 -0.221516 11.0028 0.0847766L12.2808 0.428036C13.4373 0.739609 14.2189 1.81691 14.1555 3.01568L14.1027 3.95568C14.2453 4.0877 14.3826 4.22501 14.5146 4.36759L15.4546 4.31478C16.6534 4.25141 17.7307 5.03299 18.0423 6.18951L18.3855 7.46748C18.6971 8.624 18.1532 9.84389 17.0812 10.3825L16.2415 10.8103C16.1992 11.0004 16.1464 11.1905 16.0883 11.3754L16.6006 12.1622C17.2554 13.1656 17.1181 14.4911 16.2679 15.3413L15.3437 16.276C14.4935 17.1263 13.1733 17.2636 12.1646 16.6087L11.3778 16.0965C11.1929 16.1546 11.0028 16.2074 10.8127 16.2496L10.385 17.0893C9.84103 18.156 8.62642 18.7 7.4699 18.3937L6.19192 18.0504C5.0354 17.7388 4.25383 16.6615 4.3172 15.4628L4.37001 14.5228C4.22743 14.3908 4.09012 14.2535 3.9581 14.1109L3.0181 14.1637C1.81933 14.227 0.742027 13.4455 0.430453 12.289L0.087194 11.011C-0.22438 9.85445 0.319554 8.63457 1.39158 8.09591L2.23124 7.66816C2.27349 7.47805 2.3263 7.28793 2.38439 7.1031L1.86686 6.31097C1.21203 5.30759 1.34933 3.98209 2.19956 3.13186L3.13428 2.19714C3.97922 1.34691 5.30473 1.20961 6.31338 1.86444L7.10024 2.37669C7.28507 2.3186 7.47518 2.26579 7.6653 2.22354L8.09305 1.38388L8.08777 1.38916ZM11.626 2.87838L10.348 2.53512L9.63507 3.93984C9.44496 4.31478 9.08058 4.57355 8.66339 4.62636C8.23563 4.67917 7.82372 4.79007 7.43294 4.95905C7.04215 5.12276 6.59855 5.0858 6.24473 4.85344L4.92451 3.99265L3.98978 4.92737L4.85057 6.2476C5.08293 6.60142 5.1199 7.04501 4.95619 7.43052C4.87698 7.62591 4.80304 7.82659 4.75024 8.03782C4.69743 8.24906 4.65518 8.4603 4.62877 8.66625C4.57597 9.08344 4.3172 9.44783 3.94226 9.63794L2.53754 10.3509L2.88079 11.6288L4.4545 11.5443C4.87698 11.5232 5.27833 11.7081 5.53709 12.046C5.79586 12.384 6.09687 12.6903 6.44013 12.9491C6.7781 13.2026 6.96294 13.6092 6.94181 14.0264L6.85732 15.5948L8.1353 15.9381L8.84822 14.5333C9.03833 14.1584 9.40271 13.8996 9.81991 13.8468C10.2477 13.794 10.6596 13.6831 11.0504 13.5141C11.4411 13.3504 11.8847 13.3874 12.2386 13.6197L13.5588 14.4805L14.4935 13.5458L13.6327 12.2256C13.4004 11.8718 13.3634 11.4282 13.5271 11.0427C13.6063 10.8473 13.6803 10.6466 13.7331 10.4354C13.7859 10.2241 13.8281 10.0129 13.8545 9.80693C13.9073 9.38974 14.1661 9.02535 14.541 8.83524L15.9458 8.12232L15.6025 6.84434L14.0288 6.92883C13.6063 6.94996 13.205 6.76512 12.9462 6.42715C12.6874 6.08917 12.3864 5.78288 12.0432 5.52411C11.7052 5.27063 11.5204 4.864 11.5415 4.44681L11.626 2.87838ZM7.60721 8.79827C7.66169 8.58064 7.75896 8.37603 7.89336 8.19638C8.02775 8.01673 8.19657 7.86564 8.38997 7.75192C8.58337 7.63821 8.79747 7.56414 9.0198 7.53404C9.24212 7.50394 9.46822 7.51841 9.68489 7.57661C9.90156 7.63481 10.1045 7.73558 10.2818 7.87302C10.4591 8.01047 10.6073 8.18185 10.7177 8.37717C10.8281 8.57249 10.8985 8.78783 10.9248 9.01064C10.951 9.23345 10.9327 9.45926 10.8708 9.6749C10.8163 9.89254 10.719 10.0972 10.5847 10.2768C10.4503 10.4564 10.2814 10.6075 10.088 10.7213C9.89465 10.835 9.68054 10.909 9.45822 10.9391C9.23589 10.9692 9.0098 10.9548 8.79312 10.8966C8.57645 10.8384 8.37354 10.7376 8.19621 10.6002C8.01889 10.4627 7.87072 10.2913 7.76033 10.096C7.64994 9.90069 7.57954 9.68535 7.55326 9.46254C7.52697 9.23973 7.54531 9.01392 7.60721 8.79827ZM17.8363 16.5348C17.773 15.336 18.5545 14.2587 19.711 13.9472L20.989 13.6039C22.1455 13.2923 23.3654 13.8363 23.9041 14.9083L24.3318 15.7479C24.522 15.7902 24.7121 15.843 24.8969 15.9011L25.6838 15.3888C26.6871 14.734 28.0126 14.8713 28.8629 15.7215L29.7976 16.6563C30.6478 17.5065 30.7851 18.832 30.1303 19.8354L29.618 20.6222C29.6761 20.8071 29.7289 20.9972 29.7712 21.1873L30.6108 21.615C31.6776 22.159 32.2215 23.3736 31.9152 24.5301L31.572 25.8081C31.2604 26.9646 30.1831 27.7462 28.9843 27.6828L28.0443 27.63C27.9123 27.7726 27.775 27.9099 27.6324 28.0419L27.6852 28.9819C27.7486 30.1807 26.967 31.258 25.8105 31.5695L24.5325 31.9128C23.376 32.2244 22.1561 31.6804 21.6175 30.6084L21.1897 29.7688C20.9996 29.7265 20.8095 29.6737 20.6246 29.6156L19.8325 30.1279C18.8291 30.7827 17.5036 30.6454 16.6534 29.7952L15.7187 28.8604C14.8685 28.0102 14.7312 26.69 15.386 25.6813L15.8982 24.8945C15.8401 24.7096 15.7873 24.5195 15.7451 24.3294L14.9054 23.9017C13.8387 23.3577 13.2947 22.1431 13.601 20.9866L13.9443 19.7086C14.2559 18.5521 15.3332 17.7705 16.5319 17.8339L17.4719 17.8867C17.604 17.7441 17.7413 17.6068 17.8839 17.4748L17.831 16.5348H17.8363ZM21.6439 16.0542L20.3659 16.3975L20.4504 17.9659C20.4715 18.3884 20.2867 18.7898 19.9487 19.0432C19.6054 19.302 19.3044 19.6083 19.0457 19.9463C18.7922 20.2842 18.3855 20.4691 17.9631 20.448L16.3894 20.3635L16.0461 21.6414L17.4508 22.3544C17.8258 22.5445 18.0845 22.9089 18.1373 23.326C18.1637 23.5373 18.206 23.7432 18.2588 23.9545C18.3116 24.1657 18.3855 24.3664 18.4648 24.5618C18.6285 24.9473 18.5862 25.3909 18.3591 25.7447L17.4983 27.0649L18.4331 27.9997L19.7533 27.1389C20.1071 26.9065 20.5507 26.8695 20.9415 27.0332C21.3323 27.197 21.7495 27.3131 22.1719 27.3659C22.5891 27.4188 22.9535 27.6722 23.1436 28.0525L23.8566 29.4572L25.1345 29.1139L25.05 27.5455C25.0289 27.123 25.2138 26.7217 25.5517 26.4682C25.895 26.2094 26.196 25.9031 26.4548 25.5652C26.7083 25.2272 27.1149 25.0423 27.5374 25.0635L29.1111 25.148L29.4543 23.87L28.0496 23.1571C27.6747 22.9669 27.4159 22.6026 27.3631 22.1854C27.3367 21.9741 27.2944 21.7682 27.2416 21.5569C27.1888 21.3457 27.1149 21.145 27.0357 20.9496C26.872 20.5641 26.9142 20.1205 27.1413 19.7667L28.0021 18.4465L27.0674 17.5118L25.7471 18.3726C25.3933 18.6049 24.9497 18.6419 24.5589 18.4782C24.1681 18.3145 23.7509 18.1983 23.3285 18.1455C22.9113 18.0927 22.5469 17.8392 22.3568 17.459L21.6439 16.0542ZM21.121 23.194C21.0591 22.9784 21.0408 22.7526 21.0671 22.5298C21.0934 22.307 21.1638 22.0916 21.2742 21.8963C21.3846 21.701 21.5327 21.5296 21.7101 21.3921C21.8874 21.2547 22.0903 21.1539 22.307 21.0957C22.5236 21.0375 22.7497 21.0231 22.9721 21.0532C23.1944 21.0833 23.4085 21.1573 23.6019 21.271C23.7953 21.3848 23.9641 21.5359 24.0985 21.7155C24.2329 21.8951 24.3302 22.0998 24.3847 22.3174C24.4466 22.533 24.4649 22.7589 24.4386 22.9817C24.4123 23.2045 24.3419 23.4198 24.2315 23.6151C24.1211 23.8104 23.973 23.9818 23.7956 24.1193C23.6183 24.2567 23.4154 24.3575 23.1987 24.4157C22.9821 24.4739 22.756 24.4884 22.5336 24.4583C22.3113 24.4282 22.0972 24.3541 21.9038 24.2404C21.7104 24.1267 21.5416 23.9756 21.4072 23.7959C21.2728 23.6163 21.1755 23.4117 21.121 23.194Z"/>
</g>
<defs>
<clipPath id="clip0_138_1429">
<rect width="32" height="32"/>
</clipPath>
</defs>
</svg>
