<svg height="1em" width="1em" fill="currentColor" viewBox="0 0 32 32" xmlns="http://www.w3.org/2000/svg">
<path d="M20.0938 5.3C20.5688 4.49375 21.4312 4 22.3625 4H22.5C23.8813 4 25 5.11875 25 6.5C25 7.88125 23.8813 9 22.5 9H17.9188L20.0938 5.3ZM11.9062 5.3L14.0813 9H9.5C8.11875 9 7 7.88125 7 6.5C7 5.11875 8.11875 4 9.5 4H9.6375C10.5687 4 11.4375 4.49375 11.9062 5.3ZM17.5063 3.78125L16 6.34375L14.4937 3.78125C13.4812 2.05625 11.6312 1 9.6375 1H9.5C6.4625 1 4 3.4625 4 6.5C4 7.4 4.21875 8.25 4.6 9H2C0.89375 9 0 9.89375 0 11V13C0 14.1062 0.89375 15 2 15V27C2 29.2062 3.79375 31 6 31H26C28.2062 31 30 29.2062 30 27V15C31.1063 15 32 14.1062 32 13V11C32 9.89375 31.1063 9 30 9H27.4C27.7812 8.25 28 7.4 28 6.5C28 3.4625 25.5375 1 22.5 1H22.3625C20.3687 1 18.5188 2.05625 17.5063 3.775V3.78125ZM5 15H14.5V28H6C5.45 28 5 27.55 5 27V15ZM17.5 15H27V27C27 27.55 26.55 28 26 28H17.5V15Z"/>
</svg>
