<svg height="1em" width="1em" fill="currentColor" viewBox="0 0 32 32" xmlns="http://www.w3.org/2000/svg">
<g clip-path="url(#clip0_104_2519)">
<path d="M18.95 25.8125C17.6063 28.5438 16.3625 29 16 29C15.6375 29 14.3938 28.5438 13.05 25.8125C11.9875 23.6562 11.225 20.7125 11.0437 17.5H20.9562C20.7687 20.7188 20.0063 23.6625 18.95 25.8125ZM20.9562 14.5H11.0437C11.2312 11.2812 11.9938 8.3375 13.05 6.1875C14.3938 3.45625 15.6375 3 16 3C16.3625 3 17.6063 3.45625 18.95 6.1875C20.0125 8.34375 20.775 11.2875 20.9562 14.5ZM23.9625 17.5H28.9125C28.375 22.1625 25.3687 26.0812 21.2375 27.9C22.7375 25.225 23.7563 21.5 23.9625 17.5ZM28.9125 14.5H23.9625C23.7563 10.5 22.7375 6.775 21.2375 4.1C25.3687 5.925 28.375 9.8375 28.9125 14.5ZM8.0375 14.5H3.0875C3.625 9.8375 6.63125 5.91875 10.7625 4.1C9.2625 6.775 8.24375 10.5 8.0375 14.5ZM3.0875 17.5H8.0375C8.24375 21.5 9.2625 25.225 10.7625 27.9C6.63125 26.075 3.625 22.1625 3.0875 17.5ZM16 32C20.2435 32 24.3131 30.3143 27.3137 27.3137C30.3143 24.3131 32 20.2435 32 16C32 11.7565 30.3143 7.68687 27.3137 4.68629C24.3131 1.68571 20.2435 0 16 0C11.7565 0 7.68687 1.68571 4.68629 4.68629C1.68571 7.68687 0 11.7565 0 16C0 20.2435 1.68571 24.3131 4.68629 27.3137C7.68687 30.3143 11.7565 32 16 32Z"/>
</g>
<defs>
<clipPath id="clip0_104_2519">
<rect width="32" height="32"/>
</clipPath>
</defs>
</svg>
