<svg height="1em" width="1em" fill="currentColor" viewBox="0 0 32 32" xmlns="http://www.w3.org/2000/svg">
<path d="M5 5V11H11V5H5ZM2 5C2 3.34375 3.34375 2 5 2H11C12.6562 2 14 3.34375 14 5V11C14 12.6562 12.6562 14 11 14H5C3.34375 14 2 12.6562 2 11V5ZM5 21V27H11V21H5ZM2 21C2 19.3438 3.34375 18 5 18H11C12.6562 18 14 19.3438 14 21V27C14 28.6562 12.6562 30 11 30H5C3.34375 30 2 28.6562 2 27V21ZM27 5H21V11H27V5ZM21 2H27C28.6562 2 30 3.34375 30 5V11C30 12.6562 28.6562 14 27 14H21C19.3438 14 18 12.6562 18 11V5C18 3.34375 19.3438 2 21 2ZM21 21V27H27V21H21ZM18 21C18 19.3438 19.3438 18 21 18H27C28.6562 18 30 19.3438 30 21V27C30 28.6562 28.6562 30 27 30H21C19.3438 30 18 28.6562 18 27V21Z"/>
</svg>
