<svg height="1em" width="1em" fill="currentColor" viewBox="0 0 32 32" xmlns="http://www.w3.org/2000/svg">
<path d="M16.0313 0C14.45 0 13.0813 0.91875 12.4313 2.25C11.9938 2.0875 11.525 2 11.0313 2C8.82505 2 7.0313 3.79375 7.0313 6V16.3438L6.86255 16.175C5.30005 14.6125 2.7688 14.6125 1.2063 16.175C-0.356201 17.7375 -0.356201 20.2687 1.2063 21.8312L6.68755 27.3125C9.68755 30.3125 13.7563 32 18 32H19.0313C19.125 32 19.2188 31.9937 19.3125 31.975C25.0438 31.5875 29.625 27.0125 30.0063 21.2812C30.025 21.1875 30.0313 21.0938 30.0313 21V10C30.0313 7.79375 28.2375 6 26.0313 6C25.6875 6 25.35 6.04375 25.0313 6.125V6C25.0313 3.79375 23.2375 2 21.0313 2C20.5375 2 20.0688 2.0875 19.6313 2.25C18.9813 0.91875 17.6125 0 16.0313 0ZM15.0313 6.00625V6V4C15.0313 3.45 15.4813 3 16.0313 3C16.5813 3 17.0313 3.45 17.0313 4V14.5C17.0313 15.3313 17.7001 16 18.5313 16C19.3625 16 20.0313 15.3313 20.0313 14.5V6C20.0313 5.45 20.4813 5 21.0313 5C21.5813 5 22.0313 5.45 22.0313 6V14.5C22.0313 15.3313 22.7001 16 23.5313 16C24.3625 16 25.0313 15.3313 25.0313 14.5V10C25.0313 9.45 25.4813 9 26.0313 9C26.5813 9 27.0313 9.45 27.0313 10V20.8062C27.025 20.8438 27.025 20.8875 27.0188 20.925C26.8063 25.2812 23.3125 28.775 18.9563 28.9875C18.9188 28.9875 18.875 28.9937 18.8375 29H18C14.5563 29 11.25 27.6313 8.81255 25.1938L3.32505 19.7062C2.93755 19.3187 2.93755 18.6813 3.32505 18.2938C3.71255 17.9062 4.35005 17.9062 4.73755 18.2938L7.4688 21.025C7.90005 21.4562 8.5438 21.5813 9.1063 21.35C9.6688 21.1187 10.0313 20.5688 10.0313 19.9625V6C10.0313 5.45 10.4813 5 11.0313 5C11.5813 5 12.0313 5.44375 12.0313 5.99375V14.5C12.0313 15.3313 12.7 16 13.5313 16C14.3625 16 15.0313 15.3313 15.0313 14.5V6.00625Z"/>
</svg>
