<svg height="1em" width="1em" fill="currentColor" viewBox="0 0 32 32" xmlns="http://www.w3.org/2000/svg">
<g clip-path="url(#clip0_138_1416)">
<path d="M14.1812 1.81522C14.3562 1.00272 13.8375 0.208972 13.0312 0.033972C12.225 -0.141028 11.4187 0.377722 11.25 1.18397L9.7875 8.00272H4.28125C3.45 8.00272 2.78125 8.67147 2.78125 9.50272C2.78125 10.334 3.45 11.0027 4.28125 11.0027H9.14375L7 21.0027H1.5C0.66875 21.0027 0 21.6715 0 22.5027C0 23.334 0.66875 24.0027 1.5 24.0027H6.35625L5.03125 30.1902C4.85625 31.0027 5.375 31.7965 6.18125 31.9715C6.9875 32.1465 7.7875 31.6277 7.9625 30.8215L9.425 24.009H19.1375L17.8125 30.1965C17.6375 31.009 18.1562 31.8027 18.9625 31.9777C19.7687 32.1527 20.5688 31.634 20.7437 30.8277L22.2062 24.0152H27.7062C28.5375 24.0152 29.2062 23.3465 29.2062 22.5152C29.2062 21.684 28.5375 21.0152 27.7062 21.0152H22.85L24.9937 11.0152H30.5C31.3312 11.0152 32 10.3465 32 9.51522C32 8.68397 31.3312 8.01522 30.5 8.01522H25.6375L26.9625 1.82772C27.1375 1.01522 26.6187 0.221472 25.8125 0.046472C25.0063 -0.128528 24.2 0.377722 24.025 1.18397L22.5625 8.00272H12.85L14.175 1.81522H14.1812ZM12.2125 11.0027H21.925L19.7812 21.0027H10.0688L12.2125 11.0027Z"/>
</g>
<defs>
<clipPath id="clip0_138_1416">
<rect width="32" height="32"/>
</clipPath>
</defs>
</svg>
