<svg height="1em" width="1em" fill="currentColor" viewBox="0 0 32 32" xmlns="http://www.w3.org/2000/svg">
<path d="M5 15C5 8.925 9.925 4 16 4C22.075 4 27 8.925 27 15V17.8C26.1187 17.2875 25.0938 17 24 17H23C21.3438 17 20 18.3438 20 20V28C20 29.6562 21.3438 31 23 31H24C27.3125 31 30 28.3125 30 25V15C30 7.26875 23.7313 1 16 1C8.26875 1 2 7.26875 2 15V25C2 28.3125 4.6875 31 8 31H9C10.6562 31 12 29.6562 12 28V20C12 18.3438 10.6562 17 9 17H8C6.90625 17 5.88125 17.2937 5 17.8V15ZM5 23C5 21.3438 6.34375 20 8 20H9V28H8C6.34375 28 5 26.6562 5 25V23ZM27 23V25C27 26.6562 25.6562 28 24 28H23V20H24C25.6562 20 27 21.3438 27 23Z"/>
</svg>
