<svg height="1em" width="1em" fill="currentColor" viewBox="0 0 32 32" xmlns="http://www.w3.org/2000/svg">
<path d="M23.6812 5C21.975 5 20.3687 5.81875 19.3687 7.2L17.2188 10.175C16.9375 10.5625 16.4875 10.7937 16.0063 10.7937C15.525 10.7937 15.075 10.5625 14.7937 10.175L12.6438 7.2C11.6438 5.81875 10.0375 5 8.33125 5C5.39375 5 3.0125 7.38125 3.0125 10.3188C3.0125 13.4375 5.0125 16.4688 7.26875 19.2125C9.8375 22.3375 12.9812 25.0875 15.1375 26.7313C15.3375 26.8813 15.6313 26.9937 16.0125 26.9937C16.3938 26.9937 16.6875 26.8813 16.8875 26.7313C19.0438 25.0875 22.1875 22.3312 24.7563 19.2125C27.0188 16.4688 29.0125 13.4375 29.0125 10.3188C29.0125 7.38125 26.6313 5 23.6938 5H23.6812ZM16.9375 5.44375C18.5 3.28125 21.0125 2 23.6812 2C28.275 2 32 5.725 32 10.3188C32 14.6063 29.3188 18.375 27.0562 21.1187C24.3 24.4688 20.975 27.375 18.6938 29.1125C17.925 29.7 16.975 29.9937 16 29.9937C15.025 29.9937 14.075 29.7 13.3062 29.1125C11.025 27.375 7.7 24.4688 4.94375 21.125C2.68125 18.3813 0 14.6063 0 10.3188C0 5.725 3.725 2 8.31875 2C10.9875 2 13.5 3.28125 15.0625 5.44375L16 6.7375L16.9375 5.44375Z"/>
</svg>
