<svg height="1em" width="1em" fill="currentColor" viewBox="0 0 32 32" xmlns="http://www.w3.org/2000/svg">
<g clip-path="url(#clip0_104_2432)">
<path d="M15 0.381201C15.5688 -0.131299 16.4313 -0.131299 17 0.381201L31.5 13.3812C32.1188 13.9312 32.1688 14.8812 31.6125 15.5C31.0563 16.1187 30.1125 16.1687 29.4938 15.6125L28.9938 15.1625V27.9937C28.9938 30.1999 27.2 31.9937 24.9938 31.9937H6.99379C4.78754 31.9937 2.99379 30.1999 2.99379 27.9937V15.1625L2.49379 15.6125C1.87504 16.1625 0.931285 16.1125 0.375035 15.5C-0.181215 14.8875 -0.124965 13.9375 0.487535 13.3812L15 0.381201ZM16 3.51245L6.00004 12.4812V28C6.00004 28.5499 6.45004 29 7.00004 29H10V22.5C10 20.0125 12.0125 18 14.5 18H17.5C19.9875 18 22 20.0125 22 22.5V29H25C25.55 29 26 28.5499 26 28V12.4812L16 3.5187V3.51245ZM13 29H19V22.5C19 21.6687 18.3313 21 17.5 21H14.5C13.6688 21 13 21.6687 13 22.5V29Z"/>
</g>
<defs>
<clipPath id="clip0_104_2432">
<rect width="32" height="32"/>
</clipPath>
</defs>
</svg>
