<svg height="1em" width="1em" fill="currentColor" viewBox="0 0 32 32" xmlns="http://www.w3.org/2000/svg">
<path d="M6 5C5.45 5 5 5.45 5 6V26C5 26.55 5.45 27 6 27H26C26.55 27 27 26.55 27 26V6C27 5.45 26.55 5 26 5H6ZM2 6C2 3.79375 3.79375 2 6 2H26C28.2062 2 30 3.79375 30 6V26C30 28.2062 28.2062 30 26 30H6C3.79375 30 2 28.2062 2 26V6ZM10 8C10.5304 8 11.0391 8.21071 11.4142 8.58579C11.7893 8.96086 12 9.46957 12 10C12 10.5304 11.7893 11.0391 11.4142 11.4142C11.0391 11.7893 10.5304 12 10 12C9.46957 12 8.96086 11.7893 8.58579 11.4142C8.21071 11.0391 8 10.5304 8 10C8 9.46957 8.21071 8.96086 8.58579 8.58579C8.96086 8.21071 9.46957 8 10 8ZM18.5 12.5C19.0312 12.5 19.525 12.7812 19.7938 13.2375L24.7938 21.7375C25.0688 22.2 25.0687 22.775 24.8 23.2437C24.5312 23.7125 24.0375 24 23.5 24H8.5C7.94375 24 7.425 23.6875 7.16875 23.1938C6.9125 22.7 6.95 22.1 7.26875 21.6437L10.7688 16.6437C11.05 16.2437 11.5063 16.0063 12 16.0063C12.4937 16.0063 12.95 16.2437 13.2312 16.6437L14.3062 18.1812L17.2125 13.2437C17.4812 12.7875 17.975 12.5063 18.5063 12.5063L18.5 12.5Z"/>
</svg>
