<svg height="1em" width="1em" fill="currentColor" viewBox="0 0 32 32" xmlns="http://www.w3.org/2000/svg">
<path d="M4.70625 5.875C4.76875 5.375 5.19375 5 5.7 5H26.3062C26.8062 5 27.2312 5.375 27.3 5.875L28.8625 18H23.5375C22.7 18 21.9187 18.4187 21.4562 19.1125L20.2 21H11.8062L10.55 19.1125C10.0875 18.4187 9.30625 18 8.46875 18H3.14375L4.70625 5.875ZM3 21H8.2L9.45625 22.8875C9.91875 23.5813 10.7 24 11.5375 24H20.4688C21.3062 24 22.0875 23.5813 22.55 22.8875L23.8062 21H29.0063V26C29.0063 26.55 28.5562 27 28.0063 27H4C3.45 27 3 26.55 3 26V21ZM5.7 2C3.6875 2 1.9875 3.49375 1.73125 5.4875L0.0125 18.8062L0 18.9062V26C0 28.2062 1.79375 30 4 30H28C30.2062 30 32 28.2062 32 26V18.9062L31.9875 18.8125L30.2687 5.49375C30.0125 3.49375 28.3125 2 26.3 2H5.7Z"/>
</svg>
