<svg height="1em" width="1em" fill="currentColor" viewBox="0 0 32 32" xmlns="http://www.w3.org/2000/svg">
<g clip-path="url(#clip0_138_1403)">
<path d="M16.2125 3.04377L26.925 8.00002L16.2125 12.95C16.0812 13.0125 15.925 13.0125 15.7937 12.95L5.075 8.00002L15.7875 3.04377C15.9188 2.98127 16.075 2.98127 16.2062 3.04377H16.2125ZM17.4688 0.325024C16.5375 -0.106226 15.4625 -0.106226 14.5312 0.325024L0.86875 6.63752C0.3375 6.88127 0 7.41252 0 8.00002C0 8.58752 0.3375 9.11878 0.86875 9.36252L14.5312 15.675C15.4625 16.1063 16.5375 16.1063 17.4688 15.675L31.1313 9.36252C31.6625 9.11878 32 8.58752 32 8.00002C32 7.41252 31.6625 6.88127 31.1313 6.63752L17.4688 0.325024ZM3.00625 13.65L0.86875 14.6375C0.3375 14.8813 0 15.4125 0 16C0 16.5875 0.3375 17.1188 0.86875 17.3625L14.5312 23.675C15.4625 24.1063 16.5375 24.1063 17.4688 23.675L31.1313 17.3625C31.6625 17.1188 32 16.5875 32 16C32 15.4125 31.6625 14.8813 31.1313 14.6375L29 13.65L25.425 15.3L26.9312 15.9938L16.2188 20.9438C16.0875 21.0063 15.9313 21.0063 15.8 20.9438L5.075 16L6.58125 15.3063L3.00625 13.65ZM0.86875 22.6375C0.3375 22.8813 0 23.4125 0 24C0 24.5875 0.3375 25.1188 0.86875 25.3625L14.5312 31.675C15.4625 32.1063 16.5375 32.1063 17.4688 31.675L31.1313 25.3625C31.6625 25.1188 32 24.5875 32 24C32 23.4125 31.6625 22.8813 31.1313 22.6375L29 21.65L25.425 23.3L26.9312 23.9938L16.2188 28.9438C16.0875 29.0063 15.9313 29.0063 15.8 28.9438L5.0875 23.9938L6.59375 23.3L3.01875 21.65L0.8875 22.6375H0.86875Z"/>
</g>
<defs>
<clipPath id="clip0_138_1403">
<rect width="32" height="32"/>
</clipPath>
</defs>
</svg>
