<svg height="1em" width="1em" fill="currentColor" viewBox="0 0 32 32" xmlns="http://www.w3.org/2000/svg">
<g clip-path="url(#clip0_138_1460)">
<path d="M7 11.7875C7 6.98125 10.9812 3 16 3C21.0187 3 25 6.98125 25 11.7875C25 14.6375 23.5125 18.1313 21.3188 21.6063C19.55 24.4062 17.5063 26.9062 16 28.6125C14.4937 26.9062 12.4563 24.4125 10.6813 21.6063C8.4875 18.1375 7 14.6375 7 11.7875ZM16 0C9.375 0 4 5.275 4 11.7875C4 19.2438 11.5125 28.1812 14.65 31.5875C15.3875 32.3875 16.6125 32.3875 17.35 31.5875C20.4875 28.1812 28 19.2438 28 11.7875C28 5.275 22.625 0 16 0ZM14 12C14 11.4696 14.2107 10.9609 14.5858 10.5858C14.9609 10.2107 15.4696 10 16 10C16.5304 10 17.0391 10.2107 17.4142 10.5858C17.7893 10.9609 18 11.4696 18 12C18 12.5304 17.7893 13.0391 17.4142 13.4142C17.0391 13.7893 16.5304 14 16 14C15.4696 14 14.9609 13.7893 14.5858 13.4142C14.2107 13.0391 14 12.5304 14 12ZM21 12C21 10.6739 20.4732 9.40215 19.5355 8.46447C18.5979 7.52678 17.3261 7 16 7C14.6739 7 13.4021 7.52678 12.4645 8.46447C11.5268 9.40215 11 10.6739 11 12C11 13.3261 11.5268 14.5979 12.4645 15.5355C13.4021 16.4732 14.6739 17 16 17C17.3261 17 18.5979 16.4732 19.5355 15.5355C20.4732 14.5979 21 13.3261 21 12Z"/>
</g>
<defs>
<clipPath id="clip0_138_1460">
<rect width="32" height="32"/>
</clipPath>
</defs>
</svg>
