<svg height="1em" width="1em" fill="currentColor" viewBox="0 0 32 32" xmlns="http://www.w3.org/2000/svg">
<path d="M11.125 8.05882V11.5882H19.875V8.05882C19.875 5.62132 17.9172 3.64706 15.5 3.64706C13.0828 3.64706 11.125 5.62132 11.125 8.05882ZM8.5 11.5882V8.05882C8.5 4.15993 11.6336 1 15.5 1C19.3664 1 22.5 4.15993 22.5 8.05882V11.5882C24.4305 11.5882 26 13.171 26 15.1176V27.4706C26 29.4173 24.4305 31 22.5 31H8.5C6.56953 31 5 29.4173 5 27.4706V15.1176C5 13.171 6.56953 11.5882 8.5 11.5882ZM19.875 14.2353H11.125H8.5C8.01875 14.2353 7.625 14.6324 7.625 15.1176V27.4706C7.625 27.9559 8.01875 28.3529 8.5 28.3529H22.5C22.9813 28.3529 23.375 27.9559 23.375 27.4706V15.1176C23.375 14.6324 22.9813 14.2353 22.5 14.2353H19.875Z"/>
</svg>
