<svg height="1em" width="1em" fill="currentColor" viewBox="0 0 32 32" xmlns="http://www.w3.org/2000/svg">
<g clip-path="url(#clip0_138_1457)">
<path d="M23 13C23 10.3478 21.9464 7.8043 20.0711 5.92893C18.1957 4.05357 15.6522 3 13 3C10.3478 3 7.8043 4.05357 5.92893 5.92893C4.05357 7.8043 3 10.3478 3 13C3 15.6522 4.05357 18.1957 5.92893 20.0711C7.8043 21.9464 10.3478 23 13 23C15.6522 23 18.1957 21.9464 20.0711 20.0711C21.9464 18.1957 23 15.6522 23 13ZM21.0688 23.1938C18.8563 24.95 16.05 26 13 26C5.81875 26 0 20.1812 0 13C0 5.81875 5.81875 0 13 0C20.1812 0 26 5.81875 26 13C26 16.05 24.95 18.8563 23.1938 21.0688L31.5625 29.4375C32.15 30.025 32.15 30.975 31.5625 31.5562C30.975 32.1375 30.025 32.1437 29.4438 31.5562L21.0688 23.1938Z"/>
</g>
<defs>
<clipPath id="clip0_138_1457">
<rect width="32" height="32"/>
</clipPath>
</defs>
</svg>
