<svg height="1em" width="1em" fill="currentColor" viewBox="0 0 32 32" xmlns="http://www.w3.org/2000/svg">
<path d="M30.5 2C29.6688 2 29 2.66875 29 3.5V4.34375L3 11.6562V11.5C3 10.6687 2.33125 10 1.5 10C0.66875 10 0 10.6687 0 11.5V20.5C0 21.3312 0.66875 22 1.5 22C2.33125 22 3 21.3312 3 20.5V20.3438L8.39375 21.8625C8.1375 22.525 8 23.25 8 24C8 27.3125 10.6875 30 14 30C16.9375 30 19.3875 27.8875 19.9 25.0938L29 27.6562V28.5C29 29.3312 29.6688 30 30.5 30C31.3312 30 32 29.3312 32 28.5V3.5C32 2.66875 31.3312 2 30.5 2ZM29 24.5375L3 17.225V14.7688L29 7.45625V24.5375ZM16.9875 24.275C16.85 25.8 15.5625 27 14 27C12.3438 27 11 25.6562 11 24C11 23.525 11.1125 23.075 11.3062 22.6812L16.9875 24.2812V24.275Z"/>
</svg>
