<svg height="1em" width="1em" fill="currentColor" viewBox="0 0 32 32" xmlns="http://www.w3.org/2000/svg">
<path d="M25 7C25 9.20625 26.7938 11 29 11V21C26.7938 21 25 22.7938 25 25H7C7 22.7938 5.20625 21 3 21V11C5.20625 11 7 9.20625 7 7H25ZM4 4C1.79375 4 0 5.79375 0 8V24C0 26.2062 1.79375 28 4 28H28C30.2062 28 32 26.2062 32 24V8C32 5.79375 30.2062 4 28 4H4ZM22 16C22 14.4087 21.3679 12.8826 20.2426 11.7574C19.1174 10.6321 17.5913 10 16 10C14.4087 10 12.8826 10.6321 11.7574 11.7574C10.6321 12.8826 10 14.4087 10 16C10 17.5913 10.6321 19.1174 11.7574 20.2426C12.8826 21.3679 14.4087 22 16 22C17.5913 22 19.1174 21.3679 20.2426 20.2426C21.3679 19.1174 22 17.5913 22 16Z"/>
</svg>
