<svg height="1em" width="1em" fill="currentColor" viewBox="0 0 32 32" xmlns="http://www.w3.org/2000/svg">
<g clip-path="url(#clip0_138_1424)">
<path d="M15.7852 18.1701L27.3507 6.60873L19.7286 27.8775L15.7852 18.1701ZM25.3933 4.65688L13.8336 16.2183L4.12764 12.2743L25.3933 4.65688ZM1.25499 14.0879L13.1025 18.9013L17.9152 30.7506C18.2203 31.5048 18.9572 32 19.7747 32C20.6209 32 21.3751 31.4703 21.6629 30.67L31.9101 2.06594C32.1115 1.50168 31.9676 0.879858 31.5474 0.453791C31.1271 0.0277245 30.4996 -0.110459 29.9355 0.0910587L1.32983 10.3397C0.529628 10.6276 0 11.3818 0 12.2282C0 13.0458 0.495087 13.7828 1.24923 14.0879H1.25499Z"/>
</g>
<defs>
<clipPath id="clip0_138_1424">
<rect width="32" height="32"/>
</clipPath>
</defs>
</svg>
