<svg height="1em" width="1em" fill="currentColor" viewBox="0 0 32 32" xmlns="http://www.w3.org/2000/svg">
<path d="M16.0769 3.23339C19.0331 0.255538 23.8266 0.255538 26.7828 3.23339C29.7391 6.21123 29.7391 11.0397 26.7828 14.0176L17.3351 23.54C15.42 25.4691 12.319 25.4691 10.4038 23.54C8.48866 21.6108 8.48866 18.4871 10.4038 16.558L19.228 7.67492C19.7513 7.14777 20.5975 7.14777 21.1153 7.67492C21.6331 8.20207 21.6386 9.05449 21.1153 9.57604L12.2967 18.4591C11.4282 19.334 11.4282 20.7528 12.2967 21.6332C13.1652 22.5137 14.5737 22.5081 15.4478 21.6332L24.8955 12.1165C26.8107 10.1873 26.8107 7.06365 24.8955 5.1345C22.9804 3.20535 19.8794 3.20535 17.9698 5.1345L7.89296 15.285C4.93673 18.2628 4.93673 23.0913 7.89296 26.0692C10.8492 29.047 15.6426 29.047 18.5989 26.0692L26.4711 18.1451C26.9944 17.6179 27.8406 17.6179 28.3584 18.1451C28.8761 18.6722 28.8817 19.5246 28.3584 20.0462L20.4862 27.9759C16.4833 32.008 9.9974 32.008 6.00008 27.9759C2.00276 23.9437 1.99719 17.4104 6.00008 13.3839L16.0769 3.23339Z"/>
</svg>
