<svg height="1em" width="1em" fill="currentColor" viewBox="0 0 32 32" xmlns="http://www.w3.org/2000/svg">
<g clip-path="url(#clip0_138_1421)">
<path d="M27.5625 3.6813L28.3188 4.43755C28.9062 5.02505 28.9062 5.97505 28.3188 6.5563L26.5 8.3813L23.6187 5.50005L25.4375 3.6813C26.025 3.0938 26.975 3.0938 27.5562 3.6813H27.5625ZM13.1125 16.0125L21.5 7.6188L24.3813 10.5L15.9875 18.8876C15.8063 19.0688 15.5812 19.2 15.3375 19.2688L11.6812 20.3125L12.725 16.6563C12.7938 16.4125 12.925 16.1875 13.1062 16.0063L13.1125 16.0125ZM23.3188 1.56255L10.9875 13.8875C10.4438 14.4313 10.05 15.1 9.84375 15.8313L8.05625 22.0813C7.90625 22.6063 8.05 23.1688 8.4375 23.5563C8.825 23.9438 9.3875 24.0875 9.9125 23.9375L16.1625 22.15C16.9 21.9375 17.5688 21.5438 18.1063 21.0063L30.4375 8.6813C32.1937 6.92505 32.1937 4.07505 30.4375 2.3188L29.6812 1.56255C27.925 -0.193701 25.075 -0.193701 23.3188 1.56255ZM5.5 4.00005C2.4625 4.00005 0 6.46255 0 9.50005V26.5C0 29.5375 2.4625 32 5.5 32H22.5C25.5375 32 28 29.5375 28 26.5V19.5C28 18.6688 27.3312 18 26.5 18C25.6688 18 25 18.6688 25 19.5V26.5C25 27.8813 23.8813 29 22.5 29H5.5C4.11875 29 3 27.8813 3 26.5V9.50005C3 8.1188 4.11875 7.00005 5.5 7.00005H12.5C13.3313 7.00005 14 6.3313 14 5.50005C14 4.6688 13.3313 4.00005 12.5 4.00005H5.5Z"/>
</g>
<defs>
<clipPath id="clip0_138_1421">
<rect width="32" height="32"/>
</clipPath>
</defs>
</svg>
