<svg height="1em" width="1em" fill="currentColor" viewBox="0 0 32 32" xmlns="http://www.w3.org/2000/svg">
<g clip-path="url(#clip0_138_1443)">
<path d="M2.27499 22.1125C2.53124 21.2 3.01249 20.3687 3.68749 19.6938L22.0625 1.31875C22.9 0.475 24.05 0 25.25 0C26.45 0 27.6 0.475 28.4437 1.325L30.675 3.55625C31.525 4.4 32 5.55 32 6.75C32 7.95 31.525 9.1 30.675 9.94375L12.3 28.3188C11.6312 28.9875 10.7937 29.475 9.88124 29.7313L1.89999 31.9438C1.38124 32.0875 0.818739 31.9438 0.437489 31.5562C0.0562395 31.1687 -0.0937606 30.6125 0.0499894 30.0938L2.27499 22.1125ZM24.175 3.44375L20.8687 6.75L25.25 11.1313L28.5562 7.825C28.8437 7.5375 29 7.15625 29 6.75C29 6.34375 28.8375 5.9625 28.5562 5.675L26.325 3.44375C26.0375 3.1625 25.65 3 25.25 3C24.85 3 24.4625 3.1625 24.175 3.44375ZM18.75 8.86875L5.80624 21.8188C5.49999 22.125 5.28124 22.5 5.16249 22.9188L3.65624 28.35L9.08749 26.8438C9.49999 26.7313 9.88124 26.5063 10.1875 26.2L23.1312 13.25L18.75 8.86875Z"/>
</g>
<defs>
<clipPath id="clip0_138_1443">
<rect width="32" height="32"/>
</clipPath>
</defs>
</svg>
