<svg height="1em" width="1em" fill="currentColor" viewBox="0 0 32 32" xmlns="http://www.w3.org/2000/svg">
<g clip-path="url(#clip0_138_1453)">
<path d="M7.05002 0.681256C8.75627 0.112506 10.6125 0.925006 11.3563 2.55626L13.8375 8.01251C14.5 9.47501 14.0875 11.2 12.8375 12.2063L11.325 13.4125C12.9188 16.5375 15.4188 19.125 18.475 20.8375L19.8 19.175C20.8063 17.9188 22.5313 17.5063 23.9938 18.175L29.45 20.6563C31.0875 21.4 31.8938 23.2563 31.325 24.9625C30.0313 28.8563 26.0938 32.225 21.2688 31.375C10.4125 29.4625 2.54377 21.5938 0.631271 10.7375C-0.218729 5.91251 3.15627 1.98126 7.04377 0.681256H7.05002ZM8.62502 3.80001C8.51877 3.56251 8.25002 3.44376 8.00002 3.52501C5.17502 4.46876 3.05627 7.18751 3.59377 10.2125C5.28752 19.825 12.1813 26.725 21.7938 28.4188C24.8188 28.95 27.5375 26.8375 28.4813 24.0125C28.5625 23.7625 28.4438 23.4938 28.2063 23.3875L22.75 20.9C22.5375 20.8063 22.2875 20.8625 22.1438 21.0438L20.05 23.6625C19.6125 24.2063 18.8625 24.3813 18.2375 24.0813C13.7063 21.9313 10.0813 18.1875 8.08752 13.5688C7.81877 12.95 8.00002 12.225 8.52502 11.8063L10.9563 9.86251C11.1375 9.71876 11.2 9.46876 11.1 9.25626L8.61877 3.79376L8.62502 3.80001Z"/>
</g>
<defs>
<clipPath id="clip0_138_1453">
<rect width="32" height="32"/>
</clipPath>
</defs>
</svg>
