<svg height="1em" width="1em" fill="currentColor" viewBox="0 0 32 32" xmlns="http://www.w3.org/2000/svg">
<g clip-path="url(#clip0_138_1461)">
<path d="M24 9H27V6.65625C27 5.59375 26.5812 4.575 25.8312 3.825L23.1688 1.16875C22.4188 0.41875 21.4062 0 20.3438 0H9C6.79375 0 5 1.79375 5 4V9H8V4C8 3.45 8.45 3 9 3H20.3438C20.6063 3 20.8625 3.10625 21.05 3.29375L23.7062 5.95C23.8937 6.1375 24 6.39375 24 6.65625V9ZM23 23V29H9V23H23ZM8 20C6.89375 20 6 20.8937 6 22V23H3V16C3 15.45 3.45 15 4 15H28C28.55 15 29 15.45 29 16V23H26V22C26 20.8937 25.1063 20 24 20H8ZM26 26H30C31.1063 26 32 25.1063 32 24V16C32 13.7937 30.2062 12 28 12H4C1.79375 12 0 13.7937 0 16V24C0 25.1063 0.89375 26 2 26H6V30C6 31.1063 6.89375 32 8 32H24C25.1063 32 26 31.1063 26 30V26Z"/>
</g>
<defs>
<clipPath id="clip0_138_1461">
<rect width="32" height="32"/>
</clipPath>
</defs>
</svg>
