<svg height="1em" width="1em" fill="currentColor" viewBox="0 0 32 32" xmlns="http://www.w3.org/2000/svg">
<path d="M12.5625 5.9375L21.5625 14.9375C22.15 15.525 22.15 16.475 21.5625 17.0562L12.5625 26.0625C12.1313 26.4937 11.4875 26.6188 10.925 26.3875C10.3625 26.1562 10 25.6063 10 25V21H3C1.34375 21 0 19.6562 0 18V14C0 12.3438 1.34375 11 3 11H10V7C10 6.39375 10.3625 5.84375 10.925 5.6125C11.4875 5.38125 12.1313 5.5125 12.5625 5.9375ZM13 19.5V21.3813L18.3813 16L13 10.6187V12.5C13 13.3313 12.3313 14 11.5 14H3V18H11.5C11.9 18 12.2812 18.1562 12.5625 18.4375C12.8438 18.7188 13 19.1 13 19.5ZM21.5 27H26C27.6562 27 29 25.6562 29 24V8C29 6.34375 27.6562 5 26 5H21.5C20.6688 5 20 4.33125 20 3.5C20 2.66875 20.6688 2 21.5 2H26C29.3125 2 32 4.6875 32 8V24C32 27.3125 29.3125 30 26 30H21.5C20.6688 30 20 29.3312 20 28.5C20 27.6688 20.6688 27 21.5 27Z"/>
</svg>
