<svg height="1em" width="1em" fill="currentColor" viewBox="0 0 32 32" xmlns="http://www.w3.org/2000/svg">
<g clip-path="url(#clip0_138_1448)">
<path d="M31.9938 1.2063C31.875 0.612553 31.4125 0.150053 30.8188 0.0313032C28.0063 -0.531197 23.6938 -0.887447 19.525 1.26255C17.025 2.5563 14.6938 4.68755 12.7938 8.00005H7.72502C6.66877 8.00005 5.69377 8.55005 5.15002 9.4563L1.84377 14.9688C1.04377 16.3063 2.00627 18.0001 3.55627 18.0001H10.025C12.2313 18.0001 14.025 19.7938 14.025 22.0001V28.4688C14.025 30.0251 15.7188 30.9813 17.0563 30.1813L22.5688 26.8751C23.475 26.3313 24.025 25.3563 24.025 24.3001V19.2313C27.3438 17.3313 29.475 15.0001 30.7625 12.5001C32.9125 8.3313 32.5563 4.0188 31.9938 1.2063ZM21.025 20.6938V24.3063L17.025 26.7063V22.0501C18.4813 21.6501 19.8125 21.2001 21.025 20.7001V20.6938ZM16.4 19.1063C15.7 17.5688 14.4625 16.3251 12.9188 15.6251C14.8313 8.7563 17.9125 5.4688 20.9 3.92505C23.7688 2.4438 26.8125 2.43755 29.225 2.7938C29.5875 5.2063 29.575 8.25005 28.0938 11.1188C26.55 14.1063 23.2625 17.1876 16.3938 19.1001L16.4 19.1063ZM9.98127 15.0001H5.32502L7.72502 11.0001H11.3375C10.8375 12.2126 10.3875 13.5438 9.98752 15.0001H9.98127ZM25.525 9.00005C25.525 8.33701 25.2616 7.70113 24.7928 7.23229C24.3239 6.76345 23.6881 6.50005 23.025 6.50005C22.362 6.50005 21.7261 6.76345 21.2572 7.23229C20.7884 7.70113 20.525 8.33701 20.525 9.00005C20.525 9.66309 20.7884 10.299 21.2572 10.7678C21.7261 11.2367 22.362 11.5001 23.025 11.5001C23.6881 11.5001 24.3239 11.2367 24.7928 10.7678C25.2616 10.299 25.525 9.66309 25.525 9.00005ZM9.55002 29.6001C11.5188 27.6313 11.5188 24.4438 9.55002 22.4751C7.58127 20.5063 4.39377 20.5063 2.42502 22.4751C0.468767 24.4313 0.0812672 28.2251 0.0312672 30.3751C0.00626725 31.2876 0.731267 32.0126 1.65002 31.9938C3.80627 31.9438 7.59377 31.5563 9.55002 29.6001ZM7.01252 27.6001C6.38127 28.2313 5.23127 28.4126 4.43127 28.4563C3.93127 28.4876 3.53752 28.0876 3.56252 27.5876C3.60627 26.7876 3.79377 25.6376 4.41877 25.0063C5.13127 24.2938 6.29377 24.2938 7.00627 25.0063C7.71877 25.7188 7.71877 26.8813 7.00627 27.5938L7.01252 27.6001Z"/>
</g>
<defs>
<clipPath id="clip0_138_1448">
<rect width="32" height="32"/>
</clipPath>
</defs>
</svg>
