<svg height="1em" width="1em" fill="currentColor" viewBox="0 0 32 32" xmlns="http://www.w3.org/2000/svg">
<g clip-path="url(#clip0_138_1430)">
<path d="M31.0875 0.112522C30.525 -0.118728 29.8812 0.00627187 29.45 0.437522L26.2125 3.67502C19.925 -1.54373 10.5812 -1.20623 4.69373 4.68752C-1.55627 10.9375 -1.55627 21.0625 4.69373 27.3125C10.9437 33.5625 21.075 33.5625 27.3187 27.3125C28.25 26.3813 29.0437 25.3625 29.7 24.2813C30.1312 23.575 29.9 22.65 29.1937 22.2188C28.4875 21.7875 27.5625 22.0188 27.1312 22.725C26.6 23.6 25.9562 24.4313 25.1937 25.1875C20.1187 30.2625 11.8875 30.2625 6.80623 25.1875C1.72498 20.1125 1.73123 11.8813 6.80623 6.80002C11.525 2.08127 18.9687 1.75002 24.0687 5.80002L20.9437 8.93752C20.5125 9.36877 20.3875 10.0125 20.6187 10.575C20.85 11.1375 21.4 11.5 22.0062 11.5H30.5125C31.3437 11.5 32.0125 10.8313 32.0125 10V1.50002C32.0125 0.893772 31.65 0.343772 31.0875 0.112522ZM29.0125 5.11877V8.50002H25.6312L29.0125 5.11877Z"/>
</g>
<defs>
<clipPath id="clip0_138_1430">
<rect width="32" height="32"/>
</clipPath>
</defs>
</svg>
