<svg height="1em" width="1em" fill="currentColor" viewBox="0 0 32 32" xmlns="http://www.w3.org/2000/svg">
<path d="M23.4605 0.425598C23.0486 0.00784925 22.4337 -0.113237 21.8965 0.110773C21.3592 0.334783 21.013 0.867565 21.013 1.45484V4.84526H18.1476C12.8704 4.84526 8.59621 9.18017 8.59621 14.5322C8.59621 17.3596 9.83192 19.3999 11.199 20.7924C11.6825 21.2888 12.1839 21.6945 12.6496 22.0275C13.1988 22.421 13.945 22.3726 14.4464 21.9124C14.9479 21.4523 15.0553 20.7016 14.715 20.1082C14.5001 19.7268 14.327 19.2062 14.327 18.4917C14.327 16.3001 16.0761 14.5261 18.2371 14.5261H21.013V17.9166C21.013 18.5038 21.3592 19.0366 21.8965 19.2606C22.4337 19.4846 23.0486 19.3636 23.4605 18.9458L31.5791 10.7119C32.1403 10.1428 32.1403 9.22255 31.5791 8.6595L23.4605 0.425598ZM23.8784 6.29831V4.9603L28.5406 9.68873L23.8784 14.4172V13.0792C23.8784 12.2739 23.2396 11.6261 22.4457 11.6261H18.2371C15.1986 11.6261 12.6317 13.6543 11.772 16.4454C11.575 15.8763 11.4616 15.2466 11.4616 14.5322C11.4616 10.7846 14.4524 7.75135 18.1476 7.75135H22.4457C23.2396 7.75135 23.8784 7.10353 23.8784 6.29831ZM4.77567 5.81396C2.13711 5.81396 0 7.98141 0 10.6574V26.1565C0 28.8325 2.13711 31 4.77567 31H20.0578C22.6964 31 24.8335 28.8325 24.8335 26.1565V24.7035C24.8335 23.8983 24.1948 23.2504 23.4008 23.2504C22.6068 23.2504 21.9681 23.8983 21.9681 24.7035V26.1565C21.9681 27.2281 21.1144 28.0939 20.0578 28.0939H4.77567C3.71906 28.0939 2.8654 27.2281 2.8654 26.1565V10.6574C2.8654 9.58581 3.71906 8.72004 4.77567 8.72004H6.20838C7.00233 8.72004 7.64108 8.07223 7.64108 7.267C7.64108 6.46177 7.00233 5.81396 6.20838 5.81396H4.77567Z"/>
</svg>
