<svg height="1em" width="1em" fill="currentColor" viewBox="0 0 32 32" xmlns="http://www.w3.org/2000/svg">
<g clip-path="url(#clip0_138_1413)">
<path d="M19.5 11C20.3312 11 21 10.3312 21 9.49995V5.41245L28.5875 13L21 20.5875V16.5C21 15.6687 20.3312 15 19.5 15H12C7.8625 15 4.375 17.7937 3.325 21.5937C3.11875 20.8187 3 19.9562 3 19C3 14.5812 6.58125 11 11 11H19.5ZM18 18V23C18 23.8062 18.4875 24.5375 19.2375 24.85C19.9875 25.1625 20.8438 24.9875 21.4188 24.4187L31.4188 14.4187C32.2 13.6375 32.2 12.3687 31.4188 11.5875L21.4188 1.58745C20.8438 1.01245 19.9875 0.843704 19.2375 1.1562C18.4875 1.4687 18 2.1937 18 2.99995V7.99995H11C4.925 7.99995 0 12.925 0 19C0 23.875 2.4125 26.8875 4.29375 28.5062C4.55 28.725 4.8 28.9187 5.025 29.0875C5.225 29.2375 5.4125 29.3625 5.58125 29.475C5.8625 29.6625 6.1 29.7937 6.25625 29.8812C6.4125 29.9687 6.5875 30 6.7625 30C7.44375 30 7.99375 29.4437 7.99375 28.7687C7.99375 28.3437 7.76875 27.9437 7.475 27.6375C7.44375 27.6062 7.41875 27.5812 7.3875 27.55C7.2375 27.4062 7.06875 27.2312 6.90625 27.0125C6.8 26.8687 6.69375 26.7 6.59375 26.5187C6.2625 25.9125 6 25.0875 6 24.0062C6 20.6937 8.6875 18.0062 12 18.0062H18V18Z"/>
</g>
<defs>
<clipPath id="clip0_138_1413">
<rect width="32" height="32"/>
</clipPath>
</defs>
</svg>
