<svg height="1em" width="1em" fill="currentColor" viewBox="0 0 32 32" xmlns="http://www.w3.org/2000/svg">
<path d="M1.5 4.5C0.66875 4.5 0 5.16875 0 6C0 6.83125 0.66875 7.5 1.5 7.5H7.23125C7.86875 9.53125 9.7625 11 12 11C14.2375 11 16.1312 9.53125 16.7687 7.5H30.5C31.3312 7.5 32 6.83125 32 6C32 5.16875 31.3312 4.5 30.5 4.5H16.7687C16.1312 2.46875 14.2375 1 12 1C9.7625 1 7.86875 2.46875 7.23125 4.5H1.5ZM1.5 14.5C0.66875 14.5 0 15.1687 0 16C0 16.8313 0.66875 17.5 1.5 17.5H17.2313C17.8688 19.5312 19.7625 21 22 21C24.2375 21 26.1312 19.5312 26.7687 17.5H30.5C31.3312 17.5 32 16.8313 32 16C32 15.1687 31.3312 14.5 30.5 14.5H26.7687C26.1312 12.4688 24.2375 11 22 11C19.7625 11 17.8688 12.4688 17.2313 14.5H1.5ZM1.5 24.5C0.66875 24.5 0 25.1688 0 26C0 26.8312 0.66875 27.5 1.5 27.5H5.23125C5.86875 29.5312 7.7625 31 10 31C12.2375 31 14.1313 29.5312 14.7688 27.5H30.5C31.3312 27.5 32 26.8312 32 26C32 25.1688 31.3312 24.5 30.5 24.5H14.7688C14.1313 22.4688 12.2375 21 10 21C7.7625 21 5.86875 22.4688 5.23125 24.5H1.5ZM10 28C9.46957 28 8.96086 27.7893 8.58579 27.4142C8.21071 27.0391 8 26.5304 8 26C8 25.4696 8.21071 24.9609 8.58579 24.5858C8.96086 24.2107 9.46957 24 10 24C10.5304 24 11.0391 24.2107 11.4142 24.5858C11.7893 24.9609 12 25.4696 12 26C12 26.5304 11.7893 27.0391 11.4142 27.4142C11.0391 27.7893 10.5304 28 10 28ZM22 18C21.4696 18 20.9609 17.7893 20.5858 17.4142C20.2107 17.0391 20 16.5304 20 16C20 15.4696 20.2107 14.9609 20.5858 14.5858C20.9609 14.2107 21.4696 14 22 14C22.5304 14 23.0391 14.2107 23.4142 14.5858C23.7893 14.9609 24 15.4696 24 16C24 16.5304 23.7893 17.0391 23.4142 17.4142C23.0391 17.7893 22.5304 18 22 18ZM10 6C10 5.46957 10.2107 4.96086 10.5858 4.58579C10.9609 4.21071 11.4696 4 12 4C12.5304 4 13.0391 4.21071 13.4142 4.58579C13.7893 4.96086 14 5.46957 14 6C14 6.53043 13.7893 7.03914 13.4142 7.41421C13.0391 7.78929 12.5304 8 12 8C11.4696 8 10.9609 7.78929 10.5858 7.41421C10.2107 7.03914 10 6.53043 10 6Z"/>
</svg>
