<svg height="1em" width="1em" fill="currentColor" viewBox="0 0 32 32" xmlns="http://www.w3.org/2000/svg">
<path d="M16.0005 0C16.524 0 17.0067 0.300797 17.2452 0.772636L21.5202 9.27753L30.8206 10.7756C31.3383 10.8582 31.7687 11.2298 31.9316 11.737C32.0944 12.2442 31.9606 12.7986 31.5942 13.1761L24.9345 19.9293L26.406 29.3602C26.4874 29.8851 26.2722 30.4159 25.8476 30.7285C25.423 31.0411 24.8588 31.0883 24.3935 30.8465L16.0005 26.5174L7.60748 30.8465C7.14217 31.0883 6.57798 31.0411 6.15339 30.7285C5.72879 30.4159 5.51358 29.891 5.59501 29.3602L7.06074 19.9293L0.406808 13.1761C0.0345597 12.7986 -0.0934005 12.2442 0.0694579 11.737C0.232316 11.2298 0.656912 10.8582 1.18039 10.7756L10.4808 9.27753L14.7616 0.772636C15.0001 0.300797 15.4828 0 16.0063 0H16.0005ZM16.0005 4.52965L12.6386 11.2062C12.4351 11.6072 12.057 11.8903 11.615 11.9611L4.31541 13.1407L9.53852 18.443C9.8526 18.7615 9.99801 19.2156 9.92821 19.6639L8.77657 27.0659L15.3665 23.6686C15.762 23.4622 16.2332 23.4622 16.6345 23.6686L23.2244 27.0659L22.0728 19.6639C22.003 19.2156 22.1484 18.7615 22.4625 18.443L27.6856 13.1407L20.3861 11.9611C19.944 11.8903 19.5659 11.6072 19.3624 11.2062L16.0005 4.52965Z"/>
</svg>
