<svg height="1em" width="1em" fill="currentColor" viewBox="0 0 32 32" xmlns="http://www.w3.org/2000/svg">
<g clip-path="url(#clip0_138_1423)">
<path d="M3 4.5C3 3.66875 3.66875 3 4.5 3H14.2563C14.6562 3 15.0375 3.15625 15.3188 3.4375L28.3188 16.4375C28.9062 17.025 28.9062 17.975 28.3188 18.5562L18.5625 28.3188C17.975 28.9062 17.025 28.9062 16.4438 28.3188L3.44375 15.3188C3.1625 15.0375 3.00625 14.6562 3.00625 14.2563L3 4.5ZM4.5 0C2.0125 0 0 2.0125 0 4.5V14.2563C0 15.45 0.475 16.5938 1.31875 17.4375L14.3188 30.4375C16.075 32.1937 18.925 32.1937 20.6812 30.4375L30.4375 20.6812C32.1937 18.925 32.1937 16.075 30.4375 14.3188L17.4375 1.31875C16.5938 0.475 15.45 0 14.2563 0H4.5ZM8 10C8.53043 10 9.03914 9.78929 9.41421 9.41421C9.78929 9.03914 10 8.53043 10 8C10 7.46957 9.78929 6.96086 9.41421 6.58579C9.03914 6.21071 8.53043 6 8 6C7.46957 6 6.96086 6.21071 6.58579 6.58579C6.21071 6.96086 6 7.46957 6 8C6 8.53043 6.21071 9.03914 6.58579 9.41421C6.96086 9.78929 7.46957 10 8 10Z"/>
</g>
<defs>
<clipPath id="clip0_138_1423">
<rect width="32" height="32"/>
</clipPath>
</defs>
</svg>
