<svg height="1em" width="1em" fill="currentColor" viewBox="0 0 32 32" xmlns="http://www.w3.org/2000/svg">
<path d="M23.5063 1L23.9688 1.025C26.1562 1.25 27.875 3.0375 27.9937 5.25625C29.1062 5.99375 29.875 7.21875 29.9937 8.625L30.0063 9C30.0063 9.35625 29.9625 9.7 29.8813 10.0312C30.5188 10.75 30.9312 11.675 30.9937 12.7L31.0063 13C31.0063 13.825 30.7813 14.5875 30.3938 15.25C30.7 15.775 30.9062 16.3687 30.975 17L31 17.5C31 19.8312 29.2312 21.7437 26.9625 21.975L26.5 22H19.6438L20.525 23.875L20.7188 24.35C21.5 26.5813 20.6063 29.0688 18.5813 30.2875L18.1313 30.5312C15.7875 31.6313 13.025 30.7562 11.7188 28.5812L11.6813 28.525L11.5125 28.2125L11.475 28.1375L9.59375 24.1375C9.00625 25.25 7.84375 26.0063 6.5 26.0063H4.5C2.56875 26.0063 1 24.4375 1 22.5063L1.00625 8.5C1.00625 6.56875 2.575 5 4.50625 5H6.50625C7.28125 5 8 5.25625 8.58125 5.6875C9.40625 4.35 10.5813 3.225 12.0188 2.4625L12.7812 2.05625L12.825 2.0375L13.2375 1.8375L13.2812 1.81875L13.725 1.63125C14.7688 1.21875 15.8813 1.0125 17.0125 1.0125L23.5063 1ZM17 4C16.25 4 15.5063 4.14375 14.8063 4.4125L14.5125 4.5375L14.1813 4.7L13.4188 5.10625C11.5938 6.075 10.4 7.9125 10.25 9.95625L10.2375 10.4563V17.5125L10.2438 17.7687C10.275 18.2812 10.4 18.7812 10.6188 19.25L14.1688 26.8062L14.3 27.0438C14.825 27.9 15.925 28.2375 16.85 27.8062L17.0312 27.7062C17.8438 27.2188 18.2 26.225 17.8875 25.3312L17.8125 25.1437L15.925 21.1313C15.7063 20.6688 15.7438 20.125 16.0188 19.6875C16.2937 19.25 16.7688 18.9937 17.2812 18.9937H26.5L26.65 18.9875C27.3562 18.9187 27.9188 18.3562 27.9875 17.65L27.9937 17.4937C27.9937 17.05 27.8 16.65 27.4813 16.3687C27.1562 16.0812 26.9688 15.675 26.9688 15.2437C26.9688 14.8125 27.1562 14.4062 27.4813 14.1187C27.7563 13.875 27.9438 13.5375 27.9813 13.1625L27.9937 12.9937C27.9937 12.4688 27.7188 12 27.2938 11.7312C26.625 11.3 26.4062 10.425 26.7938 9.73125C26.8875 9.56875 26.95 9.38125 26.975 9.19375L26.9875 8.99375C26.9875 8.33125 26.5563 7.76875 25.95 7.56875C25.2188 7.33125 24.7812 6.575 24.95 5.81875C24.9625 5.7625 24.9688 5.70625 24.975 5.65625L24.9875 5.49375C24.9875 4.71875 24.3938 4.08125 23.6375 4.00625L23.5063 4H17ZM4.50625 8C4.23125 8 4.00625 8.225 4.00625 8.5V22.5C4.00625 22.775 4.23125 23 4.50625 23H6.50625C6.78125 23 7.00625 22.775 7.00625 22.5V8.5C7.00625 8.225 6.78125 8 6.50625 8H4.50625Z"/>
</svg>
