<svg height="1em" width="1em" fill="currentColor" viewBox="0 0 32 32" xmlns="http://www.w3.org/2000/svg">
<path d="M11.7312 3.42522C13.0312 1.25022 15.7938 0.375224 18.1375 1.47522L18.5875 1.71272C20.7625 3.01897 21.6375 5.78147 20.5375 8.12522L19.6562 10.0002H26.5125L26.975 10.0252C29.2437 10.2565 31.0125 12.1752 31.0125 14.5002C31.0125 15.3252 30.7875 16.0877 30.4 16.7502C30.7813 17.4127 31.0063 18.1752 31.0125 19.0002C31.0125 20.144 30.5813 21.1752 29.8875 21.969C29.9688 22.3002 30.0125 22.644 30.0125 23.0002C30.0125 24.569 29.2062 25.9377 28 26.744C27.8813 28.9627 26.1625 30.7565 23.975 30.9752L23.5125 31.0002H17.0063C15.8813 31.0002 14.7625 30.7877 13.7188 30.3815L13.275 30.194L13.2312 30.1752L12.8187 29.9752L12.775 29.9565L12.0125 29.5502C11.2437 29.144 10.5563 28.6315 9.95625 28.044C9.7 29.7252 8.25 31.0065 6.5 31.0065H4.5C2.56875 31.0065 1 29.4377 1 27.5065L1.0125 13.5002C1.0125 11.569 2.58125 10.0002 4.5125 10.0002H6.5125C7.1875 10.0002 7.81875 10.194 8.35625 10.5315L11.4875 3.87522L11.525 3.80022L11.6937 3.48772L11.7312 3.43147V3.42522ZM4.5125 13.0002C4.2375 13.0002 4.0125 13.2252 4.0125 13.5002V27.5002C4.0125 27.7752 4.2375 28.0002 4.5125 28.0002H6.5125C6.7875 28.0002 7.0125 27.7752 7.0125 27.5002V13.5002C7.0125 13.2252 6.7875 13.0002 6.5125 13.0002H4.5125ZM16.8625 4.18772C15.9375 3.75647 14.8437 4.08772 14.3187 4.93772L14.1812 5.18772L10.6312 12.744C10.4125 13.2127 10.2875 13.7127 10.2562 14.2252L10.25 14.4877V21.544L10.2625 22.0377C10.4125 24.0815 11.6 25.919 13.4312 26.894L14.15 27.2752L14.5437 27.469C15.3187 27.819 16.1562 28.0002 17.0063 28.0002H23.5125L23.6625 27.994C24.4188 27.919 25.0125 27.2752 25.0125 26.5002L25 26.3377C24.9937 26.2815 24.9875 26.2315 24.975 26.1752C24.8062 25.419 25.2437 24.6627 25.975 24.4252C26.5813 24.2315 27.0125 23.6627 27.0125 23.0002C27.0125 22.7315 26.9438 22.4877 26.8188 22.2627C26.425 21.569 26.6438 20.6877 27.3188 20.2627C27.7437 19.994 28.0188 19.5252 28.0188 19.0002C28.0188 18.5565 27.825 18.1565 27.5063 17.8752C27.1812 17.5877 26.9938 17.1815 26.9938 16.7502C26.9938 16.319 27.1812 15.9127 27.5063 15.6252C27.825 15.344 28.0188 14.944 28.0188 14.5002L28.0125 14.3502C27.9438 13.644 27.3813 13.0815 26.675 13.0127L26.525 13.0065H17.3063C16.7938 13.0065 16.3187 12.744 16.0437 12.3127C15.7688 11.8815 15.7312 11.3315 15.95 10.869L17.825 6.85022C18.2625 5.91272 17.9125 4.80647 17.0438 4.28772L16.8625 4.18772Z"/>
</svg>
