<svg height="1em" width="1em" fill="currentColor" viewBox="0 0 32 32" xmlns="http://www.w3.org/2000/svg">
<path d="M2.66667 8.5V10.9555C4.26111 11.8633 5.33333 13.5586 5.33333 15.5C5.33333 17.4414 4.26111 19.1422 2.66667 20.0445V22.5C2.66667 22.9813 3.06667 23.375 3.55556 23.375H28.4444C28.9333 23.375 29.3333 22.9813 29.3333 22.5V20.0445C27.7389 19.1367 26.6667 17.4414 26.6667 15.5C26.6667 13.5586 27.7389 11.8578 29.3333 10.9555V8.5C29.3333 8.01875 28.9333 7.625 28.4444 7.625H3.55556C3.06667 7.625 2.66667 8.01875 2.66667 8.5ZM0 8.5C0 6.56953 1.59444 5 3.55556 5H28.4444C30.4056 5 32 6.56953 32 8.5V12C32 12.4812 31.5889 12.8586 31.1278 13.0172C30.0833 13.3727 29.3333 14.3516 29.3333 15.5C29.3333 16.6484 30.0833 17.6273 31.1278 17.9828C31.5889 18.1414 32 18.5188 32 19V22.5C32 24.4305 30.4056 26 28.4444 26H3.55556C1.59444 26 0 24.4305 0 22.5V19C0 18.5188 0.411111 18.1414 0.872222 17.9828C1.91667 17.6273 2.66667 16.6484 2.66667 15.5C2.66667 14.3516 1.91667 13.3727 0.872222 13.0172C0.411111 12.8586 0 12.4812 0 12V8.5ZM22.2222 18.125V12.875H9.77778V18.125H22.2222ZM7.11111 12C7.11111 11.032 7.90556 10.25 8.88889 10.25H23.1111C24.0944 10.25 24.8889 11.032 24.8889 12V19C24.8889 19.968 24.0944 20.75 23.1111 20.75H8.88889C7.90556 20.75 7.11111 19.968 7.11111 19V12Z"/>
</svg>
