<svg height="1em" width="1em" fill="currentColor" viewBox="0 0 32 32" xmlns="http://www.w3.org/2000/svg">
<path d="M10.2085 1.26061C10.4917 0.50303 11.2089 0 12.0165 0H18.9835C19.785 0 20.5083 0.50303 20.7915 1.26061L21.7679 3.87879H27.5536C28.3551 3.87879 29 4.52727 29 5.33333C29 6.13939 28.3551 6.78788 27.5536 6.78788H3.44643C2.64487 6.78788 2 6.13939 2 5.33333C2 4.52727 2.64487 3.87879 3.44643 3.87879H9.23214L10.2085 1.26061ZM5.10982 28.4121L3.72969 9.69697H6.6346L7.99665 28.1939C8.03281 28.703 8.45469 29.0909 8.96094 29.0909H22.0451C22.5513 29.0909 22.9672 28.697 23.0094 28.1939L24.3714 9.69697H27.2703L25.8902 28.4061C25.7395 30.4303 24.0641 32 22.0451 32H8.96094C6.94196 32 5.26652 30.4303 5.11585 28.4061L5.10982 28.4121Z"/>
</svg>
