<svg height="1em" width="1em" fill="currentColor" viewBox="0 0 32 32" xmlns="http://www.w3.org/2000/svg">
<path d="M3.55556 4.7C3.06667 4.7 2.66667 5.105 2.66667 5.6V21.8C2.66667 22.295 3.06667 22.7 3.55556 22.7H3.73889C4.31667 20.6244 6.20556 19.1 8.44444 19.1C10.6833 19.1 12.5667 20.6244 13.15 22.7H18.85C19.1222 21.7212 19.6889 20.8606 20.4444 20.2306V5.6C20.4444 5.105 20.0444 4.7 19.5556 4.7H3.55556ZM3.73889 25.4H3.55556C1.59444 25.4 0 23.7856 0 21.8V5.6C0 3.61437 1.59444 2 3.55556 2H19.5556C21.5167 2 23.1111 3.61437 23.1111 5.6V7.4H26.1889C27.1333 7.4 28.0389 7.77687 28.7056 8.45187L30.9611 10.7356C31.6278 11.4106 32 12.3275 32 13.2837V21.8C32 23.7856 30.4056 25.4 28.4444 25.4H28.2611C27.6833 27.4756 25.7944 29 23.5556 29C21.3167 29 19.4333 27.4756 18.85 25.4H13.15C12.5722 27.4756 10.6833 29 8.44444 29C6.20556 29 4.32222 27.4756 3.73889 25.4ZM23.1111 14.6H29.3333V13.2837C29.3333 13.0475 29.2389 12.8169 29.0722 12.6481L26.8167 10.3644C26.65 10.1956 26.4222 10.1 26.1889 10.1H23.1111V14.6ZM23.1111 17.3V19.1225C23.2556 19.1112 23.4056 19.1 23.5556 19.1C25.7944 19.1 27.6778 20.6244 28.2611 22.7H28.4444C28.9333 22.7 29.3333 22.295 29.3333 21.8V17.3H23.1111ZM8.44444 26.3C9.03381 26.3 9.59905 26.0629 10.0158 25.641C10.4325 25.219 10.6667 24.6467 10.6667 24.05C10.6667 23.4533 10.4325 22.881 10.0158 22.459C9.59905 22.0371 9.03381 21.8 8.44444 21.8C7.85507 21.8 7.28984 22.0371 6.8731 22.459C6.45635 22.881 6.22222 23.4533 6.22222 24.05C6.22222 24.6467 6.45635 25.219 6.8731 25.641C7.28984 26.0629 7.85507 26.3 8.44444 26.3ZM23.5556 26.3C24.1449 26.3 24.7102 26.0629 25.1269 25.641C25.5437 25.219 25.7778 24.6467 25.7778 24.05C25.7778 23.4533 25.5437 22.881 25.1269 22.459C24.7102 22.0371 24.1449 21.8 23.5556 21.8C22.9662 21.8 22.401 22.0371 21.9842 22.459C21.5675 22.881 21.3333 23.4533 21.3333 24.05C21.3333 24.6467 21.5675 25.219 21.9842 25.641C22.401 26.0629 22.9662 26.3 23.5556 26.3Z"/>
</svg>
