<svg height="1em" width="1em" fill="currentColor" viewBox="0 0 32 32" xmlns="http://www.w3.org/2000/svg">
<path d="M6.4 6.4H20.8C21.24 6.4 21.6 6.76 21.6 7.2V20.205C20.92 20.765 20.41 21.53 20.165 22.4H15.035C14.515 20.555 12.815 19.2 10.8 19.2C8.785 19.2 7.09 20.555 6.565 22.4H6.4C5.96 22.4 5.6 22.04 5.6 21.6V17.6H6.8C7.465 17.6 8 17.065 8 16.4C8 15.735 7.465 15.2 6.8 15.2H1.2C0.535 15.2 0 15.735 0 16.4C0 17.065 0.535 17.6 1.2 17.6H3.2V21.6C3.2 23.365 4.635 24.8 6.4 24.8H6.565C7.085 26.645 8.785 28 10.8 28C12.815 28 14.51 26.645 15.035 24.8H20.165C20.685 26.645 22.385 28 24.4 28C26.415 28 28.11 26.645 28.635 24.8H28.8C30.565 24.8 32 23.365 32 21.6V14.03C32 13.18 31.665 12.365 31.065 11.765L29.035 9.735C28.435 9.135 27.62 8.8 26.77 8.8H24V7.2C24 5.435 22.565 4 20.8 4H6.4C4.635 4 3.2 5.435 3.2 7.2V8H5.6V7.2C5.6 6.76 5.96 6.4 6.4 6.4ZM24 15.2V11.2H26.77C26.98 11.2 27.185 11.285 27.335 11.435L29.365 13.465C29.515 13.615 29.6 13.82 29.6 14.03V15.2H24ZM24 17.6H29.6V21.6C29.6 22.04 29.24 22.4 28.8 22.4H28.635C28.115 20.555 26.415 19.2 24.4 19.2C24.265 19.2 24.13 19.205 24 19.22V17.6ZM3.2 10.4H1.2C0.535 10.4 0 10.935 0 11.6C0 12.265 0.535 12.8 1.2 12.8H10C10.665 12.8 11.2 12.265 11.2 11.6C11.2 10.935 10.665 10.4 10 10.4H3.2ZM10.8 21.6C11.3304 21.6 11.8391 21.8107 12.2142 22.1858C12.5893 22.5609 12.8 23.0696 12.8 23.6C12.8 24.1304 12.5893 24.6391 12.2142 25.0142C11.8391 25.3893 11.3304 25.6 10.8 25.6C10.2696 25.6 9.76086 25.3893 9.38579 25.0142C9.01071 24.6391 8.8 24.1304 8.8 23.6C8.8 23.0696 9.01071 22.5609 9.38579 22.1858C9.76086 21.8107 10.2696 21.6 10.8 21.6ZM24.4 21.6C24.9304 21.6 25.4391 21.8107 25.8142 22.1858C26.1893 22.5609 26.4 23.0696 26.4 23.6C26.4 24.1304 26.1893 24.6391 25.8142 25.0142C25.4391 25.3893 24.9304 25.6 24.4 25.6C23.8696 25.6 23.3609 25.3893 22.9858 25.0142C22.6107 24.6391 22.4 24.1304 22.4 23.6C22.4 23.0696 22.6107 22.5609 22.9858 22.1858C23.3609 21.8107 23.8696 21.6 24.4 21.6Z"/>
</svg>
