<svg height="1em" width="1em" fill="currentColor" viewBox="0 0 32 32" xmlns="http://www.w3.org/2000/svg">
<path d="M16 12.7241C16.8487 12.7241 17.6626 12.3899 18.2627 11.795C18.8629 11.2 19.2 10.3931 19.2 9.55172C19.2 8.71035 18.8629 7.90343 18.2627 7.30849C17.6626 6.71355 16.8487 6.37931 16 6.37931C15.1513 6.37931 14.3374 6.71355 13.7373 7.30849C13.1371 7.90343 12.8 8.71035 12.8 9.55172C12.8 10.3931 13.1371 11.2 13.7373 11.795C14.3374 12.3899 15.1513 12.7241 16 12.7241ZM16 4C17.4852 4 18.9096 4.58491 19.9598 5.62606C21.01 6.66721 21.6 8.07932 21.6 9.55172C21.6 11.0241 21.01 12.4362 19.9598 13.4774C18.9096 14.5185 17.4852 15.1034 16 15.1034C14.5148 15.1034 13.0904 14.5185 12.0402 13.4774C10.99 12.4362 10.4 11.0241 10.4 9.55172C10.4 8.07932 10.99 6.66721 12.0402 5.62606C13.0904 4.58491 14.5148 4 16 4ZM14.8 19.8621C11.93 19.8621 9.6 22.172 9.6 25.0172V25.8103C9.6 26.4696 9.065 27 8.4 27C7.735 27 7.2 26.4696 7.2 25.8103V25.0172C7.2 20.8584 10.605 17.4828 14.8 17.4828H17.2C21.395 17.4828 24.8 20.8584 24.8 25.0172V25.8103C24.8 26.4696 24.265 27 23.6 27C22.935 27 22.4 26.4696 22.4 25.8103V25.0172C22.4 22.172 20.07 19.8621 17.2 19.8621H14.8ZM21.57 15.2422C22.155 14.6821 22.65 14.0328 23.04 13.319C23.335 13.4478 23.66 13.5172 24 13.5172C25.325 13.5172 26.4 12.4515 26.4 11.1379C26.4 9.82435 25.325 8.75862 24 8.75862H23.96C23.88 7.93578 23.67 7.15259 23.355 6.42392C23.565 6.39418 23.785 6.37931 24 6.37931C26.65 6.37931 28.8 8.51078 28.8 11.1379C28.8 13.7651 26.65 15.8966 24 15.8966C23.115 15.8966 22.285 15.6586 21.57 15.2422ZM8 6.37931C8.22 6.37931 8.435 6.39418 8.645 6.42392C8.33 7.15259 8.12 7.94073 8.04 8.75862H8C6.675 8.75862 5.6 9.82435 5.6 11.1379C5.6 12.4515 6.675 13.5172 8 13.5172C8.34 13.5172 8.665 13.4478 8.96 13.319C9.35 14.0328 9.845 14.6821 10.43 15.2422C9.72 15.6586 8.89 15.8966 8 15.8966C5.35 15.8966 3.2 13.7651 3.2 11.1379C3.2 8.51078 5.35 6.37931 8 6.37931ZM7.465 18.2759C6.71 19.0838 6.09 20.0108 5.64 21.0319C3.74 21.8002 2.4 23.6491 2.4 25.8103C2.4 26.4696 1.865 27 1.2 27C0.535 27 0 26.4696 0 25.8103C0 21.6912 3.33 18.3453 7.465 18.2759ZM26.36 21.0319C25.91 20.0108 25.285 19.0789 24.535 18.2759C28.67 18.3453 32 21.6912 32 25.8103C32 26.4696 31.465 27 30.8 27C30.135 27 29.6 26.4696 29.6 25.8103C29.6 23.6491 28.26 21.8002 26.36 21.0319Z"/>
</svg>
