<svg height="1em" width="1em" fill="currentColor" viewBox="0 0 32 32" xmlns="http://www.w3.org/2000/svg">
<path d="M11 8C11 6.67392 11.5268 5.40215 12.4645 4.46447C13.4021 3.52678 14.6739 3 16 3C17.3261 3 18.5979 3.52678 19.5355 4.46447C20.4732 5.40215 21 6.67392 21 8C21 9.32608 20.4732 10.5979 19.5355 11.5355C18.5979 12.4732 17.3261 13 16 13C14.6739 13 13.4021 12.4732 12.4645 11.5355C11.5268 10.5979 11 9.32608 11 8ZM24 8C24 5.87827 23.1571 3.84344 21.6569 2.34315C20.1566 0.842855 18.1217 0 16 0C13.8783 0 11.8434 0.842855 10.3431 2.34315C8.84285 3.84344 8 5.87827 8 8C8 10.1217 8.84285 12.1566 10.3431 13.6569C11.8434 15.1571 13.8783 16 16 16C18.1217 16 20.1566 15.1571 21.6569 13.6569C23.1571 12.1566 24 10.1217 24 8ZM5 30C5 25.5812 8.58125 22 13 22H19C23.4188 22 27 25.5812 27 30V30.5C27 31.3312 27.6688 32 28.5 32C29.3312 32 30 31.3312 30 30.5V30C30 23.925 25.075 19 19 19H13C6.925 19 2 23.925 2 30V30.5C2 31.3312 2.66875 32 3.5 32C4.33125 32 5 31.3312 5 30.5V30Z"/>
</svg>
