<svg height="1em" width="1em" fill="currentColor" viewBox="0 0 32 32" xmlns="http://www.w3.org/2000/svg">
<path d="M15.7937 2C15.2063 2 14.65 2.23125 14.2312 2.64375L6.88125 10H3C1.34375 10 0 11.3438 0 13V19C0 20.6562 1.34375 22 3 22H6.88125L14.2375 29.3563C14.65 29.7688 15.2125 30 15.8 30C17.0187 30 18.0063 29.0125 18.0063 27.7938V4.20625C18 2.9875 17.0125 2 15.7937 2ZM8.5625 12.5625L15 6.125V25.8813L8.5625 19.4438C8.28125 19.1625 7.9 19.0063 7.5 19.0063H3V13.0063H7.5C7.9 13.0063 8.28125 12.85 8.5625 12.5688V12.5625ZM27.5688 6.6875C26.925 6.1625 25.9812 6.2625 25.4562 6.90625C24.9312 7.55 25.0312 8.49375 25.675 9.01875C27.7062 10.6687 29 13.1812 29 16C29 18.8188 27.7062 21.3312 25.675 22.9875C25.0312 23.5125 24.9375 24.4563 25.4562 25.1C25.975 25.7437 26.925 25.8375 27.5688 25.3188C30.2688 23.1187 32 19.7625 32 16.0063C32 12.25 30.2688 8.89375 27.5688 6.69375V6.6875ZM23.7875 11.3438C23.1438 10.8188 22.2 10.9187 21.675 11.5625C21.15 12.2063 21.25 13.15 21.8937 13.675C22.5687 14.225 23 15.0625 23 16C23 16.9375 22.5687 17.775 21.8937 18.3312C21.25 18.8562 21.1562 19.8 21.675 20.4438C22.1937 21.0875 23.1438 21.1812 23.7875 20.6625C25.1313 19.5562 26 17.8813 26 16C26 14.1187 25.1313 12.4438 23.7812 11.3438H23.7875Z"/>
</svg>
