<svg height="1em" width="1em" fill="currentColor" viewBox="0 0 32 32" xmlns="http://www.w3.org/2000/svg">
<path d="M2.27245 11.3371C5.79945 7.83817 10.6484 5.67857 16.0028 5.67857C21.3572 5.67857 26.2005 7.83817 29.7331 11.3371C30.2552 11.856 31.0995 11.8504 31.616 11.3259C32.1326 10.8013 32.127 9.95312 31.6049 9.43415C27.5947 5.45536 22.0792 3 16.0028 3C9.92633 3 4.40531 5.45536 0.395078 9.43415C-0.127031 9.95312 -0.132585 10.8013 0.383969 11.3259C0.900523 11.8504 1.74478 11.856 2.26689 11.3371H2.27245ZM16.0028 15.5C18.9799 15.5 21.646 16.8337 23.44 18.9431C23.9177 19.5067 24.762 19.5737 25.3174 19.0938C25.8728 18.6138 25.945 17.7656 25.4674 17.2076C23.1901 14.529 19.7908 12.8214 16.0028 12.8214C12.2147 12.8214 8.82101 14.5234 6.53818 17.2076C6.06051 17.7712 6.12716 18.6138 6.68815 19.0938C7.24914 19.5737 8.08784 19.5067 8.56551 18.9431C10.3596 16.8337 13.0257 15.5 16.0028 15.5ZM18.6689 25.3214C18.6689 24.611 18.388 23.9297 17.888 23.4274C17.388 22.9251 16.7099 22.6429 16.0028 22.6429C15.2957 22.6429 14.6176 22.9251 14.1176 23.4274C13.6176 23.9297 13.3367 24.611 13.3367 25.3214C13.3367 26.0318 13.6176 26.7131 14.1176 27.2155C14.6176 27.7178 15.2957 28 16.0028 28C16.7099 28 17.388 27.7178 17.888 27.2155C18.388 26.7131 18.6689 26.0318 18.6689 25.3214Z"/>
</svg>
