<svg height="1em" width="1em" fill="currentColor" viewBox="0 0 32 32" xmlns="http://www.w3.org/2000/svg">
<path d="M4.4687 6.56255C3.8812 5.97505 3.8812 5.02505 4.4687 4.4438C5.0562 3.86255 6.0062 3.8563 6.58745 4.4438L16.025 13.8813L25.4625 4.4438C26.0499 3.8563 27 3.8563 27.5812 4.4438C28.1624 5.0313 28.1687 5.9813 27.5812 6.56255L18.1437 16L27.5812 25.4375C28.1687 26.025 28.1687 26.975 27.5812 27.5563C26.9937 28.1375 26.0437 28.1438 25.4625 27.5563L16.025 18.1188L6.58745 27.5563C5.99995 28.1438 5.04995 28.1438 4.4687 27.5563C3.88745 26.9688 3.8812 26.0188 4.4687 25.4375L13.9062 16L4.4687 6.56255Z"/>
</svg>
